<ttFont>
    <TTGlyph name="A" xMin="-14" yMin="0" xMax="500" yMax="640">
      <contour>
        <pt x="424" y="0" on="1"/>
        <pt x="418" y="62" on="1"/>
        <pt x="397" y="177" on="1"/>
        <pt x="261" y="179" on="1"/>
        <pt x="138" y="177" on="1"/>
        <pt x="86" y="66" on="1"/>
        <pt x="61" y="0" on="1"/>
        <pt x="-14" y="0" on="1"/>
        <pt x="290" y="640" on="1"/>
        <pt x="376" y="640" on="1"/>
        <pt x="500" y="0" on="1"/>
      </contour>
      <contour>
        <pt x="325" y="562" on="1"/>
        <pt x="318" y="562" on="1"/>
        <pt x="168" y="241" on="1"/>
        <pt x="274" y="240" on="1"/>
        <pt x="385" y="241" on="1"/>
      </contour>
    </TTGlyph>
    <TTGlyph name="AE" xMin="-43" yMin="0" xMax="730" yMax="640">
      <contour>
        <pt x="717" y="0" on="1"/>
        <pt x="388" y="0" on="1"/>
        <pt x="390" y="62" on="1"/>
        <pt x="387" y="261" on="1"/>
        <pt x="156" y="208" on="1"/>
        <pt x="67" y="66" on="1"/>
        <pt x="35" y="0" on="1"/>
        <pt x="-43" y="0" on="1"/>
        <pt x="359" y="640" on="1"/>
        <pt x="711" y="640" on="1"/>
        <pt x="715" y="633" on="1"/>
        <pt x="701" y="574" on="1"/>
        <pt x="548" y="578" on="1"/>
        <pt x="456" y="578" on="1"/>
        <pt x="459" y="336" on="1"/>
        <pt x="669" y="381" on="1"/>
        <pt x="674" y="375" on="1"/>
        <pt x="672" y="320" on="1"/>
        <pt x="459" y="277" on="1"/>
        <pt x="462" y="61" on="1"/>
        <pt x="570" y="61" on="1"/>
        <pt x="726" y="66" on="1"/>
        <pt x="730" y="59" on="1"/>
      </contour>
      <contour>
        <pt x="382" y="562" on="1"/>
        <pt x="377" y="562" on="1"/>
        <pt x="201" y="280" on="1"/>
        <pt x="386" y="320" on="1"/>
      </contour>
    </TTGlyph>
    <TTGlyph name="AEacute" xMin="-43" yMin="0" xMax="730" yMax="861">
      <component glyphName="AE" x="0" y="0" flags="0x1000"/>
      <component glyphName="acute.cap" x="312" y="182" flags="0x1000"/>
    </TTGlyph>
    <TTGlyph name="Aacute" xMin="-14" yMin="0" xMax="500" yMax="861">
      <component glyphName="A" x="0" y="0" flags="0x1000"/>
      <component glyphName="acute.cap" x="117" y="182" flags="0x1000"/>
    </TTGlyph>
    <TTGlyph name="Abreve" xMin="-14" yMin="0" xMax="500" yMax="839">
      <component glyphName="A" x="0" y="0" flags="0x1000"/>
      <component glyphName="breve.cap" x="102" y="182" flags="0x1000"/>
    </TTGlyph>
    <TTGlyph name="Abreveacute" xMin="-14" yMin="0" xMax="500" yMax="944">
      <component glyphName="A" x="0" y="0" flags="0x1000"/>
      <component glyphName="breveacute" x="107" y="182" flags="0x1000"/>
    </TTGlyph>
    <TTGlyph name="Abrevedotbelow" xMin="-13" yMin="-161" xMax="501" yMax="839">
      <contour>
        <pt x="294" y="724" on="0"/>
        <pt x="231" y="770" on="0"/>
        <pt x="222" y="813" on="1"/>
        <pt x="247" y="839" on="1"/>
        <pt x="259" y="839" on="1"/>
        <pt x="272" y="779" on="0"/>
        <pt x="343" y="779" on="1"/>
        <pt x="411" y="779" on="0"/>
        <pt x="441" y="839" on="1"/>
        <pt x="453" y="839" on="1"/>
        <pt x="471" y="813" on="1"/>
        <pt x="452" y="770" on="0"/>
        <pt x="386" y="724" on="0"/>
        <pt x="343" y="724" on="1"/>
      </contour>
      <contour>
        <pt x="425" y="0" on="1"/>
        <pt x="418" y="62" on="1"/>
        <pt x="397" y="177" on="1"/>
        <pt x="261" y="179" on="1"/>
        <pt x="138" y="177" on="1"/>
        <pt x="86" y="66" on="1"/>
        <pt x="62" y="0" on="1"/>
        <pt x="-13" y="0" on="1"/>
        <pt x="291" y="640" on="1"/>
        <pt x="377" y="640" on="1"/>
        <pt x="501" y="0" on="1"/>
      </contour>
      <contour>
        <pt x="326" y="562" on="1"/>
        <pt x="319" y="562" on="1"/>
        <pt x="168" y="241" on="1"/>
        <pt x="275" y="240" on="1"/>
        <pt x="385" y="241" on="1"/>
      </contour>
      <contour>
        <pt x="253" y="-73" on="0"/>
        <pt x="275" y="-96" on="0"/>
        <pt x="275" y="-115" on="1"/>
        <pt x="275" y="-136" on="0"/>
        <pt x="251" y="-161" on="0"/>
        <pt x="231" y="-161" on="1"/>
        <pt x="211" y="-161" on="0"/>
        <pt x="188" y="-138" on="0"/>
        <pt x="188" y="-118" on="1"/>
        <pt x="188" y="-98" on="0"/>
        <pt x="212" y="-73" on="0"/>
        <pt x="233" y="-73" on="1"/>
      </contour>
    </TTGlyph>
    <TTGlyph name="Abrevegrave" xMin="-14" yMin="0" xMax="500" yMax="944">
      <component glyphName="A" x="0" y="0" flags="0x1000"/>
      <component glyphName="brevegrave" x="107" y="182" flags="0x1000"/>
    </TTGlyph>
    <TTGlyph name="Abrevehookabove" xMin="-14" yMin="0" xMax="500" yMax="993">
      <component glyphName="A" x="0" y="0" flags="0x1000"/>
      <component glyphName="brevehookabove" x="107" y="182" flags="0x1000"/>
    </TTGlyph>
    <TTGlyph name="Abrevetilde" xMin="-14" yMin="0" xMax="509" yMax="963">
      <component glyphName="A" x="0" y="0" flags="0x1000"/>
      <component glyphName="brevetilde" x="107" y="182" flags="0x1000"/>
    </TTGlyph>
    <TTGlyph name="Acaron" xMin="-14" yMin="0" xMax="500" yMax="846">
      <component glyphName="A" x="0" y="0" flags="0x1000"/>
      <component glyphName="caron.cap" x="102" y="182" flags="0x1000"/>
    </TTGlyph>
    <TTGlyph name="Acircumflex" xMin="-14" yMin="0" xMax="500" yMax="854">
      <component glyphName="A" x="0" y="0" flags="0x1000"/>
      <component glyphName="circumflex.cap" x="109" y="182" flags="0x1000"/>
    </TTGlyph>
    <TTGlyph name="Acircumflexacute" xMin="-14" yMin="0" xMax="507" yMax="943">
      <component glyphName="A" x="0" y="0" flags="0x1000"/>
      <component glyphName="circumflexacute" x="107" y="182" flags="0x1000"/>
    </TTGlyph>
    <TTGlyph name="Acircumflexdotbelow" xMin="-13" yMin="-161" xMax="501" yMax="854">
      <contour>
        <pt x="221" y="765" on="1"/>
        <pt x="277" y="799" on="0"/>
        <pt x="346" y="854" on="1"/>
        <pt x="368" y="854" on="1"/>
        <pt x="409" y="814" on="0"/>
        <pt x="474" y="765" on="1"/>
        <pt x="454" y="732" on="1"/>
        <pt x="446" y="732" on="1"/>
        <pt x="403" y="761" on="0"/>
        <pt x="353" y="799" on="1"/>
        <pt x="289" y="759" on="0"/>
        <pt x="242" y="732" on="1"/>
        <pt x="233" y="732" on="1"/>
      </contour>
      <contour>
        <pt x="425" y="0" on="1"/>
        <pt x="418" y="62" on="1"/>
        <pt x="397" y="177" on="1"/>
        <pt x="261" y="179" on="1"/>
        <pt x="138" y="177" on="1"/>
        <pt x="86" y="66" on="1"/>
        <pt x="62" y="0" on="1"/>
        <pt x="-13" y="0" on="1"/>
        <pt x="291" y="640" on="1"/>
        <pt x="377" y="640" on="1"/>
        <pt x="501" y="0" on="1"/>
      </contour>
      <contour>
        <pt x="326" y="562" on="1"/>
        <pt x="319" y="562" on="1"/>
        <pt x="168" y="241" on="1"/>
        <pt x="275" y="240" on="1"/>
        <pt x="385" y="241" on="1"/>
      </contour>
      <contour>
        <pt x="253" y="-73" on="0"/>
        <pt x="275" y="-96" on="0"/>
        <pt x="275" y="-115" on="1"/>
        <pt x="275" y="-136" on="0"/>
        <pt x="251" y="-161" on="0"/>
        <pt x="231" y="-161" on="1"/>
        <pt x="211" y="-161" on="0"/>
        <pt x="188" y="-138" on="0"/>
        <pt x="188" y="-118" on="1"/>
        <pt x="188" y="-98" on="0"/>
        <pt x="212" y="-73" on="0"/>
        <pt x="233" y="-73" on="1"/>
      </contour>
    </TTGlyph>
    <TTGlyph name="Acircumflexgrave" xMin="-14" yMin="0" xMax="500" yMax="942">
      <component glyphName="A" x="0" y="0" flags="0x1000"/>
      <component glyphName="circumflexgrave" x="107" y="182" flags="0x1000"/>
    </TTGlyph>
    <TTGlyph name="Acircumflexhookabove" xMin="-14" yMin="0" xMax="500" yMax="981">
      <component glyphName="A" x="0" y="0" flags="0x1000"/>
      <component glyphName="circumflexhookabove" x="107" y="182" flags="0x1000"/>
    </TTGlyph>
    <TTGlyph name="Acircumflextilde" xMin="-14" yMin="0" xMax="527" yMax="963">
      <component glyphName="A" x="0" y="0" flags="0x1000"/>
      <component glyphName="circumflextilde" x="125" y="182" flags="0x1000"/>
    </TTGlyph>
    <TTGlyph name="Adieresis" xMin="-14" yMin="0" xMax="500" yMax="831">
      <component glyphName="A" x="0" y="0" flags="0x1000"/>
      <component glyphName="dieresis" x="106" y="182" flags="0x1000"/>
    </TTGlyph>
    <TTGlyph name="Adotbelow" xMin="-14" yMin="-161" xMax="500" yMax="640">
      <component glyphName="A" x="0" y="0" flags="0x1000"/>
      <component glyphName="dotbelowcomb" x="80" y="0" flags="0x1000"/>
    </TTGlyph>
    <TTGlyph name="Agrave" xMin="-14" yMin="0" xMax="500" yMax="863">
      <component glyphName="A" x="0" y="0" flags="0x1000"/>
      <component glyphName="grave.cap" x="107" y="182" flags="0x1000"/>
    </TTGlyph>
    <TTGlyph name="Ahookabove" xMin="-14" yMin="0" xMax="500" yMax="892">
      <component glyphName="A" x="0" y="0" flags="0x1000"/>
      <component glyphName="hookabove" x="78" y="182" flags="0x1000"/>
    </TTGlyph>
    <TTGlyph name="Amacron" xMin="-14" yMin="0" xMax="500" yMax="814">
      <component glyphName="A" x="0" y="0" flags="0x1000"/>
      <component glyphName="macron" x="106" y="182" flags="0x1000"/>
    </TTGlyph>
    <TTGlyph name="Aogonek" xMin="-13" yMin="-196" xMax="501" yMax="640">
      <contour>
        <pt x="495" y="-145" on="1"/>
        <pt x="455" y="-196" on="0"/>
        <pt x="411" y="-196" on="1"/>
        <pt x="383" y="-196" on="0"/>
        <pt x="347" y="-162" on="0"/>
        <pt x="347" y="-133" on="1"/>
        <pt x="347" y="-110" on="0"/>
        <pt x="379" y="-54" on="0"/>
        <pt x="425" y="0" on="1"/>
        <pt x="418" y="62" on="1"/>
        <pt x="397" y="177" on="1"/>
        <pt x="261" y="179" on="1"/>
        <pt x="138" y="177" on="1"/>
        <pt x="86" y="66" on="1"/>
        <pt x="62" y="0" on="1"/>
        <pt x="-13" y="0" on="1"/>
        <pt x="291" y="640" on="1"/>
        <pt x="377" y="640" on="1"/>
        <pt x="501" y="0" on="1"/>
        <pt x="481" y="0" on="1"/>
        <pt x="434" y="-47" on="0"/>
        <pt x="400" y="-98" on="0"/>
        <pt x="400" y="-117" on="1"/>
        <pt x="400" y="-144" on="0"/>
        <pt x="424" y="-144" on="1"/>
        <pt x="452" y="-144" on="0"/>
        <pt x="487" y="-101" on="1"/>
        <pt x="491" y="-101" on="1"/>
      </contour>
      <contour>
        <pt x="326" y="562" on="1"/>
        <pt x="319" y="562" on="1"/>
        <pt x="168" y="241" on="1"/>
        <pt x="275" y="240" on="1"/>
        <pt x="385" y="241" on="1"/>
      </contour>
    </TTGlyph>
    <TTGlyph name="Aring" xMin="-14" yMin="0" xMax="500" yMax="877">
      <component glyphName="A" x="0" y="0" flags="0x1000"/>
      <component glyphName="ring" x="106" y="182" flags="0x1000"/>
    </TTGlyph>
    <TTGlyph name="Aringacute" xMin="-12" yMin="0" xMax="502" yMax="893">
      <contour>
        <pt x="250" y="824" on="1"/>
        <pt x="346" y="853" on="0"/>
        <pt x="455" y="893" on="1"/>
        <pt x="464" y="890" on="1"/>
        <pt x="475" y="844" on="1"/>
        <pt x="472" y="837" on="1"/>
        <pt x="446" y="829" on="0"/>
        <pt x="334" y="799" on="1"/>
        <pt x="306" y="793" on="0"/>
        <pt x="267" y="782" on="1"/>
        <pt x="259" y="788" on="1"/>
      </contour>
      <contour>
        <pt x="426" y="0" on="1"/>
        <pt x="419" y="61" on="1"/>
        <pt x="398" y="175" on="1"/>
        <pt x="261" y="178" on="1"/>
        <pt x="139" y="175" on="1"/>
        <pt x="86" y="65" on="1"/>
        <pt x="63" y="0" on="1"/>
        <pt x="-12" y="0" on="1"/>
        <pt x="287" y="617" on="1"/>
        <pt x="255" y="638" on="0"/>
        <pt x="255" y="684" on="1"/>
        <pt x="255" y="721" on="0"/>
        <pt x="300" y="766" on="0"/>
        <pt x="339" y="766" on="1"/>
        <pt x="378" y="766" on="0"/>
        <pt x="421" y="721" on="0"/>
        <pt x="421" y="686" on="1"/>
        <pt x="421" y="634" on="0"/>
        <pt x="379" y="612" on="1"/>
        <pt x="502" y="0" on="1"/>
      </contour>
      <contour>
        <pt x="316" y="728" on="0"/>
        <pt x="292" y="705" on="0"/>
        <pt x="292" y="685" on="1"/>
        <pt x="292" y="663" on="0"/>
        <pt x="317" y="639" on="0"/>
        <pt x="338" y="639" on="1"/>
        <pt x="358" y="639" on="0"/>
        <pt x="384" y="662" on="0"/>
        <pt x="384" y="683" on="1"/>
        <pt x="384" y="703" on="0"/>
        <pt x="360" y="728" on="0"/>
        <pt x="337" y="728" on="1"/>
      </contour>
      <contour>
        <pt x="327" y="557" on="1"/>
        <pt x="320" y="557" on="1"/>
        <pt x="169" y="240" on="1"/>
        <pt x="275" y="238" on="1"/>
        <pt x="386" y="240" on="1"/>
      </contour>
    </TTGlyph>
    <TTGlyph name="Atilde" xMin="-14" yMin="0" xMax="503" yMax="847">
      <component glyphName="A" x="0" y="0" flags="0x1000"/>
      <component glyphName="tilde" x="106" y="182" flags="0x1000"/>
    </TTGlyph>
    <TTGlyph name="B" xMin="63" yMin="-4" xMax="471" yMax="642">
      <contour>
        <pt x="471" y="301" on="0"/>
        <pt x="471" y="201" on="1"/>
        <pt x="471" y="101" on="0"/>
        <pt x="334" y="-4" on="0"/>
        <pt x="199" y="-4" on="1"/>
        <pt x="113" y="-4" on="0"/>
        <pt x="64" y="0" on="1"/>
        <pt x="63" y="0" on="1"/>
        <pt x="92" y="193" on="1"/>
        <pt x="144" y="640" on="1"/>
        <pt x="145" y="640" on="1"/>
        <pt x="308" y="642" on="1"/>
        <pt x="385" y="642" on="0"/>
        <pt x="470" y="573" on="0"/>
        <pt x="470" y="508" on="1"/>
        <pt x="470" y="446" on="0"/>
        <pt x="412" y="357" on="0"/>
        <pt x="358" y="334" on="1"/>
      </contour>
      <contour>
        <pt x="393" y="538" on="0"/>
        <pt x="343" y="579" on="0"/>
        <pt x="290" y="579" on="1"/>
        <pt x="212" y="579" on="1"/>
        <pt x="181" y="360" on="1"/>
        <pt x="286" y="357" on="1"/>
        <pt x="393" y="381" on="0"/>
        <pt x="393" y="495" on="1"/>
      </contour>
      <contour>
        <pt x="301" y="59" on="0"/>
        <pt x="394" y="131" on="0"/>
        <pt x="394" y="197" on="1"/>
        <pt x="394" y="285" on="0"/>
        <pt x="290" y="297" on="1"/>
        <pt x="172" y="296" on="1"/>
        <pt x="159" y="199" on="1"/>
        <pt x="145" y="62" on="1"/>
        <pt x="183" y="59" on="0"/>
        <pt x="216" y="59" on="1"/>
      </contour>
    </TTGlyph>
    <TTGlyph name="C" xMin="47" yMin="-7" xMax="523" yMax="646">
      <contour>
        <pt x="457" y="646" on="0"/>
        <pt x="523" y="597" on="1"/>
        <pt x="499" y="528" on="1"/>
        <pt x="491" y="526" on="1"/>
        <pt x="433" y="582" on="0"/>
        <pt x="351" y="582" on="1"/>
        <pt x="243" y="582" on="0"/>
        <pt x="125" y="417" on="0"/>
        <pt x="125" y="266" on="1"/>
        <pt x="125" y="165" on="0"/>
        <pt x="207" y="58" on="0"/>
        <pt x="283" y="58" on="1"/>
        <pt x="370" y="58" on="0"/>
        <pt x="450" y="119" on="1"/>
        <pt x="459" y="114" on="1"/>
        <pt x="443" y="43" on="1"/>
        <pt x="357" y="-7" on="0"/>
        <pt x="271" y="-7" on="1"/>
        <pt x="164" y="-7" on="0"/>
        <pt x="47" y="130" on="0"/>
        <pt x="47" y="255" on="1"/>
        <pt x="47" y="376" on="0"/>
        <pt x="121" y="552" on="0"/>
        <pt x="262" y="646" on="0"/>
        <pt x="360" y="646" on="1"/>
      </contour>
    </TTGlyph>
    <TTGlyph name="C.ss01" xMin="-124" yMin="0" xMax="567" yMax="498">
      <contour>
        <pt x="424" y="464" on="1"/>
        <pt x="429" y="461" on="1"/>
        <pt x="408" y="398" on="1"/>
        <pt x="400" y="395" on="1"/>
        <pt x="354" y="439" on="0"/>
        <pt x="287" y="439" on="1"/>
        <pt x="206" y="439" on="0"/>
        <pt x="118" y="322" on="0"/>
        <pt x="118" y="212" on="1"/>
        <pt x="118" y="138" on="0"/>
        <pt x="181" y="59" on="0"/>
        <pt x="240" y="59" on="1"/>
        <pt x="310" y="59" on="0"/>
        <pt x="372" y="105" on="1"/>
        <pt x="380" y="102" on="1"/>
        <pt x="366" y="38" on="1"/>
        <pt x="356" y="33" on="1"/>
        <pt x="509" y="33" on="1"/>
        <pt x="504" y="0" on="1"/>
        <pt x="-124" y="0" on="1"/>
        <pt x="-119" y="33" on="1"/>
        <pt x="117" y="33" on="1"/>
        <pt x="46" y="83" on="0"/>
        <pt x="46" y="203" on="1"/>
        <pt x="46" y="296" on="0"/>
        <pt x="110" y="430" on="0"/>
        <pt x="169" y="464" on="1"/>
        <pt x="-66" y="464" on="1"/>
        <pt x="-61" y="498" on="1"/>
        <pt x="567" y="498" on="1"/>
        <pt x="561" y="464" on="1"/>
      </contour>
    </TTGlyph>
    <TTGlyph name="Cacute" xMin="47" yMin="-7" xMax="523" yMax="861">
      <component glyphName="C" x="0" y="0" flags="0x1000"/>
      <component glyphName="acute.cap" x="125" y="182" flags="0x1000"/>
    </TTGlyph>
    <TTGlyph name="Ccaron" xMin="47" yMin="-7" xMax="523" yMax="846">
      <component glyphName="C" x="0" y="0" flags="0x1000"/>
      <component glyphName="caron.cap" x="110" y="182" flags="0x1000"/>
    </TTGlyph>
    <TTGlyph name="Ccedilla" xMin="47" yMin="-191" xMax="524" yMax="646">
      <contour>
        <pt x="456" y="646" on="0"/>
        <pt x="524" y="597" on="1"/>
        <pt x="500" y="528" on="1"/>
        <pt x="491" y="526" on="1"/>
        <pt x="435" y="582" on="0"/>
        <pt x="351" y="582" on="1"/>
        <pt x="244" y="582" on="0"/>
        <pt x="126" y="417" on="0"/>
        <pt x="126" y="266" on="1"/>
        <pt x="126" y="165" on="0"/>
        <pt x="207" y="58" on="0"/>
        <pt x="283" y="58" on="1"/>
        <pt x="371" y="58" on="0"/>
        <pt x="451" y="119" on="1"/>
        <pt x="459" y="114" on="1"/>
        <pt x="444" y="43" on="1"/>
        <pt x="373" y="2" on="0"/>
        <pt x="306" y="-5" on="1"/>
        <pt x="292" y="-51" on="1"/>
        <pt x="325" y="-71" on="1"/>
        <pt x="363" y="-91" on="0"/>
        <pt x="363" y="-126" on="1"/>
        <pt x="363" y="-155" on="0"/>
        <pt x="319" y="-191" on="0"/>
        <pt x="284" y="-191" on="1"/>
        <pt x="241" y="-191" on="0"/>
        <pt x="212" y="-160" on="1"/>
        <pt x="220" y="-122" on="1"/>
        <pt x="225" y="-120" on="1"/>
        <pt x="251" y="-151" on="0"/>
        <pt x="280" y="-151" on="1"/>
        <pt x="313" y="-151" on="0"/>
        <pt x="313" y="-124" on="1"/>
        <pt x="313" y="-109" on="0"/>
        <pt x="291" y="-99" on="1"/>
        <pt x="244" y="-70" on="1"/>
        <pt x="261" y="-7" on="1"/>
        <pt x="158" y="-3" on="0"/>
        <pt x="47" y="133" on="0"/>
        <pt x="47" y="255" on="1"/>
        <pt x="47" y="376" on="0"/>
        <pt x="121" y="552" on="0"/>
        <pt x="262" y="646" on="0"/>
        <pt x="360" y="646" on="1"/>
      </contour>
    </TTGlyph>
    <TTGlyph name="Ccircumflex" xMin="47" yMin="-7" xMax="523" yMax="854">
      <component glyphName="C" x="0" y="0" flags="0x1000"/>
      <component glyphName="circumflex.cap" x="117" y="182" flags="0x1000"/>
    </TTGlyph>
    <TTGlyph name="Cdotaccent" xMin="47" yMin="-7" xMax="523" yMax="843">
      <component glyphName="C" x="0" y="0" flags="0x1000"/>
      <component glyphName="dotaccent" x="114" y="182" flags="0x1000"/>
    </TTGlyph>
    <TTGlyph name="D" xMin="63" yMin="-6" xMax="599" yMax="645">
      <contour>
        <pt x="473" y="645" on="0"/>
        <pt x="599" y="515" on="0"/>
        <pt x="599" y="395" on="1"/>
        <pt x="599" y="271" on="0"/>
        <pt x="522" y="91" on="0"/>
        <pt x="372" y="-6" on="0"/>
        <pt x="266" y="-6" on="1"/>
        <pt x="168" y="-6" on="0"/>
        <pt x="64" y="0" on="1"/>
        <pt x="63" y="0" on="1"/>
        <pt x="92" y="193" on="1"/>
        <pt x="144" y="640" on="1"/>
        <pt x="145" y="640" on="1"/>
        <pt x="358" y="645" on="1"/>
      </contour>
      <contour>
        <pt x="395" y="57" on="0"/>
        <pt x="520" y="224" on="0"/>
        <pt x="520" y="381" on="1"/>
        <pt x="520" y="582" on="0"/>
        <pt x="350" y="582" on="1"/>
        <pt x="283" y="582" on="0"/>
        <pt x="211" y="578" on="1"/>
        <pt x="159" y="199" on="1"/>
        <pt x="145" y="63" on="1"/>
        <pt x="237" y="57" on="0"/>
        <pt x="281" y="57" on="1"/>
      </contour>
    </TTGlyph>
    <TTGlyph name="D.ss01" xMin="-124" yMin="0" xMax="666" yMax="498">
      <contour>
        <pt x="421" y="464" on="1"/>
        <pt x="495" y="417" on="0"/>
        <pt x="495" y="302" on="1"/>
        <pt x="495" y="206" on="0"/>
        <pt x="427" y="68" on="0"/>
        <pt x="363" y="33" on="1"/>
        <pt x="608" y="33" on="1"/>
        <pt x="603" y="0" on="1"/>
        <pt x="-124" y="0" on="1"/>
        <pt x="-119" y="33" on="1"/>
        <pt x="67" y="33" on="1"/>
        <pt x="84" y="152" on="1"/>
        <pt x="121" y="464" on="1"/>
        <pt x="-66" y="464" on="1"/>
        <pt x="-61" y="498" on="1"/>
        <pt x="666" y="498" on="1"/>
        <pt x="661" y="464" on="1"/>
      </contour>
      <contour>
        <pt x="330" y="57" on="0"/>
        <pt x="424" y="175" on="0"/>
        <pt x="424" y="288" on="1"/>
        <pt x="424" y="436" on="0"/>
        <pt x="292" y="436" on="1"/>
        <pt x="244" y="436" on="0"/>
        <pt x="184" y="432" on="1"/>
        <pt x="148" y="158" on="1"/>
        <pt x="137" y="62" on="1"/>
        <pt x="189" y="57" on="0"/>
        <pt x="243" y="57" on="1"/>
      </contour>
    </TTGlyph>
    <TTGlyph name="Dcaron" xMin="63" yMin="-6" xMax="599" yMax="846">
      <component glyphName="D" x="0" y="0" flags="0x1000"/>
      <component glyphName="caron.cap" x="104" y="182" flags="0x1000"/>
    </TTGlyph>
    <TTGlyph name="Dcroat" xMin="63" yMin="-6" xMax="599" yMax="814">
      <component glyphName="D" x="0" y="0" flags="0x1000"/>
      <component glyphName="macron" x="108" y="182" flags="0x1000"/>
    </TTGlyph>
    <TTGlyph name="Delta" xMin="-14" yMin="0" xMax="500" yMax="640">
      <contour>
        <pt x="-14" y="0" on="1"/>
        <pt x="290" y="640" on="1"/>
        <pt x="376" y="640" on="1"/>
        <pt x="500" y="0" on="1"/>
      </contour>
      <contour>
        <pt x="85" y="64" on="1"/>
        <pt x="416" y="64" on="1"/>
        <pt x="325" y="562" on="1"/>
        <pt x="318" y="562" on="1"/>
      </contour>
    </TTGlyph>
    <TTGlyph name="E" xMin="63" yMin="0" xMax="488" yMax="640">
      <contour>
        <pt x="182" y="360" on="1"/>
        <pt x="297" y="358" on="1"/>
        <pt x="397" y="361" on="1"/>
        <pt x="402" y="354" on="1"/>
        <pt x="388" y="296" on="1"/>
        <pt x="282" y="298" on="1"/>
        <pt x="173" y="297" on="1"/>
        <pt x="160" y="199" on="1"/>
        <pt x="146" y="64" on="1"/>
        <pt x="268" y="62" on="1"/>
        <pt x="413" y="66" on="1"/>
        <pt x="416" y="59" on="1"/>
        <pt x="403" y="0" on="1"/>
        <pt x="63" y="0" on="1"/>
        <pt x="92" y="193" on="1"/>
        <pt x="144" y="640" on="1"/>
        <pt x="485" y="640" on="1"/>
        <pt x="488" y="633" on="1"/>
        <pt x="475" y="574" on="1"/>
        <pt x="333" y="578" on="1"/>
        <pt x="210" y="576" on="1"/>
      </contour>
    </TTGlyph>
    <TTGlyph name="Eacute" xMin="63" yMin="0" xMax="488" yMax="861">
      <component glyphName="E" x="0" y="0" flags="0x1000"/>
      <component glyphName="acute.cap" x="98" y="182" flags="0x1000"/>
    </TTGlyph>
    <TTGlyph name="Ebreve" xMin="63" yMin="0" xMax="488" yMax="839">
      <component glyphName="E" x="0" y="0" flags="0x1000"/>
      <component glyphName="breve.cap" x="83" y="182" flags="0x1000"/>
    </TTGlyph>
    <TTGlyph name="Ecaron" xMin="63" yMin="0" xMax="488" yMax="846">
      <component glyphName="E" x="0" y="0" flags="0x1000"/>
      <component glyphName="caron.cap" x="83" y="182" flags="0x1000"/>
    </TTGlyph>
    <TTGlyph name="Ecircumflex" xMin="63" yMin="0" xMax="488" yMax="854">
      <component glyphName="E" x="0" y="0" flags="0x1000"/>
      <component glyphName="circumflex.cap" x="90" y="182" flags="0x1000"/>
    </TTGlyph>
    <TTGlyph name="Ecircumflexacute" xMin="63" yMin="0" xMax="488" yMax="943">
      <component glyphName="E" x="0" y="0" flags="0x1000"/>
      <component glyphName="circumflexacute" x="88" y="182" flags="0x1000"/>
    </TTGlyph>
    <TTGlyph name="Ecircumflexdotbelow" xMin="63" yMin="-161" xMax="488" yMax="854">
      <component glyphName="E" x="0" y="0" flags="0x1000"/>
      <component glyphName="dotbelowcomb" x="102" y="0" flags="0x1000"/>
      <component glyphName="circumflex.cap" x="90" y="182" flags="0x1000"/>
    </TTGlyph>
    <TTGlyph name="Ecircumflexgrave" xMin="63" yMin="0" xMax="488" yMax="942">
      <component glyphName="E" x="0" y="0" flags="0x1000"/>
      <component glyphName="circumflexgrave" x="88" y="182" flags="0x1000"/>
    </TTGlyph>
    <TTGlyph name="Ecircumflexhookabove" xMin="63" yMin="0" xMax="488" yMax="981">
      <component glyphName="E" x="0" y="0" flags="0x1000"/>
      <component glyphName="circumflexhookabove" x="88" y="182" flags="0x1000"/>
    </TTGlyph>
    <TTGlyph name="Ecircumflextilde" xMin="63" yMin="0" xMax="488" yMax="942">
      <component glyphName="E" x="0" y="0" flags="0x1000"/>
      <component glyphName="circumflexgrave" x="88" y="182" flags="0x1000"/>
    </TTGlyph>
    <TTGlyph name="Edieresis" xMin="63" yMin="0" xMax="488" yMax="831">
      <component glyphName="E" x="0" y="0" flags="0x1000"/>
      <component glyphName="dieresis" x="87" y="182" flags="0x1000"/>
    </TTGlyph>
    <TTGlyph name="Edotaccent" xMin="63" yMin="0" xMax="488" yMax="843">
      <component glyphName="E" x="0" y="0" flags="0x1000"/>
      <component glyphName="dotaccent" x="87" y="182" flags="0x1000"/>
    </TTGlyph>
    <TTGlyph name="Edotbelow" xMin="63" yMin="-161" xMax="488" yMax="640">
      <component glyphName="E" x="0" y="0" flags="0x1000"/>
      <component glyphName="dotbelowcomb" x="102" y="0" flags="0x1000"/>
    </TTGlyph>
    <TTGlyph name="Egrave" xMin="63" yMin="0" xMax="488" yMax="863">
      <component glyphName="E" x="0" y="0" flags="0x1000"/>
      <component glyphName="grave.cap" x="88" y="182" flags="0x1000"/>
    </TTGlyph>
    <TTGlyph name="Ehookabove" xMin="63" yMin="0" xMax="488" yMax="892">
      <component glyphName="E" x="0" y="0" flags="0x1000"/>
      <component glyphName="hookabove" x="59" y="182" flags="0x1000"/>
    </TTGlyph>
    <TTGlyph name="Emacron" xMin="63" yMin="0" xMax="488" yMax="814">
      <component glyphName="E" x="0" y="0" flags="0x1000"/>
      <component glyphName="macron" x="87" y="182" flags="0x1000"/>
    </TTGlyph>
    <TTGlyph name="Eng" xMin="63" yMin="-159" xMax="617" yMax="642">
      <contour>
        <pt x="542" y="55" on="1"/>
        <pt x="532" y="-19" on="0"/>
        <pt x="447" y="-115" on="0"/>
        <pt x="353" y="-159" on="1"/>
        <pt x="328" y="-117" on="1"/>
        <pt x="330" y="-108" on="1"/>
        <pt x="429" y="-54" on="0"/>
        <pt x="457" y="2" on="1"/>
        <pt x="201" y="519" on="1"/>
        <pt x="195" y="519" on="1"/>
        <pt x="158" y="210" on="1"/>
        <pt x="134" y="0" on="1"/>
        <pt x="63" y="0" on="1"/>
        <pt x="92" y="190" on="1"/>
        <pt x="144" y="640" on="1"/>
        <pt x="223" y="640" on="1"/>
        <pt x="477" y="123" on="1"/>
        <pt x="484" y="123" on="1"/>
        <pt x="545" y="637" on="1"/>
        <pt x="617" y="642" on="1"/>
        <pt x="556" y="187" on="1"/>
      </contour>
    </TTGlyph>
    <TTGlyph name="Eogonek" xMin="63" yMin="-197" xMax="488" yMax="640">
      <contour>
        <pt x="182" y="360" on="1"/>
        <pt x="297" y="358" on="1"/>
        <pt x="397" y="361" on="1"/>
        <pt x="402" y="354" on="1"/>
        <pt x="388" y="296" on="1"/>
        <pt x="282" y="298" on="1"/>
        <pt x="173" y="297" on="1"/>
        <pt x="160" y="199" on="1"/>
        <pt x="145" y="64" on="1"/>
        <pt x="268" y="62" on="1"/>
        <pt x="413" y="66" on="1"/>
        <pt x="416" y="59" on="1"/>
        <pt x="403" y="0" on="1"/>
        <pt x="340" y="0" on="1"/>
        <pt x="304" y="-55" on="1"/>
        <pt x="287" y="-84" on="0"/>
        <pt x="287" y="-105" on="1"/>
        <pt x="287" y="-146" on="0"/>
        <pt x="327" y="-146" on="1"/>
        <pt x="362" y="-146" on="0"/>
        <pt x="397" y="-106" on="1"/>
        <pt x="401" y="-106" on="1"/>
        <pt x="412" y="-144" on="1"/>
        <pt x="362" y="-197" on="0"/>
        <pt x="315" y="-197" on="1"/>
        <pt x="280" y="-197" on="0"/>
        <pt x="237" y="-153" on="0"/>
        <pt x="237" y="-119" on="1"/>
        <pt x="237" y="-83" on="0"/>
        <pt x="262" y="-46" on="1"/>
        <pt x="294" y="0" on="1"/>
        <pt x="63" y="0" on="1"/>
        <pt x="92" y="193" on="1"/>
        <pt x="144" y="640" on="1"/>
        <pt x="485" y="640" on="1"/>
        <pt x="488" y="633" on="1"/>
        <pt x="475" y="574" on="1"/>
        <pt x="333" y="578" on="1"/>
        <pt x="210" y="576" on="1"/>
      </contour>
    </TTGlyph>
    <TTGlyph name="Eth" xMin="31" yMin="-6" xMax="623" yMax="645">
      <contour>
        <pt x="497" y="645" on="0"/>
        <pt x="623" y="515" on="0"/>
        <pt x="623" y="395" on="1"/>
        <pt x="623" y="271" on="0"/>
        <pt x="545" y="91" on="0"/>
        <pt x="395" y="-6" on="0"/>
        <pt x="289" y="-6" on="1"/>
        <pt x="191" y="-6" on="0"/>
        <pt x="87" y="0" on="1"/>
        <pt x="116" y="193" on="1"/>
        <pt x="128" y="298" on="1"/>
        <pt x="34" y="298" on="1"/>
        <pt x="31" y="304" on="1"/>
        <pt x="37" y="352" on="1"/>
        <pt x="134" y="352" on="1"/>
        <pt x="167" y="640" on="1"/>
        <pt x="168" y="640" on="1"/>
        <pt x="381" y="645" on="1"/>
      </contour>
      <contour>
        <pt x="418" y="57" on="0"/>
        <pt x="544" y="224" on="0"/>
        <pt x="544" y="381" on="1"/>
        <pt x="544" y="582" on="0"/>
        <pt x="373" y="582" on="1"/>
        <pt x="309" y="582" on="0"/>
        <pt x="235" y="578" on="1"/>
        <pt x="204" y="352" on="1"/>
        <pt x="359" y="352" on="1"/>
        <pt x="362" y="345" on="1"/>
        <pt x="357" y="298" on="1"/>
        <pt x="196" y="298" on="1"/>
        <pt x="183" y="199" on="1"/>
        <pt x="169" y="63" on="1"/>
        <pt x="259" y="57" on="0"/>
        <pt x="304" y="57" on="1"/>
      </contour>
    </TTGlyph>
    <TTGlyph name="Etilde" xMin="63" yMin="0" xMax="488" yMax="847">
      <component glyphName="E" x="0" y="0" flags="0x1000"/>
      <component glyphName="tilde" x="87" y="182" flags="0x1000"/>
    </TTGlyph>
    <TTGlyph name="Euro" xMin="13" yMin="-6" xMax="485" yMax="501">
      <contour>
        <pt x="427" y="501" on="0"/>
        <pt x="485" y="464" on="1"/>
        <pt x="467" y="414" on="1"/>
        <pt x="460" y="412" on="1"/>
        <pt x="412" y="449" on="0"/>
        <pt x="345" y="449" on="1"/>
        <pt x="216" y="449" on="0"/>
        <pt x="175" y="320" on="1"/>
        <pt x="363" y="320" on="1"/>
        <pt x="367" y="316" on="1"/>
        <pt x="358" y="276" on="1"/>
        <pt x="163" y="276" on="1"/>
        <pt x="156" y="244" on="0"/>
        <pt x="156" y="206" on="1"/>
        <pt x="349" y="206" on="1"/>
        <pt x="352" y="201" on="1"/>
        <pt x="344" y="161" on="1"/>
        <pt x="158" y="161" on="1"/>
        <pt x="175" y="47" on="0"/>
        <pt x="291" y="47" on="1"/>
        <pt x="362" y="47" on="0"/>
        <pt x="425" y="88" on="1"/>
        <pt x="433" y="83" on="1"/>
        <pt x="422" y="34" on="1"/>
        <pt x="353" y="-6" on="0"/>
        <pt x="282" y="-6" on="1"/>
        <pt x="195" y="-6" on="0"/>
        <pt x="99" y="79" on="0"/>
        <pt x="92" y="161" on="1"/>
        <pt x="16" y="161" on="1"/>
        <pt x="13" y="166" on="1"/>
        <pt x="21" y="206" on="1"/>
        <pt x="92" y="206" on="1"/>
        <pt x="96" y="254" on="0"/>
        <pt x="100" y="276" on="1"/>
        <pt x="29" y="276" on="1"/>
        <pt x="26" y="281" on="1"/>
        <pt x="34" y="320" on="1"/>
        <pt x="110" y="320" on="1"/>
        <pt x="138" y="408" on="0"/>
        <pt x="261" y="501" on="0"/>
        <pt x="353" y="501" on="1"/>
      </contour>
    </TTGlyph>
    <TTGlyph name="F" xMin="63" yMin="0" xMax="472" yMax="640">
      <contour>
        <pt x="180" y="348" on="1"/>
        <pt x="283" y="346" on="1"/>
        <pt x="383" y="348" on="1"/>
        <pt x="387" y="341" on="1"/>
        <pt x="373" y="283" on="1"/>
        <pt x="268" y="286" on="1"/>
        <pt x="172" y="285" on="1"/>
        <pt x="160" y="199" on="1"/>
        <pt x="139" y="0" on="1"/>
        <pt x="63" y="0" on="1"/>
        <pt x="92" y="193" on="1"/>
        <pt x="144" y="640" on="1"/>
        <pt x="467" y="640" on="1"/>
        <pt x="472" y="633" on="1"/>
        <pt x="456" y="573" on="1"/>
        <pt x="319" y="578" on="1"/>
        <pt x="210" y="576" on="1"/>
      </contour>
    </TTGlyph>
    <TTGlyph name="G" xMin="45" yMin="-7" xMax="560" yMax="646">
      <contour>
        <pt x="477" y="646" on="0"/>
        <pt x="560" y="600" on="1"/>
        <pt x="535" y="529" on="1"/>
        <pt x="526" y="527" on="1"/>
        <pt x="484" y="556" on="0"/>
        <pt x="411" y="582" on="0"/>
        <pt x="368" y="582" on="1"/>
        <pt x="248" y="582" on="0"/>
        <pt x="122" y="415" on="0"/>
        <pt x="122" y="255" on="1"/>
        <pt x="122" y="154" on="0"/>
        <pt x="206" y="58" on="0"/>
        <pt x="294" y="58" on="1"/>
        <pt x="345" y="58" on="0"/>
        <pt x="420" y="82" on="1"/>
        <pt x="433" y="160" on="1"/>
        <pt x="442" y="250" on="1"/>
        <pt x="513" y="256" on="1"/>
        <pt x="501" y="170" on="1"/>
        <pt x="487" y="31" on="1"/>
        <pt x="428" y="11" on="0"/>
        <pt x="340" y="-7" on="0"/>
        <pt x="289" y="-7" on="1"/>
        <pt x="169" y="-7" on="0"/>
        <pt x="45" y="126" on="0"/>
        <pt x="45" y="248" on="1"/>
        <pt x="45" y="438" on="0"/>
        <pt x="221" y="646" on="0"/>
        <pt x="381" y="646" on="1"/>
      </contour>
    </TTGlyph>
    <TTGlyph name="Gbreve" xMin="45" yMin="-7" xMax="560" yMax="839">
      <component glyphName="G" x="0" y="0" flags="0x1000"/>
      <component glyphName="breve.cap" x="123" y="182" flags="0x1000"/>
    </TTGlyph>
    <TTGlyph name="Gcircumflex" xMin="45" yMin="-7" xMax="560" yMax="854">
      <component glyphName="G" x="0" y="0" flags="0x1000"/>
      <component glyphName="circumflex.cap" x="130" y="182" flags="0x1000"/>
    </TTGlyph>
    <TTGlyph name="Gcommaaccent" xMin="45" yMin="-241" xMax="560" yMax="646">
      <component glyphName="G" x="0" y="0" flags="0x1000"/>
      <component glyphName="commaaccentcomb" x="147" y="3" flags="0x1000"/>
    </TTGlyph>
    <TTGlyph name="Gdieresis" xMin="45" yMin="-7" xMax="560" yMax="831">
      <component glyphName="G" x="0" y="0" flags="0x1000"/>
      <component glyphName="dieresis" x="127" y="182" flags="0x1000"/>
    </TTGlyph>
    <TTGlyph name="Gdotaccent" xMin="45" yMin="-7" xMax="560" yMax="843">
      <component glyphName="G" x="0" y="0" flags="0x1000"/>
      <component glyphName="dotaccent" x="127" y="182" flags="0x1000"/>
    </TTGlyph>
    <TTGlyph name="Gtilde" xMin="45" yMin="-7" xMax="560" yMax="847">
      <component glyphName="G" x="0" y="0" flags="0x1000"/>
      <component glyphName="tilde" x="127" y="182" flags="0x1000"/>
    </TTGlyph>
    <TTGlyph name="H" xMin="63" yMin="0" xMax="614" yMax="640">
      <contour>
        <pt x="555" y="199" on="1"/>
        <pt x="534" y="0" on="1"/>
        <pt x="459" y="0" on="1"/>
        <pt x="487" y="193" on="1"/>
        <pt x="498" y="291" on="1"/>
        <pt x="328" y="294" on="1"/>
        <pt x="172" y="291" on="1"/>
        <pt x="159" y="199" on="1"/>
        <pt x="139" y="0" on="1"/>
        <pt x="63" y="0" on="1"/>
        <pt x="92" y="193" on="1"/>
        <pt x="143" y="640" on="1"/>
        <pt x="219" y="640" on="1"/>
        <pt x="180" y="357" on="1"/>
        <pt x="342" y="354" on="1"/>
        <pt x="506" y="357" on="1"/>
        <pt x="538" y="640" on="1"/>
        <pt x="614" y="640" on="1"/>
      </contour>
    </TTGlyph>
    <TTGlyph name="Hbar" xMin="74" yMin="0" xMax="675" yMax="640">
      <contour>
        <pt x="604" y="478" on="1"/>
        <pt x="567" y="199" on="1"/>
        <pt x="545" y="0" on="1"/>
        <pt x="471" y="0" on="1"/>
        <pt x="499" y="193" on="1"/>
        <pt x="510" y="291" on="1"/>
        <pt x="339" y="294" on="1"/>
        <pt x="183" y="291" on="1"/>
        <pt x="171" y="199" on="1"/>
        <pt x="150" y="0" on="1"/>
        <pt x="75" y="0" on="1"/>
        <pt x="103" y="193" on="1"/>
        <pt x="136" y="478" on="1"/>
        <pt x="77" y="478" on="1"/>
        <pt x="74" y="483" on="1"/>
        <pt x="78" y="532" on="1"/>
        <pt x="142" y="532" on="1"/>
        <pt x="155" y="640" on="1"/>
        <pt x="230" y="640" on="1"/>
        <pt x="216" y="532" on="1"/>
        <pt x="538" y="532" on="1"/>
        <pt x="550" y="640" on="1"/>
        <pt x="626" y="640" on="1"/>
        <pt x="612" y="532" on="1"/>
        <pt x="671" y="532" on="1"/>
        <pt x="675" y="526" on="1"/>
        <pt x="671" y="478" on="1"/>
      </contour>
      <contour>
        <pt x="208" y="478" on="1"/>
        <pt x="192" y="357" on="1"/>
        <pt x="354" y="354" on="1"/>
        <pt x="518" y="357" on="1"/>
        <pt x="532" y="478" on="1"/>
      </contour>
    </TTGlyph>
    <TTGlyph name="Hcircumflex" xMin="63" yMin="0" xMax="614" yMax="854">
      <component glyphName="H" x="0" y="0" flags="0x1000"/>
      <component glyphName="circumflex.cap" x="159" y="182" flags="0x1000"/>
    </TTGlyph>
    <TTGlyph name="I" xMin="63" yMin="0" xMax="219" yMax="640">
      <contour>
        <pt x="139" y="0" on="1"/>
        <pt x="63" y="0" on="1"/>
        <pt x="92" y="193" on="1"/>
        <pt x="143" y="640" on="1"/>
        <pt x="219" y="640" on="1"/>
        <pt x="159" y="199" on="1"/>
      </contour>
    </TTGlyph>
    <TTGlyph name="I.ss01" xMin="-124" yMin="0" xMax="374" yMax="498">
      <contour>
        <pt x="130" y="33" on="1"/>
        <pt x="316" y="33" on="1"/>
        <pt x="312" y="0" on="1"/>
        <pt x="-124" y="0" on="1"/>
        <pt x="-119" y="33" on="1"/>
        <pt x="62" y="33" on="1"/>
        <pt x="78" y="150" on="1"/>
        <pt x="115" y="464" on="1"/>
        <pt x="-66" y="464" on="1"/>
        <pt x="-61" y="498" on="1"/>
        <pt x="374" y="498" on="1"/>
        <pt x="370" y="464" on="1"/>
        <pt x="185" y="464" on="1"/>
        <pt x="144" y="156" on="1"/>
      </contour>
    </TTGlyph>
    <TTGlyph name="IJ" xMin="63" yMin="-101" xMax="511" yMax="640">
      <component glyphName="I" x="0" y="0" flags="0x1000"/>
      <component glyphName="J" x="259" y="0" flags="0x1000"/>
    </TTGlyph>
    <TTGlyph name="Iacute" xMin="63" yMin="0" xMax="319" yMax="861">
      <component glyphName="I" x="0" y="0" flags="0x1000"/>
      <component glyphName="acute.cap" x="-31" y="182" flags="0x1000"/>
    </TTGlyph>
    <TTGlyph name="Iacute_J.loclNLD" xMin="63" yMin="-101" xMax="567" yMax="861">
      <component glyphName="I" x="0" y="0" flags="0x1000"/>
      <component glyphName="acute.cap" x="-31" y="182" flags="0x1000"/>
      <component glyphName="J" x="259" y="0" flags="0x1000"/>
      <component glyphName="acute.cap" x="217" y="182" flags="0x1000"/>
    </TTGlyph>
    <TTGlyph name="Ibreve" xMin="63" yMin="0" xMax="323" yMax="839">
      <component glyphName="I" x="0" y="0" flags="0x1000"/>
      <component glyphName="breve.cap" x="-46" y="182" flags="0x1000"/>
    </TTGlyph>
    <TTGlyph name="Icaron" xMin="63" yMin="0" xMax="324" yMax="846">
      <component glyphName="I" x="0" y="0" flags="0x1000"/>
      <component glyphName="caron.cap" x="-46" y="182" flags="0x1000"/>
    </TTGlyph>
    <TTGlyph name="Icircumflex" xMin="63" yMin="0" xMax="326" yMax="854">
      <component glyphName="I" x="0" y="0" flags="0x1000"/>
      <component glyphName="circumflex.cap" x="-39" y="182" flags="0x1000"/>
    </TTGlyph>
    <TTGlyph name="Idieresis" xMin="63" yMin="0" xMax="303" yMax="830">
      <component glyphName="I" x="0" y="0" flags="0x1000"/>
      <component glyphName="dieresis.i" x="-42" y="182" flags="0x1000"/>
    </TTGlyph>
    <TTGlyph name="Idotaccent" xMin="63" yMin="0" xMax="243" yMax="843">
      <component glyphName="I" x="0" y="0" flags="0x1000"/>
      <component glyphName="dotaccent" x="-42" y="182" flags="0x1000"/>
    </TTGlyph>
    <TTGlyph name="Idotbelow" xMin="49" yMin="-161" xMax="219" yMax="640">
      <component glyphName="I" x="0" y="0" flags="0x1000"/>
      <component glyphName="dotbelowcomb" x="-59" y="0" flags="0x1000"/>
    </TTGlyph>
    <TTGlyph name="Igrave" xMin="63" yMin="0" xMax="308" yMax="863">
      <component glyphName="I" x="0" y="0" flags="0x1000"/>
      <component glyphName="grave.cap" x="-42" y="182" flags="0x1000"/>
    </TTGlyph>
    <TTGlyph name="Ihookabove" xMin="63" yMin="0" xMax="250" yMax="892">
      <component glyphName="I" x="0" y="0" flags="0x1000"/>
      <component glyphName="hookabove" x="-71" y="182" flags="0x1000"/>
    </TTGlyph>
    <TTGlyph name="Imacron" xMin="63" yMin="0" xMax="311" yMax="814">
      <component glyphName="I" x="0" y="0" flags="0x1000"/>
      <component glyphName="macron.i" x="-42" y="182" flags="0x1000"/>
    </TTGlyph>
    <TTGlyph name="Iogonek" xMin="-14" yMin="-197" xMax="218" yMax="640">
      <contour>
        <pt x="159" y="199" on="1"/>
        <pt x="138" y="0" on="1"/>
        <pt x="112" y="0" on="1"/>
        <pt x="68" y="-52" on="0"/>
        <pt x="36" y="-101" on="0"/>
        <pt x="36" y="-117" on="1"/>
        <pt x="36" y="-145" on="0"/>
        <pt x="64" y="-145" on="1"/>
        <pt x="94" y="-145" on="0"/>
        <pt x="120" y="-110" on="1"/>
        <pt x="123" y="-110" on="1"/>
        <pt x="137" y="-149" on="1"/>
        <pt x="94" y="-197" on="0"/>
        <pt x="53" y="-197" on="1"/>
        <pt x="24" y="-197" on="0"/>
        <pt x="-14" y="-159" on="0"/>
        <pt x="-14" y="-129" on="1"/>
        <pt x="-14" y="-105" on="0"/>
        <pt x="18" y="-51" on="0"/>
        <pt x="63" y="2" on="1"/>
        <pt x="91" y="193" on="1"/>
        <pt x="143" y="640" on="1"/>
        <pt x="218" y="640" on="1"/>
      </contour>
    </TTGlyph>
    <TTGlyph name="Itilde" xMin="61" yMin="0" xMax="338" yMax="844">
      <component glyphName="I" x="0" y="0" flags="0x1000"/>
      <component glyphName="tilde.i" x="-42" y="182" flags="0x1000"/>
    </TTGlyph>
    <TTGlyph name="J" xMin="-31" yMin="-101" xMax="252" yMax="640">
      <contour>
        <pt x="194" y="212" on="1"/>
        <pt x="185" y="118" on="1"/>
        <pt x="175" y="43" on="0"/>
        <pt x="88" y="-56" on="0"/>
        <pt x="-7" y="-101" on="1"/>
        <pt x="-31" y="-59" on="1"/>
        <pt x="-30" y="-50" on="1"/>
        <pt x="42" y="-12" on="0"/>
        <pt x="108" y="62" on="0"/>
        <pt x="115" y="118" on="1"/>
        <pt x="126" y="205" on="1"/>
        <pt x="169" y="579" on="1"/>
        <pt x="50" y="578" on="1"/>
        <pt x="43" y="585" on="1"/>
        <pt x="55" y="640" on="1"/>
        <pt x="252" y="640" on="1"/>
      </contour>
    </TTGlyph>
    <TTGlyph name="Jcircumflex" xMin="-31" yMin="-101" xMax="316" yMax="854">
      <component glyphName="J" x="0" y="0" flags="0x1000"/>
      <component glyphName="circumflex.cap" x="-49" y="182" flags="0x1000"/>
    </TTGlyph>
    <TTGlyph name="K" xMin="62" yMin="-9" xMax="556" yMax="640">
      <contour>
        <pt x="138" y="0" on="1"/>
        <pt x="62" y="0" on="1"/>
        <pt x="92" y="193" on="1"/>
        <pt x="143" y="640" on="1"/>
        <pt x="219" y="640" on="1"/>
        <pt x="159" y="199" on="1"/>
      </contour>
      <contour>
        <pt x="370" y="173" on="0"/>
        <pt x="495" y="16" on="1"/>
        <pt x="492" y="7" on="1"/>
        <pt x="457" y="-3" on="0"/>
        <pt x="419" y="-9" on="1"/>
        <pt x="412" y="-4" on="1"/>
        <pt x="274" y="191" on="0"/>
        <pt x="190" y="336" on="1"/>
        <pt x="191" y="342" on="1"/>
        <pt x="426" y="586" on="1"/>
        <pt x="471" y="640" on="1"/>
        <pt x="556" y="640" on="1"/>
        <pt x="271" y="338" on="1"/>
      </contour>
    </TTGlyph>
    <TTGlyph name="Kcommaaccent" xMin="62" yMin="-241" xMax="556" yMax="640">
      <component glyphName="K" x="0" y="0" flags="0x1000"/>
      <component glyphName="commaaccentcomb" x="113" y="3" flags="0x1000"/>
    </TTGlyph>
    <TTGlyph name="L" xMin="61" yMin="0" xMax="373" yMax="640">
      <contour>
        <pt x="360" y="0" on="1"/>
        <pt x="61" y="0" on="1"/>
        <pt x="90" y="193" on="1"/>
        <pt x="141" y="640" on="1"/>
        <pt x="217" y="640" on="1"/>
        <pt x="158" y="199" on="1"/>
        <pt x="143" y="64" on="1"/>
        <pt x="370" y="64" on="1"/>
        <pt x="373" y="56" on="1"/>
      </contour>
    </TTGlyph>
    <TTGlyph name="L.ss01" xMin="-124" yMin="0" xMax="502" yMax="498">
      <contour>
        <pt x="130" y="60" on="1"/>
        <pt x="282" y="60" on="1"/>
        <pt x="296" y="146" on="1"/>
        <pt x="346" y="149" on="1"/>
        <pt x="330" y="33" on="1"/>
        <pt x="443" y="33" on="1"/>
        <pt x="438" y="0" on="1"/>
        <pt x="-124" y="0" on="1"/>
        <pt x="-119" y="33" on="1"/>
        <pt x="61" y="33" on="1"/>
        <pt x="78" y="162" on="1"/>
        <pt x="115" y="464" on="1"/>
        <pt x="-66" y="464" on="1"/>
        <pt x="-61" y="498" on="1"/>
        <pt x="502" y="498" on="1"/>
        <pt x="497" y="464" on="1"/>
        <pt x="184" y="464" on="1"/>
        <pt x="144" y="168" on="1"/>
      </contour>
    </TTGlyph>
    <TTGlyph name="Lacute" xMin="61" yMin="0" xMax="373" yMax="861">
      <component glyphName="L" x="0" y="0" flags="0x1000"/>
      <component glyphName="acute.cap" x="-31" y="182" flags="0x1000"/>
    </TTGlyph>
    <TTGlyph name="Lcaron" xMin="61" yMin="0" xMax="419" yMax="640">
      <contour>
        <pt x="374" y="56" on="1"/>
        <pt x="360" y="0" on="1"/>
        <pt x="61" y="0" on="1"/>
        <pt x="90" y="193" on="1"/>
        <pt x="142" y="640" on="1"/>
        <pt x="217" y="640" on="1"/>
        <pt x="158" y="199" on="1"/>
        <pt x="143" y="64" on="1"/>
        <pt x="370" y="64" on="1"/>
      </contour>
      <contour>
        <pt x="376" y="406" on="1"/>
        <pt x="338" y="400" on="1"/>
        <pt x="333" y="406" on="1"/>
        <pt x="359" y="578" on="1"/>
        <pt x="414" y="582" on="1"/>
        <pt x="419" y="576" on="1"/>
      </contour>
    </TTGlyph>
    <TTGlyph name="Lcommaaccent" xMin="61" yMin="-241" xMax="373" yMax="640">
      <component glyphName="L" x="0" y="0" flags="0x1000"/>
      <component glyphName="commaaccentcomb" x="39" y="3" flags="0x1000"/>
    </TTGlyph>
    <TTGlyph name="Ldot" xMin="61" yMin="0" xMax="373" yMax="640">
      <component glyphName="L" x="0" y="0" flags="0x1000"/>
      <component glyphName="period" x="237" y="337" flags="0x1000"/>
    </TTGlyph>
    <TTGlyph name="Lslash" xMin="19" yMin="0" xMax="382" yMax="640">
      <contour>
        <pt x="369" y="0" on="1"/>
        <pt x="69" y="0" on="1"/>
        <pt x="99" y="193" on="1"/>
        <pt x="110" y="292" on="1"/>
        <pt x="35" y="253" on="1"/>
        <pt x="27" y="258" on="1"/>
        <pt x="19" y="303" on="1"/>
        <pt x="117" y="354" on="1"/>
        <pt x="150" y="640" on="1"/>
        <pt x="226" y="640" on="1"/>
        <pt x="192" y="393" on="1"/>
        <pt x="326" y="462" on="1"/>
        <pt x="334" y="458" on="1"/>
        <pt x="343" y="413" on="1"/>
        <pt x="184" y="330" on="1"/>
        <pt x="166" y="199" on="1"/>
        <pt x="152" y="64" on="1"/>
        <pt x="378" y="64" on="1"/>
        <pt x="382" y="56" on="1"/>
      </contour>
    </TTGlyph>
    <TTGlyph name="M" xMin="31" yMin="0" xMax="686" yMax="640">
      <contour>
        <pt x="597" y="0" on="1"/>
        <pt x="608" y="195" on="1"/>
        <pt x="616" y="521" on="1"/>
        <pt x="610" y="521" on="1"/>
        <pt x="384" y="74" on="1"/>
        <pt x="321" y="74" on="1"/>
        <pt x="215" y="521" on="1"/>
        <pt x="208" y="521" on="1"/>
        <pt x="137" y="201" on="1"/>
        <pt x="95" y="0" on="1"/>
        <pt x="31" y="0" on="1"/>
        <pt x="175" y="640" on="1"/>
        <pt x="260" y="640" on="1"/>
        <pt x="280" y="543" on="1"/>
        <pt x="365" y="172" on="1"/>
        <pt x="372" y="172" on="1"/>
        <pt x="559" y="549" on="1"/>
        <pt x="601" y="640" on="1"/>
        <pt x="686" y="640" on="1"/>
        <pt x="664" y="0" on="1"/>
      </contour>
    </TTGlyph>
    <TTGlyph name="M.ss01" xMin="-124" yMin="0" xMax="778" yMax="498">
      <contour>
        <pt x="548" y="33" on="1"/>
        <pt x="718" y="33" on="1"/>
        <pt x="714" y="0" on="1"/>
        <pt x="-124" y="0" on="1"/>
        <pt x="-119" y="33" on="1"/>
        <pt x="46" y="33" on="1"/>
        <pt x="146" y="464" on="1"/>
        <pt x="-66" y="464" on="1"/>
        <pt x="-61" y="498" on="1"/>
        <pt x="778" y="498" on="1"/>
        <pt x="773" y="464" on="1"/>
        <pt x="560" y="464" on="1"/>
      </contour>
      <contour>
        <pt x="234" y="464" on="1"/>
        <pt x="244" y="421" on="1"/>
        <pt x="312" y="170" on="1"/>
        <pt x="318" y="170" on="1"/>
        <pt x="453" y="424" on="1"/>
        <pt x="474" y="464" on="1"/>
      </contour>
      <contour>
        <pt x="497" y="164" on="1"/>
        <pt x="502" y="390" on="1"/>
        <pt x="496" y="390" on="1"/>
        <pt x="328" y="83" on="1"/>
        <pt x="273" y="83" on="1"/>
        <pt x="187" y="390" on="1"/>
        <pt x="183" y="390" on="1"/>
        <pt x="131" y="168" on="1"/>
        <pt x="104" y="33" on="1"/>
        <pt x="489" y="33" on="1"/>
      </contour>
    </TTGlyph>
    <TTGlyph name="N" xMin="63" yMin="0" xMax="615" yMax="642">
      <contour>
        <pt x="532" y="0" on="1"/>
        <pt x="454" y="0" on="1"/>
        <pt x="203" y="520" on="1"/>
        <pt x="196" y="520" on="1"/>
        <pt x="157" y="210" on="1"/>
        <pt x="134" y="0" on="1"/>
        <pt x="63" y="0" on="1"/>
        <pt x="91" y="190" on="1"/>
        <pt x="145" y="640" on="1"/>
        <pt x="223" y="640" on="1"/>
        <pt x="474" y="120" on="1"/>
        <pt x="480" y="120" on="1"/>
        <pt x="544" y="637" on="1"/>
        <pt x="615" y="642" on="1"/>
        <pt x="553" y="187" on="1"/>
      </contour>
    </TTGlyph>
    <TTGlyph name="Nacute" xMin="63" yMin="0" xMax="615" yMax="861">
      <component glyphName="N" x="0" y="0" flags="0x1000"/>
      <component glyphName="acute.cap" x="167" y="182" flags="0x1000"/>
    </TTGlyph>
    <TTGlyph name="Ncaron" xMin="63" yMin="0" xMax="615" yMax="846">
      <component glyphName="N" x="0" y="0" flags="0x1000"/>
      <component glyphName="caron.cap" x="152" y="182" flags="0x1000"/>
    </TTGlyph>
    <TTGlyph name="Ncommaaccent" xMin="63" yMin="-241" xMax="615" yMax="642">
      <component glyphName="N" x="0" y="0" flags="0x1000"/>
      <component glyphName="commaaccentcomb" x="137" y="3" flags="0x1000"/>
    </TTGlyph>
    <TTGlyph name="Ntilde" xMin="63" yMin="0" xMax="615" yMax="847">
      <component glyphName="N" x="0" y="0" flags="0x1000"/>
      <component glyphName="tilde" x="156" y="182" flags="0x1000"/>
    </TTGlyph>
    <TTGlyph name="O" xMin="47" yMin="-8" xMax="590" yMax="647">
      <contour>
        <pt x="470" y="647" on="0"/>
        <pt x="590" y="513" on="0"/>
        <pt x="590" y="391" on="1"/>
        <pt x="590" y="268" on="0"/>
        <pt x="516" y="88" on="0"/>
        <pt x="375" y="-8" on="0"/>
        <pt x="275" y="-8" on="1"/>
        <pt x="168" y="-8" on="0"/>
        <pt x="47" y="131" on="0"/>
        <pt x="47" y="255" on="1"/>
        <pt x="47" y="440" on="0"/>
        <pt x="210" y="647" on="0"/>
        <pt x="360" y="647" on="1"/>
      </contour>
      <contour>
        <pt x="237" y="584" on="0"/>
        <pt x="124" y="418" on="0"/>
        <pt x="124" y="260" on="1"/>
        <pt x="124" y="55" on="0"/>
        <pt x="282" y="55" on="1"/>
        <pt x="396" y="55" on="0"/>
        <pt x="511" y="223" on="0"/>
        <pt x="511" y="382" on="1"/>
        <pt x="511" y="584" on="0"/>
        <pt x="351" y="584" on="1"/>
      </contour>
    </TTGlyph>
    <TTGlyph name="OE" xMin="46" yMin="-12" xMax="839" yMax="652">
      <contour>
        <pt x="425" y="652" on="0"/>
        <pt x="477" y="646" on="1"/>
        <pt x="525" y="640" on="0"/>
        <pt x="552" y="640" on="1"/>
        <pt x="835" y="640" on="1"/>
        <pt x="839" y="633" on="1"/>
        <pt x="825" y="574" on="1"/>
        <pt x="689" y="578" on="1"/>
        <pt x="561" y="578" on="1"/>
        <pt x="534" y="360" on="1"/>
        <pt x="641" y="358" on="1"/>
        <pt x="749" y="361" on="1"/>
        <pt x="753" y="354" on="1"/>
        <pt x="739" y="296" on="1"/>
        <pt x="627" y="298" on="1"/>
        <pt x="523" y="297" on="1"/>
        <pt x="511" y="195" on="1"/>
        <pt x="496" y="64" on="1"/>
        <pt x="613" y="62" on="1"/>
        <pt x="763" y="66" on="1"/>
        <pt x="768" y="59" on="1"/>
        <pt x="754" y="0" on="1"/>
        <pt x="472" y="0" on="1"/>
        <pt x="451" y="1" on="0"/>
        <pt x="381" y="-6" on="1"/>
        <pt x="323" y="-12" on="0"/>
        <pt x="295" y="-12" on="1"/>
        <pt x="176" y="-12" on="0"/>
        <pt x="46" y="132" on="0"/>
        <pt x="46" y="261" on="1"/>
        <pt x="46" y="381" on="0"/>
        <pt x="130" y="557" on="0"/>
        <pt x="286" y="652" on="0"/>
        <pt x="394" y="652" on="1"/>
      </contour>
      <contour>
        <pt x="254" y="590" on="0"/>
        <pt x="123" y="421" on="0"/>
        <pt x="123" y="265" on="1"/>
        <pt x="123" y="51" on="0"/>
        <pt x="311" y="51" on="1"/>
        <pt x="368" y="51" on="0"/>
        <pt x="402" y="61" on="1"/>
        <pt x="416" y="65" on="0"/>
        <pt x="430" y="79" on="0"/>
        <pt x="432" y="94" on="1"/>
        <pt x="483" y="540" on="1"/>
        <pt x="484" y="547" on="0"/>
        <pt x="484" y="557" on="1"/>
        <pt x="484" y="573" on="0"/>
        <pt x="475" y="577" on="1"/>
        <pt x="439" y="590" on="0"/>
        <pt x="379" y="590" on="1"/>
      </contour>
    </TTGlyph>
    <TTGlyph name="Oacute" xMin="47" yMin="-8" xMax="590" yMax="861">
      <component glyphName="O" x="0" y="0" flags="0x1000"/>
      <component glyphName="acute.cap" x="145" y="182" flags="0x1000"/>
    </TTGlyph>
    <TTGlyph name="Obreve" xMin="47" yMin="-8" xMax="590" yMax="839">
      <component glyphName="O" x="0" y="0" flags="0x1000"/>
      <component glyphName="breve.cap" x="130" y="182" flags="0x1000"/>
    </TTGlyph>
    <TTGlyph name="Ocaron" xMin="47" yMin="-8" xMax="590" yMax="846">
      <component glyphName="O" x="0" y="0" flags="0x1000"/>
      <component glyphName="caron.cap" x="130" y="182" flags="0x1000"/>
    </TTGlyph>
    <TTGlyph name="Ocircumflex" xMin="47" yMin="-8" xMax="590" yMax="854">
      <component glyphName="O" x="0" y="0" flags="0x1000"/>
      <component glyphName="circumflex.cap" x="137" y="182" flags="0x1000"/>
    </TTGlyph>
    <TTGlyph name="Ocircumflexacute" xMin="47" yMin="-8" xMax="590" yMax="943">
      <component glyphName="O" x="0" y="0" flags="0x1000"/>
      <component glyphName="circumflexacute" x="135" y="182" flags="0x1000"/>
    </TTGlyph>
    <TTGlyph name="Ocircumflexdotbelow" xMin="47" yMin="-161" xMax="590" yMax="854">
      <contour>
        <pt x="306" y="799" on="0"/>
        <pt x="375" y="854" on="1"/>
        <pt x="397" y="854" on="1"/>
        <pt x="438" y="814" on="0"/>
        <pt x="503" y="765" on="1"/>
        <pt x="483" y="732" on="1"/>
        <pt x="475" y="732" on="1"/>
        <pt x="432" y="761" on="0"/>
        <pt x="382" y="799" on="1"/>
        <pt x="318" y="759" on="0"/>
        <pt x="271" y="732" on="1"/>
        <pt x="262" y="732" on="1"/>
        <pt x="250" y="765" on="1"/>
      </contour>
      <contour>
        <pt x="470" y="647" on="0"/>
        <pt x="590" y="513" on="0"/>
        <pt x="590" y="391" on="1"/>
        <pt x="590" y="268" on="0"/>
        <pt x="517" y="88" on="0"/>
        <pt x="376" y="-8" on="0"/>
        <pt x="276" y="-8" on="1"/>
        <pt x="168" y="-8" on="0"/>
        <pt x="47" y="131" on="0"/>
        <pt x="47" y="255" on="1"/>
        <pt x="47" y="439" on="0"/>
        <pt x="210" y="647" on="0"/>
        <pt x="360" y="647" on="1"/>
      </contour>
      <contour>
        <pt x="237" y="584" on="0"/>
        <pt x="124" y="418" on="0"/>
        <pt x="124" y="260" on="1"/>
        <pt x="124" y="55" on="0"/>
        <pt x="282" y="55" on="1"/>
        <pt x="396" y="55" on="0"/>
        <pt x="511" y="223" on="0"/>
        <pt x="511" y="382" on="1"/>
        <pt x="511" y="584" on="0"/>
        <pt x="351" y="584" on="1"/>
      </contour>
      <contour>
        <pt x="314" y="-73" on="0"/>
        <pt x="336" y="-96" on="0"/>
        <pt x="336" y="-115" on="1"/>
        <pt x="336" y="-136" on="0"/>
        <pt x="312" y="-161" on="0"/>
        <pt x="292" y="-161" on="1"/>
        <pt x="272" y="-161" on="0"/>
        <pt x="249" y="-138" on="0"/>
        <pt x="249" y="-118" on="1"/>
        <pt x="249" y="-98" on="0"/>
        <pt x="273" y="-73" on="0"/>
        <pt x="294" y="-73" on="1"/>
      </contour>
    </TTGlyph>
    <TTGlyph name="Ocircumflexgrave" xMin="47" yMin="-8" xMax="590" yMax="942">
      <component glyphName="O" x="0" y="0" flags="0x1000"/>
      <component glyphName="circumflexgrave" x="135" y="182" flags="0x1000"/>
    </TTGlyph>
    <TTGlyph name="Ocircumflexhookabove" xMin="47" yMin="-8" xMax="590" yMax="981">
      <component glyphName="O" x="0" y="0" flags="0x1000"/>
      <component glyphName="circumflexhookabove" x="135" y="182" flags="0x1000"/>
    </TTGlyph>
    <TTGlyph name="Ocircumflextilde" xMin="47" yMin="-8" xMax="590" yMax="963">
      <component glyphName="O" x="0" y="0" flags="0x1000"/>
      <component glyphName="circumflextilde" x="152" y="182" flags="0x1000"/>
    </TTGlyph>
    <TTGlyph name="Odieresis" xMin="47" yMin="-8" xMax="590" yMax="831">
      <component glyphName="O" x="0" y="0" flags="0x1000"/>
      <component glyphName="dieresis" x="134" y="182" flags="0x1000"/>
    </TTGlyph>
    <TTGlyph name="Odotbelow" xMin="47" yMin="-161" xMax="590" yMax="647">
      <component glyphName="O" x="0" y="0" flags="0x1000"/>
      <component glyphName="dotbelowcomb" x="141" y="0" flags="0x1000"/>
    </TTGlyph>
    <TTGlyph name="Ograve" xMin="47" yMin="-8" xMax="590" yMax="863">
      <component glyphName="O" x="0" y="0" flags="0x1000"/>
      <component glyphName="grave.cap" x="135" y="182" flags="0x1000"/>
    </TTGlyph>
    <TTGlyph name="Ohm" xMin="11" yMin="-4" xMax="652" yMax="647">
      <component glyphName="Omega" x="0" y="0" flags="0x1000"/>
    </TTGlyph>
    <TTGlyph name="Ohookabove" xMin="47" yMin="-8" xMax="590" yMax="892">
      <component glyphName="O" x="0" y="0" flags="0x1000"/>
      <component glyphName="hookabove" x="105" y="182" flags="0x1000"/>
    </TTGlyph>
    <TTGlyph name="Ohorn" xMin="47" yMin="-8" xMax="660" yMax="764">
      <contour>
        <pt x="634" y="764" on="0"/>
        <pt x="660" y="722" on="0"/>
        <pt x="660" y="691" on="1"/>
        <pt x="660" y="639" on="0"/>
        <pt x="588" y="576" on="0"/>
        <pt x="534" y="574" on="1"/>
        <pt x="589" y="508" on="0"/>
        <pt x="589" y="380" on="1"/>
        <pt x="589" y="266" on="0"/>
        <pt x="514" y="90" on="0"/>
        <pt x="373" y="-8" on="0"/>
        <pt x="276" y="-8" on="1"/>
        <pt x="47" y="-8" on="0"/>
        <pt x="47" y="268" on="1"/>
        <pt x="47" y="380" on="0"/>
        <pt x="122" y="552" on="0"/>
        <pt x="262" y="647" on="0"/>
        <pt x="357" y="647" on="1"/>
        <pt x="407" y="647" on="0"/>
        <pt x="469" y="628" on="1"/>
        <pt x="503" y="616" on="0"/>
        <pt x="524" y="616" on="1"/>
        <pt x="555" y="616" on="0"/>
        <pt x="599" y="650" on="0"/>
        <pt x="599" y="681" on="1"/>
        <pt x="599" y="717" on="0"/>
        <pt x="576" y="741" on="1"/>
        <pt x="579" y="749" on="1"/>
        <pt x="601" y="764" on="0"/>
        <pt x="617" y="764" on="1"/>
      </contour>
      <contour>
        <pt x="240" y="584" on="0"/>
        <pt x="124" y="419" on="0"/>
        <pt x="124" y="274" on="1"/>
        <pt x="124" y="161" on="0"/>
        <pt x="200" y="55" on="0"/>
        <pt x="283" y="55" on="1"/>
        <pt x="394" y="55" on="0"/>
        <pt x="511" y="223" on="0"/>
        <pt x="511" y="368" on="1"/>
        <pt x="511" y="480" on="0"/>
        <pt x="434" y="584" on="0"/>
        <pt x="351" y="584" on="1"/>
      </contour>
    </TTGlyph>
    <TTGlyph name="Ohornacute" xMin="47" yMin="-8" xMax="660" yMax="861">
      <component glyphName="Ohorn" x="0" y="0" flags="0x1000"/>
      <component glyphName="acute.cap" x="145" y="182" flags="0x1000"/>
    </TTGlyph>
    <TTGlyph name="Ohorndotbelow" xMin="47" yMin="-161" xMax="660" yMax="764">
      <component glyphName="Ohorn" x="0" y="0" flags="0x1000"/>
      <component glyphName="dotbelowcomb" x="141" y="0" flags="0x1000"/>
    </TTGlyph>
    <TTGlyph name="Ohorngrave" xMin="47" yMin="-8" xMax="660" yMax="863">
      <component glyphName="Ohorn" x="0" y="0" flags="0x1000"/>
      <component glyphName="grave.cap" x="135" y="182" flags="0x1000"/>
    </TTGlyph>
    <TTGlyph name="Ohornhookabove" xMin="47" yMin="-8" xMax="660" yMax="892">
      <component glyphName="Ohorn" x="0" y="0" flags="0x1000"/>
      <component glyphName="hookabove" x="105" y="182" flags="0x1000"/>
    </TTGlyph>
    <TTGlyph name="Ohorntilde" xMin="47" yMin="-8" xMax="660" yMax="847">
      <component glyphName="Ohorn" x="0" y="0" flags="0x1000"/>
      <component glyphName="tilde" x="134" y="182" flags="0x1000"/>
    </TTGlyph>
    <TTGlyph name="Ohungarumlaut" xMin="47" yMin="-8" xMax="590" yMax="861">
      <component glyphName="O" x="0" y="0" flags="0x1000"/>
      <component glyphName="hungarumlaut.cap" x="135" y="182" flags="0x1000"/>
    </TTGlyph>
    <TTGlyph name="Omacron" xMin="47" yMin="-8" xMax="590" yMax="814">
      <component glyphName="O" x="0" y="0" flags="0x1000"/>
      <component glyphName="macron" x="134" y="182" flags="0x1000"/>
    </TTGlyph>
    <TTGlyph name="Omega" xMin="11" yMin="-4" xMax="652" yMax="647">
      <contour>
        <pt x="484" y="647" on="0"/>
        <pt x="592" y="582" on="0"/>
        <pt x="645" y="472" on="0"/>
        <pt x="645" y="403" on="1"/>
        <pt x="645" y="309" on="0"/>
        <pt x="555" y="127" on="0"/>
        <pt x="472" y="62" on="1"/>
        <pt x="474" y="59" on="1"/>
        <pt x="571" y="59" on="1"/>
        <pt x="648" y="65" on="1"/>
        <pt x="652" y="60" on="1"/>
        <pt x="635" y="-4" on="1"/>
        <pt x="542" y="0" on="1"/>
        <pt x="417" y="0" on="1"/>
        <pt x="380" y="-2" on="1"/>
        <pt x="376" y="2" on="1"/>
        <pt x="383" y="62" on="1"/>
        <pt x="469" y="121" on="0"/>
        <pt x="567" y="303" on="0"/>
        <pt x="567" y="398" on="1"/>
        <pt x="567" y="482" on="0"/>
        <pt x="483" y="585" on="0"/>
        <pt x="399" y="585" on="1"/>
        <pt x="329" y="585" on="0"/>
        <pt x="230" y="515" on="0"/>
        <pt x="179" y="396" on="0"/>
        <pt x="179" y="322" on="1"/>
        <pt x="179" y="247" on="0"/>
        <pt x="235" y="106" on="0"/>
        <pt x="286" y="62" on="1"/>
        <pt x="279" y="2" on="1"/>
        <pt x="274" y="-2" on="1"/>
        <pt x="237" y="0" on="1"/>
        <pt x="99" y="0" on="1"/>
        <pt x="16" y="-3" on="1"/>
        <pt x="11" y="4" on="1"/>
        <pt x="29" y="65" on="1"/>
        <pt x="109" y="59" on="1"/>
        <pt x="196" y="59" on="1"/>
        <pt x="197" y="62" on="1"/>
        <pt x="151" y="109" on="0"/>
        <pt x="101" y="246" on="0"/>
        <pt x="101" y="318" on="1"/>
        <pt x="101" y="408" on="0"/>
        <pt x="172" y="558" on="0"/>
        <pt x="310" y="647" on="0"/>
        <pt x="405" y="647" on="1"/>
      </contour>
    </TTGlyph>
    <TTGlyph name="Oogonek" xMin="47" yMin="-197" xMax="590" yMax="647">
      <contour>
        <pt x="343" y="-84" on="0"/>
        <pt x="343" y="-105" on="1"/>
        <pt x="343" y="-146" on="0"/>
        <pt x="383" y="-146" on="1"/>
        <pt x="418" y="-146" on="0"/>
        <pt x="453" y="-106" on="1"/>
        <pt x="457" y="-106" on="1"/>
        <pt x="468" y="-144" on="1"/>
        <pt x="418" y="-197" on="0"/>
        <pt x="371" y="-197" on="1"/>
        <pt x="336" y="-197" on="0"/>
        <pt x="293" y="-153" on="0"/>
        <pt x="293" y="-119" on="1"/>
        <pt x="293" y="-83" on="0"/>
        <pt x="318" y="-46" on="1"/>
        <pt x="349" y="-1" on="1"/>
        <pt x="309" y="-8" on="0"/>
        <pt x="276" y="-8" on="1"/>
        <pt x="168" y="-8" on="0"/>
        <pt x="47" y="131" on="0"/>
        <pt x="47" y="255" on="1"/>
        <pt x="47" y="439" on="0"/>
        <pt x="210" y="647" on="0"/>
        <pt x="360" y="647" on="1"/>
        <pt x="470" y="647" on="0"/>
        <pt x="590" y="513" on="0"/>
        <pt x="590" y="391" on="1"/>
        <pt x="590" y="252" on="0"/>
        <pt x="497" y="59" on="0"/>
        <pt x="409" y="19" on="1"/>
        <pt x="360" y="-55" on="1"/>
      </contour>
      <contour>
        <pt x="124" y="55" on="0"/>
        <pt x="282" y="55" on="1"/>
        <pt x="396" y="55" on="0"/>
        <pt x="511" y="223" on="0"/>
        <pt x="511" y="382" on="1"/>
        <pt x="511" y="584" on="0"/>
        <pt x="351" y="584" on="1"/>
        <pt x="237" y="584" on="0"/>
        <pt x="124" y="418" on="0"/>
        <pt x="124" y="260" on="1"/>
      </contour>
    </TTGlyph>
    <TTGlyph name="Oslash" xMin="47" yMin="-101" xMax="590" yMax="722">
      <contour>
        <pt x="590" y="535" on="0"/>
        <pt x="590" y="391" on="1"/>
        <pt x="590" y="268" on="0"/>
        <pt x="517" y="88" on="0"/>
        <pt x="376" y="-8" on="0"/>
        <pt x="276" y="-8" on="1"/>
        <pt x="217" y="-8" on="0"/>
        <pt x="172" y="13" on="1"/>
        <pt x="107" y="-101" on="1"/>
        <pt x="64" y="-85" on="1"/>
        <pt x="61" y="-77" on="1"/>
        <pt x="128" y="41" on="1"/>
        <pt x="47" y="110" on="0"/>
        <pt x="47" y="255" on="1"/>
        <pt x="47" y="439" on="0"/>
        <pt x="210" y="647" on="0"/>
        <pt x="360" y="647" on="1"/>
        <pt x="416" y="647" on="0"/>
        <pt x="462" y="628" on="1"/>
        <pt x="516" y="722" on="1"/>
        <pt x="559" y="706" on="1"/>
        <pt x="562" y="697" on="1"/>
        <pt x="507" y="601" on="1"/>
      </contour>
      <contour>
        <pt x="124" y="157" on="0"/>
        <pt x="165" y="105" on="1"/>
        <pt x="428" y="568" on="1"/>
        <pt x="397" y="584" on="0"/>
        <pt x="351" y="584" on="1"/>
        <pt x="237" y="584" on="0"/>
        <pt x="124" y="418" on="0"/>
        <pt x="124" y="260" on="1"/>
      </contour>
      <contour>
        <pt x="396" y="55" on="0"/>
        <pt x="511" y="223" on="0"/>
        <pt x="511" y="382" on="1"/>
        <pt x="511" y="485" on="0"/>
        <pt x="470" y="535" on="1"/>
        <pt x="205" y="72" on="1"/>
        <pt x="239" y="55" on="0"/>
        <pt x="282" y="55" on="1"/>
      </contour>
    </TTGlyph>
    <TTGlyph name="Oslashacute" xMin="47" yMin="-101" xMax="590" yMax="861">
      <component glyphName="Oslash" x="0" y="0" flags="0x1000"/>
      <component glyphName="acute.cap" x="145" y="182" flags="0x1000"/>
    </TTGlyph>
    <TTGlyph name="Otilde" xMin="47" yMin="-8" xMax="590" yMax="847">
      <component glyphName="O" x="0" y="0" flags="0x1000"/>
      <component glyphName="tilde" x="134" y="182" flags="0x1000"/>
    </TTGlyph>
    <TTGlyph name="P" xMin="63" yMin="0" xMax="493" yMax="642">
      <contour>
        <pt x="401" y="642" on="0"/>
        <pt x="493" y="558" on="0"/>
        <pt x="493" y="476" on="1"/>
        <pt x="493" y="404" on="0"/>
        <pt x="431" y="291" on="0"/>
        <pt x="315" y="227" on="0"/>
        <pt x="238" y="227" on="1"/>
        <pt x="164" y="227" on="1"/>
        <pt x="160" y="199" on="1"/>
        <pt x="139" y="0" on="1"/>
        <pt x="63" y="0" on="1"/>
        <pt x="92" y="193" on="1"/>
        <pt x="144" y="640" on="1"/>
        <pt x="145" y="640" on="1"/>
        <pt x="321" y="642" on="1"/>
      </contour>
      <contour>
        <pt x="341" y="296" on="0"/>
        <pt x="416" y="394" on="0"/>
        <pt x="416" y="466" on="1"/>
        <pt x="416" y="521" on="0"/>
        <pt x="363" y="577" on="0"/>
        <pt x="304" y="580" on="1"/>
        <pt x="211" y="577" on="1"/>
        <pt x="172" y="290" on="1"/>
        <pt x="281" y="288" on="1"/>
      </contour>
    </TTGlyph>
    <TTGlyph name="Q" xMin="47" yMin="-191" xMax="674" yMax="647">
      <contour>
        <pt x="658" y="-172" on="0"/>
        <pt x="642" y="-189" on="1"/>
        <pt x="635" y="-191" on="1"/>
        <pt x="437" y="-147" on="0"/>
        <pt x="294" y="-8" on="1"/>
        <pt x="275" y="-8" on="1"/>
        <pt x="168" y="-8" on="0"/>
        <pt x="47" y="131" on="0"/>
        <pt x="47" y="255" on="1"/>
        <pt x="47" y="440" on="0"/>
        <pt x="210" y="647" on="0"/>
        <pt x="360" y="647" on="1"/>
        <pt x="470" y="647" on="0"/>
        <pt x="590" y="513" on="0"/>
        <pt x="590" y="391" on="1"/>
        <pt x="590" y="237" on="0"/>
        <pt x="475" y="35" on="0"/>
        <pt x="367" y="4" on="1"/>
        <pt x="499" y="-100" on="0"/>
        <pt x="673" y="-130" on="1"/>
        <pt x="674" y="-141" on="1"/>
      </contour>
      <contour>
        <pt x="124" y="55" on="0"/>
        <pt x="282" y="55" on="1"/>
        <pt x="396" y="55" on="0"/>
        <pt x="511" y="223" on="0"/>
        <pt x="511" y="382" on="1"/>
        <pt x="511" y="584" on="0"/>
        <pt x="351" y="584" on="1"/>
        <pt x="237" y="584" on="0"/>
        <pt x="124" y="418" on="0"/>
        <pt x="124" y="260" on="1"/>
      </contour>
    </TTGlyph>
    <TTGlyph name="R" xMin="63" yMin="-9" xMax="494" yMax="642">
      <contour>
        <pt x="494" y="409" on="0"/>
        <pt x="413" y="291" on="0"/>
        <pt x="340" y="259" on="1"/>
        <pt x="397" y="138" on="0"/>
        <pt x="469" y="18" on="1"/>
        <pt x="467" y="9" on="1"/>
        <pt x="431" y="-5" on="0"/>
        <pt x="396" y="-9" on="1"/>
        <pt x="388" y="-2" on="1"/>
        <pt x="323" y="123" on="0"/>
        <pt x="276" y="240" on="1"/>
        <pt x="165" y="240" on="1"/>
        <pt x="159" y="199" on="1"/>
        <pt x="139" y="0" on="1"/>
        <pt x="63" y="0" on="1"/>
        <pt x="92" y="193" on="1"/>
        <pt x="144" y="640" on="1"/>
        <pt x="145" y="640" on="1"/>
        <pt x="323" y="642" on="1"/>
        <pt x="404" y="642" on="0"/>
        <pt x="494" y="561" on="0"/>
        <pt x="494" y="486" on="1"/>
      </contour>
      <contour>
        <pt x="288" y="301" on="1"/>
        <pt x="416" y="340" on="0"/>
        <pt x="416" y="474" on="1"/>
        <pt x="416" y="574" on="0"/>
        <pt x="304" y="580" on="1"/>
        <pt x="210" y="577" on="1"/>
        <pt x="173" y="304" on="1"/>
      </contour>
    </TTGlyph>
    <TTGlyph name="Racute" xMin="63" yMin="-9" xMax="494" yMax="877">
      <component glyphName="R" x="0" y="0" flags="0x1000"/>
      <component glyphName="acute" x="95" y="182" flags="0x1000"/>
    </TTGlyph>
    <TTGlyph name="Rcaron" xMin="63" yMin="-9" xMax="494" yMax="868">
      <component glyphName="R" x="0" y="0" flags="0x1000"/>
      <component glyphName="caron" x="86" y="182" flags="0x1000"/>
    </TTGlyph>
    <TTGlyph name="Rcommaaccent" xMin="63" yMin="-241" xMax="494" yMax="642">
      <component glyphName="R" x="0" y="0" flags="0x1000"/>
      <component glyphName="commaaccentcomb" x="73" y="3" flags="0x1000"/>
    </TTGlyph>
    <TTGlyph name="S" xMin="19" yMin="-7" xMax="439" yMax="646">
      <contour>
        <pt x="370" y="646" on="0"/>
        <pt x="439" y="615" on="1"/>
        <pt x="418" y="544" on="1"/>
        <pt x="404" y="540" on="1"/>
        <pt x="352" y="584" on="0"/>
        <pt x="288" y="584" on="1"/>
        <pt x="250" y="584" on="0"/>
        <pt x="192" y="554" on="0"/>
        <pt x="160" y="505" on="0"/>
        <pt x="160" y="478" on="1"/>
        <pt x="160" y="441" on="0"/>
        <pt x="212" y="392" on="0"/>
        <pt x="266" y="358" on="1"/>
        <pt x="310" y="331" on="0"/>
        <pt x="365" y="288" on="0"/>
        <pt x="404" y="223" on="0"/>
        <pt x="404" y="180" on="1"/>
        <pt x="404" y="129" on="0"/>
        <pt x="347" y="43" on="0"/>
        <pt x="247" y="-7" on="0"/>
        <pt x="185" y="-7" on="1"/>
        <pt x="95" y="-7" on="0"/>
        <pt x="19" y="38" on="1"/>
        <pt x="38" y="115" on="1"/>
        <pt x="48" y="119" on="1"/>
        <pt x="77" y="87" on="0"/>
        <pt x="155" y="55" on="0"/>
        <pt x="193" y="55" on="1"/>
        <pt x="252" y="55" on="0"/>
        <pt x="328" y="120" on="0"/>
        <pt x="328" y="166" on="1"/>
        <pt x="328" y="205" on="0"/>
        <pt x="276" y="257" on="0"/>
        <pt x="222" y="290" on="1"/>
        <pt x="179" y="316" on="0"/>
        <pt x="125" y="358" on="0"/>
        <pt x="87" y="422" on="0"/>
        <pt x="87" y="465" on="1"/>
        <pt x="87" y="515" on="0"/>
        <pt x="142" y="598" on="0"/>
        <pt x="239" y="646" on="0"/>
        <pt x="298" y="646" on="1"/>
      </contour>
    </TTGlyph>
    <TTGlyph name="Sacute" xMin="19" yMin="-7" xMax="439" yMax="877">
      <component glyphName="S" x="0" y="0" flags="0x1000"/>
      <component glyphName="acute" x="57" y="182" flags="0x1000"/>
    </TTGlyph>
    <TTGlyph name="Scaron" xMin="19" yMin="-7" xMax="439" yMax="868">
      <component glyphName="S" x="0" y="0" flags="0x1000"/>
      <component glyphName="caron" x="49" y="182" flags="0x1000"/>
    </TTGlyph>
    <TTGlyph name="Scedilla" xMin="19" yMin="-191" xMax="439" yMax="646">
      <contour>
        <pt x="370" y="646" on="0"/>
        <pt x="439" y="615" on="1"/>
        <pt x="418" y="544" on="1"/>
        <pt x="405" y="540" on="1"/>
        <pt x="353" y="584" on="0"/>
        <pt x="288" y="584" on="1"/>
        <pt x="250" y="584" on="0"/>
        <pt x="193" y="554" on="0"/>
        <pt x="161" y="505" on="0"/>
        <pt x="161" y="478" on="1"/>
        <pt x="161" y="441" on="0"/>
        <pt x="213" y="392" on="0"/>
        <pt x="267" y="358" on="1"/>
        <pt x="311" y="331" on="0"/>
        <pt x="366" y="288" on="0"/>
        <pt x="405" y="223" on="0"/>
        <pt x="405" y="180" on="1"/>
        <pt x="405" y="131" on="0"/>
        <pt x="353" y="49" on="0"/>
        <pt x="262" y="-2" on="0"/>
        <pt x="205" y="-6" on="1"/>
        <pt x="192" y="-51" on="1"/>
        <pt x="225" y="-71" on="1"/>
        <pt x="263" y="-91" on="0"/>
        <pt x="263" y="-126" on="1"/>
        <pt x="263" y="-155" on="0"/>
        <pt x="219" y="-191" on="0"/>
        <pt x="184" y="-191" on="1"/>
        <pt x="141" y="-191" on="0"/>
        <pt x="112" y="-160" on="1"/>
        <pt x="120" y="-122" on="1"/>
        <pt x="125" y="-120" on="1"/>
        <pt x="151" y="-151" on="0"/>
        <pt x="180" y="-151" on="1"/>
        <pt x="213" y="-151" on="0"/>
        <pt x="213" y="-124" on="1"/>
        <pt x="213" y="-109" on="0"/>
        <pt x="191" y="-99" on="1"/>
        <pt x="144" y="-70" on="1"/>
        <pt x="161" y="-6" on="1"/>
        <pt x="82" y="1" on="0"/>
        <pt x="19" y="38" on="1"/>
        <pt x="38" y="115" on="1"/>
        <pt x="48" y="119" on="1"/>
        <pt x="77" y="87" on="0"/>
        <pt x="155" y="55" on="0"/>
        <pt x="193" y="55" on="1"/>
        <pt x="252" y="55" on="0"/>
        <pt x="328" y="120" on="0"/>
        <pt x="328" y="166" on="1"/>
        <pt x="328" y="205" on="0"/>
        <pt x="276" y="257" on="0"/>
        <pt x="222" y="290" on="1"/>
        <pt x="179" y="316" on="0"/>
        <pt x="125" y="358" on="0"/>
        <pt x="87" y="422" on="0"/>
        <pt x="87" y="465" on="1"/>
        <pt x="87" y="515" on="0"/>
        <pt x="142" y="598" on="0"/>
        <pt x="239" y="646" on="0"/>
        <pt x="298" y="646" on="1"/>
      </contour>
    </TTGlyph>
    <TTGlyph name="Scircumflex" xMin="19" yMin="-7" xMax="439" yMax="867">
      <component glyphName="S" x="0" y="0" flags="0x1000"/>
      <component glyphName="circumflex" x="61" y="182" flags="0x1000"/>
    </TTGlyph>
    <TTGlyph name="Scommaaccent" xMin="19" yMin="-241" xMax="439" yMax="646">
      <component glyphName="S" x="0" y="0" flags="0x1000"/>
      <component glyphName="commaaccentcomb" x="35" y="3" flags="0x1000"/>
    </TTGlyph>
    <TTGlyph name="T" xMin="66" yMin="0" xMax="497" yMax="640">
      <contour>
        <pt x="483" y="575" on="1"/>
        <pt x="379" y="580" on="1"/>
        <pt x="316" y="580" on="1"/>
        <pt x="265" y="199" on="1"/>
        <pt x="244" y="0" on="1"/>
        <pt x="169" y="0" on="1"/>
        <pt x="198" y="193" on="1"/>
        <pt x="241" y="580" on="1"/>
        <pt x="180" y="580" on="1"/>
        <pt x="71" y="575" on="1"/>
        <pt x="66" y="582" on="1"/>
        <pt x="80" y="640" on="1"/>
        <pt x="493" y="640" on="1"/>
        <pt x="497" y="633" on="1"/>
      </contour>
    </TTGlyph>
    <TTGlyph name="Tbar" xMin="66" yMin="0" xMax="497" yMax="640">
      <contour>
        <pt x="285" y="346" on="1"/>
        <pt x="379" y="346" on="1"/>
        <pt x="385" y="340" on="1"/>
        <pt x="382" y="298" on="1"/>
        <pt x="278" y="298" on="1"/>
        <pt x="265" y="199" on="1"/>
        <pt x="244" y="0" on="1"/>
        <pt x="169" y="0" on="1"/>
        <pt x="198" y="193" on="1"/>
        <pt x="210" y="298" on="1"/>
        <pt x="120" y="298" on="1"/>
        <pt x="114" y="304" on="1"/>
        <pt x="118" y="346" on="1"/>
        <pt x="215" y="346" on="1"/>
        <pt x="241" y="580" on="1"/>
        <pt x="180" y="580" on="1"/>
        <pt x="71" y="575" on="1"/>
        <pt x="66" y="582" on="1"/>
        <pt x="80" y="640" on="1"/>
        <pt x="493" y="640" on="1"/>
        <pt x="497" y="633" on="1"/>
        <pt x="483" y="575" on="1"/>
        <pt x="379" y="580" on="1"/>
        <pt x="316" y="580" on="1"/>
      </contour>
    </TTGlyph>
    <TTGlyph name="Tcaron" xMin="66" yMin="0" xMax="497" yMax="868">
      <component glyphName="T" x="0" y="0" flags="0x1000"/>
      <component glyphName="caron" x="56" y="182" flags="0x1000"/>
    </TTGlyph>
    <TTGlyph name="Tcedilla" xMin="66" yMin="-186" xMax="497" yMax="640">
      <contour>
        <pt x="483" y="575" on="1"/>
        <pt x="379" y="580" on="1"/>
        <pt x="316" y="580" on="1"/>
        <pt x="265" y="199" on="1"/>
        <pt x="244" y="0" on="1"/>
        <pt x="224" y="0" on="1"/>
        <pt x="211" y="-51" on="1"/>
        <pt x="241" y="-70" on="1"/>
        <pt x="276" y="-93" on="0"/>
        <pt x="276" y="-123" on="1"/>
        <pt x="276" y="-151" on="0"/>
        <pt x="236" y="-186" on="0"/>
        <pt x="205" y="-186" on="1"/>
        <pt x="170" y="-186" on="0"/>
        <pt x="139" y="-155" on="1"/>
        <pt x="147" y="-120" on="1"/>
        <pt x="152" y="-119" on="1"/>
        <pt x="174" y="-150" on="0"/>
        <pt x="202" y="-150" on="1"/>
        <pt x="230" y="-150" on="0"/>
        <pt x="230" y="-122" on="1"/>
        <pt x="230" y="-109" on="0"/>
        <pt x="213" y="-95" on="1"/>
        <pt x="169" y="-67" on="1"/>
        <pt x="186" y="0" on="1"/>
        <pt x="169" y="0" on="1"/>
        <pt x="198" y="193" on="1"/>
        <pt x="241" y="580" on="1"/>
        <pt x="180" y="580" on="1"/>
        <pt x="71" y="575" on="1"/>
        <pt x="66" y="582" on="1"/>
        <pt x="80" y="640" on="1"/>
        <pt x="493" y="640" on="1"/>
        <pt x="497" y="633" on="1"/>
      </contour>
    </TTGlyph>
    <TTGlyph name="Thorn" xMin="64" yMin="0" xMax="482" yMax="640">
      <contour>
        <pt x="391" y="529" on="0"/>
        <pt x="482" y="446" on="0"/>
        <pt x="482" y="364" on="1"/>
        <pt x="482" y="292" on="0"/>
        <pt x="420" y="179" on="0"/>
        <pt x="305" y="115" on="0"/>
        <pt x="227" y="115" on="1"/>
        <pt x="151" y="115" on="1"/>
        <pt x="139" y="0" on="1"/>
        <pt x="64" y="0" on="1"/>
        <pt x="92" y="193" on="1"/>
        <pt x="145" y="640" on="1"/>
        <pt x="219" y="640" on="1"/>
        <pt x="204" y="528" on="1"/>
        <pt x="310" y="529" on="1"/>
      </contour>
      <contour>
        <pt x="331" y="184" on="0"/>
        <pt x="405" y="281" on="0"/>
        <pt x="405" y="354" on="1"/>
        <pt x="405" y="408" on="0"/>
        <pt x="352" y="464" on="0"/>
        <pt x="293" y="467" on="1"/>
        <pt x="196" y="465" on="1"/>
        <pt x="160" y="199" on="1"/>
        <pt x="158" y="178" on="1"/>
        <pt x="270" y="176" on="1"/>
      </contour>
    </TTGlyph>
    <TTGlyph name="U" xMin="69" yMin="-7" xMax="577" yMax="640">
      <contour>
        <pt x="525" y="242" on="1"/>
        <pt x="513" y="123" on="0"/>
        <pt x="383" y="-7" on="0"/>
        <pt x="272" y="-7" on="1"/>
        <pt x="177" y="-7" on="0"/>
        <pt x="69" y="91" on="0"/>
        <pt x="69" y="180" on="1"/>
        <pt x="69" y="209" on="0"/>
        <pt x="73" y="234" on="1"/>
        <pt x="85" y="321" on="1"/>
        <pt x="124" y="640" on="1"/>
        <pt x="197" y="640" on="1"/>
        <pt x="144" y="243" on="1"/>
        <pt x="141" y="219" on="0"/>
        <pt x="141" y="198" on="1"/>
        <pt x="141" y="60" on="0"/>
        <pt x="277" y="60" on="1"/>
        <pt x="435" y="60" on="0"/>
        <pt x="456" y="234" on="1"/>
        <pt x="502" y="640" on="1"/>
        <pt x="577" y="640" on="1"/>
        <pt x="534" y="315" on="1"/>
      </contour>
    </TTGlyph>
    <TTGlyph name="Uacute" xMin="69" yMin="-7" xMax="577" yMax="861">
      <component glyphName="U" x="0" y="0" flags="0x1000"/>
      <component glyphName="acute.cap" x="138" y="182" flags="0x1000"/>
    </TTGlyph>
    <TTGlyph name="Ubreve" xMin="69" yMin="-7" xMax="577" yMax="851">
      <component glyphName="U" x="0" y="0" flags="0x1000"/>
      <component glyphName="breve" x="122" y="182" flags="0x1000"/>
    </TTGlyph>
    <TTGlyph name="Ucaron" xMin="69" yMin="-7" xMax="577" yMax="868">
      <component glyphName="U" x="0" y="0" flags="0x1000"/>
      <component glyphName="caron" x="121" y="182" flags="0x1000"/>
    </TTGlyph>
    <TTGlyph name="Ucircumflex" xMin="69" yMin="-7" xMax="577" yMax="854">
      <component glyphName="U" x="0" y="0" flags="0x1000"/>
      <component glyphName="circumflex.cap" x="131" y="182" flags="0x1000"/>
    </TTGlyph>
    <TTGlyph name="Udieresis" xMin="69" yMin="-7" xMax="577" yMax="831">
      <component glyphName="U" x="0" y="0" flags="0x1000"/>
      <component glyphName="dieresis" x="128" y="182" flags="0x1000"/>
    </TTGlyph>
    <TTGlyph name="Udieresisacute" xMin="69" yMin="-7" xMax="577" yMax="970">
      <component glyphName="U" x="0" y="0" flags="0x1000"/>
      <component glyphName="dieresisacute" x="128" y="182" flags="0x1000"/>
    </TTGlyph>
    <TTGlyph name="Udieresiscaron" xMin="69" yMin="-7" xMax="577" yMax="954">
      <component glyphName="U" x="0" y="0" flags="0x1000"/>
      <component glyphName="dieresiscaron" x="128" y="182" flags="0x1000"/>
    </TTGlyph>
    <TTGlyph name="Udieresisgrave" xMin="69" yMin="-7" xMax="577" yMax="970">
      <component glyphName="U" x="0" y="0" flags="0x1000"/>
      <component glyphName="dieresisgrave" x="124" y="182" flags="0x1000"/>
    </TTGlyph>
    <TTGlyph name="Udieresismacron" xMin="69" yMin="-7" xMax="577" yMax="926">
      <component glyphName="U" x="0" y="0" flags="0x1000"/>
      <component glyphName="dieresismacron" x="128" y="182" flags="0x1000"/>
    </TTGlyph>
    <TTGlyph name="Udotbelow" xMin="69" yMin="-161" xMax="577" yMax="640">
      <component glyphName="U" x="0" y="0" flags="0x1000"/>
      <component glyphName="dotbelowcomb" x="123" y="0" flags="0x1000"/>
    </TTGlyph>
    <TTGlyph name="Ugrave" xMin="69" yMin="-7" xMax="577" yMax="863">
      <component glyphName="U" x="0" y="0" flags="0x1000"/>
      <component glyphName="grave.cap" x="128" y="182" flags="0x1000"/>
    </TTGlyph>
    <TTGlyph name="Uhookabove" xMin="69" yMin="-7" xMax="577" yMax="892">
      <component glyphName="U" x="0" y="0" flags="0x1000"/>
      <component glyphName="hookabove" x="99" y="182" flags="0x1000"/>
    </TTGlyph>
    <TTGlyph name="Uhorn" xMin="69" yMin="-7" xMax="651" yMax="774">
      <contour>
        <pt x="651" y="664" on="0"/>
        <pt x="609" y="615" on="0"/>
        <pt x="572" y="605" on="1"/>
        <pt x="534" y="315" on="1"/>
        <pt x="525" y="242" on="1"/>
        <pt x="512" y="123" on="0"/>
        <pt x="383" y="-7" on="0"/>
        <pt x="272" y="-7" on="1"/>
        <pt x="177" y="-7" on="0"/>
        <pt x="69" y="91" on="0"/>
        <pt x="69" y="180" on="1"/>
        <pt x="69" y="209" on="0"/>
        <pt x="73" y="234" on="1"/>
        <pt x="85" y="321" on="1"/>
        <pt x="123" y="640" on="1"/>
        <pt x="197" y="640" on="1"/>
        <pt x="144" y="243" on="1"/>
        <pt x="141" y="219" on="0"/>
        <pt x="141" y="198" on="1"/>
        <pt x="141" y="60" on="0"/>
        <pt x="277" y="60" on="1"/>
        <pt x="436" y="60" on="0"/>
        <pt x="455" y="234" on="1"/>
        <pt x="502" y="640" on="1"/>
        <pt x="530" y="640" on="1"/>
        <pt x="592" y="640" on="0"/>
        <pt x="592" y="692" on="1"/>
        <pt x="592" y="722" on="0"/>
        <pt x="562" y="752" on="1"/>
        <pt x="565" y="759" on="1"/>
        <pt x="587" y="774" on="0"/>
        <pt x="601" y="774" on="1"/>
        <pt x="619" y="774" on="0"/>
        <pt x="651" y="728" on="0"/>
        <pt x="651" y="697" on="1"/>
      </contour>
    </TTGlyph>
    <TTGlyph name="Uhornacute" xMin="69" yMin="-7" xMax="651" yMax="861">
      <component glyphName="Uhorn" x="0" y="0" flags="0x1000"/>
      <component glyphName="acute.cap" x="130" y="182" flags="0x1000"/>
    </TTGlyph>
    <TTGlyph name="Uhorndotbelow" xMin="69" yMin="-161" xMax="651" yMax="774">
      <component glyphName="Uhorn" x="0" y="0" flags="0x1000"/>
      <component glyphName="dotbelowcomb" x="115" y="0" flags="0x1000"/>
    </TTGlyph>
    <TTGlyph name="Uhorngrave" xMin="69" yMin="-7" xMax="651" yMax="863">
      <component glyphName="Uhorn" x="0" y="0" flags="0x1000"/>
      <component glyphName="grave.cap" x="120" y="182" flags="0x1000"/>
    </TTGlyph>
    <TTGlyph name="Uhornhookabove" xMin="69" yMin="-7" xMax="651" yMax="892">
      <component glyphName="Uhorn" x="0" y="0" flags="0x1000"/>
      <component glyphName="hookabove" x="90" y="182" flags="0x1000"/>
    </TTGlyph>
    <TTGlyph name="Uhorntilde" xMin="69" yMin="-7" xMax="651" yMax="847">
      <component glyphName="Uhorn" x="0" y="0" flags="0x1000"/>
      <component glyphName="tilde" x="119" y="182" flags="0x1000"/>
    </TTGlyph>
    <TTGlyph name="Uhungarumlaut" xMin="69" yMin="-7" xMax="577" yMax="861">
      <component glyphName="U" x="0" y="0" flags="0x1000"/>
      <component glyphName="hungarumlaut.cap" x="128" y="182" flags="0x1000"/>
    </TTGlyph>
    <TTGlyph name="Umacron" xMin="69" yMin="-7" xMax="577" yMax="814">
      <component glyphName="U" x="0" y="0" flags="0x1000"/>
      <component glyphName="macron" x="128" y="182" flags="0x1000"/>
    </TTGlyph>
    <TTGlyph name="Uogonek" xMin="69" yMin="-197" xMax="577" yMax="640">
      <contour>
        <pt x="534" y="315" on="1"/>
        <pt x="525" y="242" on="1"/>
        <pt x="508" y="87" on="0"/>
        <pt x="407" y="27" on="1"/>
        <pt x="356" y="-61" on="1"/>
        <pt x="339" y="-89" on="0"/>
        <pt x="339" y="-112" on="1"/>
        <pt x="339" y="-147" on="0"/>
        <pt x="374" y="-147" on="1"/>
        <pt x="412" y="-147" on="0"/>
        <pt x="442" y="-107" on="1"/>
        <pt x="447" y="-107" on="1"/>
        <pt x="459" y="-143" on="1"/>
        <pt x="411" y="-197" on="0"/>
        <pt x="365" y="-197" on="1"/>
        <pt x="331" y="-197" on="0"/>
        <pt x="291" y="-154" on="0"/>
        <pt x="291" y="-119" on="1"/>
        <pt x="291" y="-85" on="0"/>
        <pt x="313" y="-53" on="1"/>
        <pt x="347" y="2" on="1"/>
        <pt x="313" y="-7" on="0"/>
        <pt x="272" y="-7" on="1"/>
        <pt x="177" y="-7" on="0"/>
        <pt x="69" y="91" on="0"/>
        <pt x="69" y="180" on="1"/>
        <pt x="69" y="209" on="0"/>
        <pt x="73" y="234" on="1"/>
        <pt x="85" y="321" on="1"/>
        <pt x="123" y="640" on="1"/>
        <pt x="197" y="640" on="1"/>
        <pt x="144" y="243" on="1"/>
        <pt x="141" y="219" on="0"/>
        <pt x="141" y="198" on="1"/>
        <pt x="141" y="60" on="0"/>
        <pt x="277" y="60" on="1"/>
        <pt x="436" y="60" on="0"/>
        <pt x="455" y="234" on="1"/>
        <pt x="502" y="640" on="1"/>
        <pt x="577" y="640" on="1"/>
      </contour>
    </TTGlyph>
    <TTGlyph name="Uring" xMin="69" yMin="-7" xMax="577" yMax="877">
      <component glyphName="U" x="0" y="0" flags="0x1000"/>
      <component glyphName="ring" x="128" y="182" flags="0x1000"/>
    </TTGlyph>
    <TTGlyph name="Utilde" xMin="69" yMin="-7" xMax="577" yMax="847">
      <component glyphName="U" x="0" y="0" flags="0x1000"/>
      <component glyphName="tilde" x="128" y="182" flags="0x1000"/>
    </TTGlyph>
    <TTGlyph name="V" xMin="65" yMin="0" xMax="579" yMax="640">
      <contour>
        <pt x="190" y="0" on="1"/>
        <pt x="65" y="640" on="1"/>
        <pt x="142" y="640" on="1"/>
        <pt x="148" y="577" on="1"/>
        <pt x="242" y="78" on="1"/>
        <pt x="247" y="78" on="1"/>
        <pt x="481" y="574" on="1"/>
        <pt x="505" y="640" on="1"/>
        <pt x="579" y="640" on="1"/>
        <pt x="277" y="0" on="1"/>
      </contour>
    </TTGlyph>
    <TTGlyph name="V.ss01" xMin="-124" yMin="0" xMax="603" yMax="498">
      <contour>
        <pt x="261" y="33" on="1"/>
        <pt x="545" y="33" on="1"/>
        <pt x="540" y="0" on="1"/>
        <pt x="-124" y="0" on="1"/>
        <pt x="-119" y="33" on="1"/>
        <pt x="160" y="33" on="1"/>
        <pt x="70" y="464" on="1"/>
        <pt x="-66" y="464" on="1"/>
        <pt x="-61" y="498" on="1"/>
        <pt x="603" y="498" on="1"/>
        <pt x="598" y="464" on="1"/>
        <pt x="472" y="464" on="1"/>
      </contour>
      <contour>
        <pt x="137" y="464" on="1"/>
        <pt x="140" y="440" on="1"/>
        <pt x="214" y="74" on="1"/>
        <pt x="218" y="74" on="1"/>
        <pt x="398" y="436" on="1"/>
        <pt x="408" y="464" on="1"/>
      </contour>
    </TTGlyph>
    <TTGlyph name="W" xMin="71" yMin="0" xMax="892" yMax="640">
      <contour>
        <pt x="516" y="0" on="1"/>
        <pt x="444" y="378" on="1"/>
        <pt x="437" y="378" on="1"/>
        <pt x="265" y="0" on="1"/>
        <pt x="186" y="0" on="1"/>
        <pt x="71" y="640" on="1"/>
        <pt x="146" y="640" on="1"/>
        <pt x="148" y="581" on="1"/>
        <pt x="237" y="84" on="1"/>
        <pt x="244" y="84" on="1"/>
        <pt x="424" y="479" on="1"/>
        <pt x="392" y="640" on="1"/>
        <pt x="470" y="640" on="1"/>
        <pt x="476" y="574" on="1"/>
        <pt x="565" y="84" on="1"/>
        <pt x="572" y="84" on="1"/>
        <pt x="799" y="576" on="1"/>
        <pt x="821" y="640" on="1"/>
        <pt x="892" y="640" on="1"/>
        <pt x="593" y="0" on="1"/>
      </contour>
    </TTGlyph>
    <TTGlyph name="Wacute" xMin="71" yMin="0" xMax="892" yMax="861">
      <component glyphName="W" x="0" y="0" flags="0x1000"/>
      <component glyphName="acute.cap" x="243" y="182" flags="0x1000"/>
    </TTGlyph>
    <TTGlyph name="Wcircumflex" xMin="71" yMin="0" xMax="892" yMax="854">
      <component glyphName="W" x="0" y="0" flags="0x1000"/>
      <component glyphName="circumflex.cap" x="235" y="182" flags="0x1000"/>
    </TTGlyph>
    <TTGlyph name="Wdieresis" xMin="71" yMin="0" xMax="892" yMax="831">
      <component glyphName="W" x="0" y="0" flags="0x1000"/>
      <component glyphName="dieresis" x="232" y="182" flags="0x1000"/>
    </TTGlyph>
    <TTGlyph name="Wgrave" xMin="71" yMin="0" xMax="892" yMax="863">
      <component glyphName="W" x="0" y="0" flags="0x1000"/>
      <component glyphName="grave.cap" x="232" y="182" flags="0x1000"/>
    </TTGlyph>
    <TTGlyph name="X" xMin="-4" yMin="0" xMax="569" yMax="640">
      <contour>
        <pt x="501" y="0" on="1"/>
        <pt x="414" y="0" on="1"/>
        <pt x="395" y="51" on="1"/>
        <pt x="280" y="275" on="1"/>
        <pt x="106" y="46" on="1"/>
        <pt x="76" y="0" on="1"/>
        <pt x="-4" y="0" on="1"/>
        <pt x="243" y="328" on="1"/>
        <pt x="87" y="640" on="1"/>
        <pt x="174" y="640" on="1"/>
        <pt x="193" y="591" on="1"/>
        <pt x="299" y="382" on="1"/>
        <pt x="457" y="591" on="1"/>
        <pt x="488" y="640" on="1"/>
        <pt x="569" y="640" on="1"/>
        <pt x="339" y="329" on="1"/>
      </contour>
    </TTGlyph>
    <TTGlyph name="X.ss01" xMin="-124" yMin="0" xMax="623" yMax="498">
      <contour>
        <pt x="413" y="33" on="1"/>
        <pt x="565" y="33" on="1"/>
        <pt x="560" y="0" on="1"/>
        <pt x="-124" y="0" on="1"/>
        <pt x="-119" y="33" on="1"/>
        <pt x="32" y="33" on="1"/>
        <pt x="207" y="253" on="1"/>
        <pt x="91" y="464" on="1"/>
        <pt x="-66" y="464" on="1"/>
        <pt x="-61" y="498" on="1"/>
        <pt x="623" y="498" on="1"/>
        <pt x="618" y="464" on="1"/>
        <pt x="455" y="464" on="1"/>
        <pt x="292" y="258" on="1"/>
      </contour>
      <contour>
        <pt x="376" y="448" on="1"/>
        <pt x="386" y="464" on="1"/>
        <pt x="170" y="464" on="1"/>
        <pt x="176" y="447" on="1"/>
        <pt x="258" y="301" on="1"/>
      </contour>
      <contour>
        <pt x="110" y="49" on="1"/>
        <pt x="99" y="33" on="1"/>
        <pt x="336" y="33" on="1"/>
        <pt x="327" y="53" on="1"/>
        <pt x="240" y="209" on="1"/>
      </contour>
    </TTGlyph>
    <TTGlyph name="Y" xMin="66" yMin="0" xMax="540" yMax="640">
      <contour>
        <pt x="270" y="187" on="1"/>
        <pt x="250" y="0" on="1"/>
        <pt x="174" y="0" on="1"/>
        <pt x="203" y="187" on="1"/>
        <pt x="208" y="233" on="1"/>
        <pt x="66" y="640" on="1"/>
        <pt x="145" y="640" on="1"/>
        <pt x="152" y="605" on="1"/>
        <pt x="250" y="314" on="1"/>
        <pt x="258" y="314" on="1"/>
        <pt x="439" y="603" on="1"/>
        <pt x="458" y="640" on="1"/>
        <pt x="540" y="640" on="1"/>
        <pt x="277" y="233" on="1"/>
      </contour>
    </TTGlyph>
    <TTGlyph name="Yacute" xMin="66" yMin="0" xMax="540" yMax="861">
      <component glyphName="Y" x="0" y="0" flags="0x1000"/>
      <component glyphName="acute.cap" x="91" y="182" flags="0x1000"/>
    </TTGlyph>
    <TTGlyph name="Ycircumflex" xMin="66" yMin="0" xMax="540" yMax="854">
      <component glyphName="Y" x="0" y="0" flags="0x1000"/>
      <component glyphName="circumflex.cap" x="83" y="182" flags="0x1000"/>
    </TTGlyph>
    <TTGlyph name="Ydieresis" xMin="66" yMin="0" xMax="540" yMax="831">
      <component glyphName="Y" x="0" y="0" flags="0x1000"/>
      <component glyphName="dieresis" x="80" y="182" flags="0x1000"/>
    </TTGlyph>
    <TTGlyph name="Ydotbelow" xMin="66" yMin="-161" xMax="540" yMax="640">
      <component glyphName="Y" x="0" y="0" flags="0x1000"/>
      <component glyphName="dotbelowcomb" x="52" y="0" flags="0x1000"/>
    </TTGlyph>
    <TTGlyph name="Ygrave" xMin="66" yMin="0" xMax="540" yMax="863">
      <component glyphName="Y" x="0" y="0" flags="0x1000"/>
      <component glyphName="grave.cap" x="80" y="182" flags="0x1000"/>
    </TTGlyph>
    <TTGlyph name="Yhookabove" xMin="66" yMin="0" xMax="540" yMax="892">
      <component glyphName="Y" x="0" y="0" flags="0x1000"/>
      <component glyphName="hookabove" x="51" y="182" flags="0x1000"/>
    </TTGlyph>
    <TTGlyph name="Ytilde" xMin="66" yMin="0" xMax="540" yMax="847">
      <component glyphName="Y" x="0" y="0" flags="0x1000"/>
      <component glyphName="tilde" x="80" y="182" flags="0x1000"/>
    </TTGlyph>
    <TTGlyph name="Z" xMin="3" yMin="-3" xMax="517" yMax="641">
      <contour>
        <pt x="101" y="61" on="1"/>
        <pt x="355" y="61" on="1"/>
        <pt x="445" y="68" on="1"/>
        <pt x="448" y="62" on="1"/>
        <pt x="435" y="-2" on="1"/>
        <pt x="325" y="0" on="1"/>
        <pt x="57" y="0" on="1"/>
        <pt x="3" y="-3" on="1"/>
        <pt x="10" y="53" on="1"/>
        <pt x="420" y="578" on="1"/>
        <pt x="182" y="578" on="1"/>
        <pt x="92" y="572" on="1"/>
        <pt x="88" y="577" on="1"/>
        <pt x="103" y="641" on="1"/>
        <pt x="469" y="640" on="1"/>
        <pt x="517" y="641" on="1"/>
        <pt x="510" y="585" on="1"/>
      </contour>
    </TTGlyph>
    <TTGlyph name="Zacute" xMin="3" yMin="-3" xMax="517" yMax="861">
      <component glyphName="Z" x="0" y="0" flags="0x1000"/>
      <component glyphName="acute.cap" x="58" y="182" flags="0x1000"/>
    </TTGlyph>
    <TTGlyph name="Zcaron" xMin="3" yMin="-3" xMax="517" yMax="846">
      <component glyphName="Z" x="0" y="0" flags="0x1000"/>
      <component glyphName="caron.cap" x="43" y="182" flags="0x1000"/>
    </TTGlyph>
    <TTGlyph name="Zdotaccent" xMin="3" yMin="-3" xMax="517" yMax="843">
      <component glyphName="Z" x="0" y="0" flags="0x1000"/>
      <component glyphName="dotaccent" x="47" y="182" flags="0x1000"/>
    </TTGlyph>
    <TTGlyph name="a" xMin="-3" yMin="0" xMax="430" yMax="498">
      <contour>
        <pt x="358" y="0" on="1"/>
        <pt x="355" y="53" on="1"/>
        <pt x="339" y="130" on="1"/>
        <pt x="226" y="131" on="1"/>
        <pt x="125" y="130" on="1"/>
        <pt x="88" y="56" on="1"/>
        <pt x="67" y="0" on="1"/>
        <pt x="-3" y="0" on="1"/>
        <pt x="244" y="498" on="1"/>
        <pt x="325" y="498" on="1"/>
        <pt x="430" y="0" on="1"/>
      </contour>
      <contour>
        <pt x="276" y="427" on="1"/>
        <pt x="272" y="427" on="1"/>
        <pt x="153" y="188" on="1"/>
        <pt x="326" y="188" on="1"/>
      </contour>
    </TTGlyph>
    <TTGlyph name="a.sups" xMin="63" yMin="333" xMax="315" yMax="648">
      <contour>
        <pt x="284" y="410" on="1"/>
        <pt x="279" y="338" on="1"/>
        <pt x="219" y="334" on="1"/>
        <pt x="236" y="471" on="1"/>
        <pt x="236" y="470" on="1"/>
        <pt x="229" y="470" on="1"/>
        <pt x="181" y="380" on="0"/>
        <pt x="132" y="333" on="1"/>
        <pt x="122" y="333" on="1"/>
        <pt x="89" y="346" on="0"/>
        <pt x="63" y="392" on="0"/>
        <pt x="63" y="433" on="1"/>
        <pt x="63" y="511" on="0"/>
        <pt x="143" y="631" on="0"/>
        <pt x="217" y="645" on="1"/>
        <pt x="221" y="645" on="1"/>
        <pt x="271" y="638" on="1"/>
        <pt x="309" y="648" on="1"/>
        <pt x="315" y="644" on="1"/>
      </contour>
      <contour>
        <pt x="149" y="389" on="0"/>
        <pt x="213" y="480" on="0"/>
        <pt x="246" y="550" on="1"/>
        <pt x="249" y="573" on="1"/>
        <pt x="251" y="594" on="1"/>
        <pt x="209" y="601" on="1"/>
        <pt x="167" y="600" on="0"/>
        <pt x="119" y="518" on="0"/>
        <pt x="119" y="456" on="1"/>
        <pt x="119" y="423" on="0"/>
        <pt x="133" y="389" on="0"/>
        <pt x="140" y="389" on="1"/>
      </contour>
    </TTGlyph>
    <TTGlyph name="aacute" xMin="-3" yMin="0" xMax="430" yMax="735">
      <component glyphName="a" x="0" y="0" flags="0x1000"/>
      <component glyphName="acute" x="60" y="40" flags="0x1000"/>
    </TTGlyph>
    <TTGlyph name="abreve" xMin="-3" yMin="0" xMax="430" yMax="709">
      <component glyphName="a" x="0" y="0" flags="0x1000"/>
      <component glyphName="breve" x="53" y="40" flags="0x1000"/>
    </TTGlyph>
    <TTGlyph name="abreveacute" xMin="-3" yMin="0" xMax="430" yMax="802">
      <component glyphName="a" x="0" y="0" flags="0x1000"/>
      <component glyphName="breveacute" x="58" y="40" flags="0x1000"/>
    </TTGlyph>
    <TTGlyph name="abrevedotbelow" xMin="-3" yMin="-161" xMax="430" yMax="709">
      <contour>
        <pt x="184" y="566" on="0"/>
        <pt x="174" y="680" on="1"/>
        <pt x="198" y="709" on="1"/>
        <pt x="209" y="709" on="1"/>
        <pt x="218" y="621" on="0"/>
        <pt x="291" y="621" on="1"/>
        <pt x="364" y="621" on="0"/>
        <pt x="392" y="709" on="1"/>
        <pt x="404" y="709" on="1"/>
        <pt x="422" y="680" on="1"/>
        <pt x="385" y="566" on="0"/>
        <pt x="288" y="566" on="1"/>
      </contour>
      <contour>
        <pt x="359" y="0" on="1"/>
        <pt x="355" y="53" on="1"/>
        <pt x="339" y="130" on="1"/>
        <pt x="226" y="131" on="1"/>
        <pt x="125" y="130" on="1"/>
        <pt x="88" y="56" on="1"/>
        <pt x="67" y="0" on="1"/>
        <pt x="-3" y="0" on="1"/>
        <pt x="244" y="498" on="1"/>
        <pt x="326" y="498" on="1"/>
        <pt x="430" y="0" on="1"/>
      </contour>
      <contour>
        <pt x="276" y="427" on="1"/>
        <pt x="272" y="427" on="1"/>
        <pt x="153" y="188" on="1"/>
        <pt x="326" y="188" on="1"/>
      </contour>
      <contour>
        <pt x="241" y="-73" on="0"/>
        <pt x="263" y="-96" on="0"/>
        <pt x="263" y="-115" on="1"/>
        <pt x="263" y="-136" on="0"/>
        <pt x="239" y="-161" on="0"/>
        <pt x="219" y="-161" on="1"/>
        <pt x="199" y="-161" on="0"/>
        <pt x="176" y="-138" on="0"/>
        <pt x="176" y="-118" on="1"/>
        <pt x="176" y="-98" on="0"/>
        <pt x="200" y="-73" on="0"/>
        <pt x="221" y="-73" on="1"/>
      </contour>
    </TTGlyph>
    <TTGlyph name="abrevegrave" xMin="-3" yMin="0" xMax="430" yMax="802">
      <component glyphName="a" x="0" y="0" flags="0x1000"/>
      <component glyphName="brevegrave" x="58" y="40" flags="0x1000"/>
    </TTGlyph>
    <TTGlyph name="abrevehookabove" xMin="-3" yMin="0" xMax="430" yMax="851">
      <component glyphName="a" x="0" y="0" flags="0x1000"/>
      <component glyphName="brevehookabove" x="58" y="40" flags="0x1000"/>
    </TTGlyph>
    <TTGlyph name="abrevetilde" xMin="-3" yMin="0" xMax="460" yMax="821">
      <component glyphName="a" x="0" y="0" flags="0x1000"/>
      <component glyphName="brevetilde" x="58" y="40" flags="0x1000"/>
    </TTGlyph>
    <TTGlyph name="acaron" xMin="-3" yMin="0" xMax="430" yMax="726">
      <component glyphName="a" x="0" y="0" flags="0x1000"/>
      <component glyphName="caron" x="51" y="40" flags="0x1000"/>
    </TTGlyph>
    <TTGlyph name="acircumflex" xMin="-3" yMin="0" xMax="430" yMax="725">
      <component glyphName="a" x="0" y="0" flags="0x1000"/>
      <component glyphName="circumflex" x="64" y="40" flags="0x1000"/>
    </TTGlyph>
    <TTGlyph name="acircumflexacute" xMin="-3" yMin="0" xMax="458" yMax="801">
      <component glyphName="a" x="0" y="0" flags="0x1000"/>
      <component glyphName="circumflexacute" x="58" y="40" flags="0x1000"/>
    </TTGlyph>
    <TTGlyph name="acircumflexdotbelow" xMin="-3" yMin="-161" xMax="430" yMax="725">
      <contour>
        <pt x="167" y="591" on="1"/>
        <pt x="223" y="642" on="0"/>
        <pt x="303" y="725" on="1"/>
        <pt x="326" y="725" on="1"/>
        <pt x="373" y="656" on="0"/>
        <pt x="429" y="591" on="1"/>
        <pt x="405" y="561" on="1"/>
        <pt x="397" y="561" on="1"/>
        <pt x="350" y="609" on="0"/>
        <pt x="308" y="666" on="1"/>
        <pt x="263" y="621" on="0"/>
        <pt x="193" y="561" on="1"/>
        <pt x="184" y="561" on="1"/>
      </contour>
      <contour>
        <pt x="359" y="0" on="1"/>
        <pt x="355" y="53" on="1"/>
        <pt x="339" y="130" on="1"/>
        <pt x="226" y="131" on="1"/>
        <pt x="125" y="130" on="1"/>
        <pt x="88" y="56" on="1"/>
        <pt x="67" y="0" on="1"/>
        <pt x="-3" y="0" on="1"/>
        <pt x="244" y="498" on="1"/>
        <pt x="326" y="498" on="1"/>
        <pt x="430" y="0" on="1"/>
      </contour>
      <contour>
        <pt x="276" y="427" on="1"/>
        <pt x="272" y="427" on="1"/>
        <pt x="153" y="188" on="1"/>
        <pt x="326" y="188" on="1"/>
      </contour>
      <contour>
        <pt x="241" y="-73" on="0"/>
        <pt x="263" y="-96" on="0"/>
        <pt x="263" y="-115" on="1"/>
        <pt x="263" y="-136" on="0"/>
        <pt x="239" y="-161" on="0"/>
        <pt x="219" y="-161" on="1"/>
        <pt x="199" y="-161" on="0"/>
        <pt x="176" y="-138" on="0"/>
        <pt x="176" y="-118" on="1"/>
        <pt x="176" y="-98" on="0"/>
        <pt x="200" y="-73" on="0"/>
        <pt x="221" y="-73" on="1"/>
      </contour>
    </TTGlyph>
    <TTGlyph name="acircumflexgrave" xMin="-3" yMin="0" xMax="430" yMax="800">
      <component glyphName="a" x="0" y="0" flags="0x1000"/>
      <component glyphName="circumflexgrave" x="58" y="40" flags="0x1000"/>
    </TTGlyph>
    <TTGlyph name="acircumflexhookabove" xMin="-3" yMin="0" xMax="445" yMax="839">
      <component glyphName="a" x="0" y="0" flags="0x1000"/>
      <component glyphName="circumflexhookabove" x="58" y="40" flags="0x1000"/>
    </TTGlyph>
    <TTGlyph name="acircumflextilde" xMin="-3" yMin="0" xMax="478" yMax="821">
      <component glyphName="a" x="0" y="0" flags="0x1000"/>
      <component glyphName="circumflextilde" x="76" y="40" flags="0x1000"/>
    </TTGlyph>
    <TTGlyph name="acute" xMin="141" yMin="519" xMax="340" yMax="695">
      <contour>
        <pt x="340" y="655" on="1"/>
        <pt x="338" y="646" on="1"/>
        <pt x="238" y="567" on="0"/>
        <pt x="170" y="519" on="1"/>
        <pt x="162" y="520" on="1"/>
        <pt x="141" y="550" on="1"/>
        <pt x="236" y="629" on="0"/>
        <pt x="303" y="695" on="1"/>
        <pt x="312" y="694" on="1"/>
      </contour>
    </TTGlyph>
    <TTGlyph name="acute.cap" xMin="131" yMin="538" xMax="350" yMax="679">
      <contour>
        <pt x="350" y="633" on="1"/>
        <pt x="347" y="624" on="1"/>
        <pt x="287" y="595" on="0"/>
        <pt x="198" y="557" on="1"/>
        <pt x="154" y="538" on="1"/>
        <pt x="145" y="542" on="1"/>
        <pt x="131" y="576" on="1"/>
        <pt x="237" y="629" on="0"/>
        <pt x="322" y="679" on="1"/>
        <pt x="330" y="677" on="1"/>
      </contour>
    </TTGlyph>
    <TTGlyph name="adieresis" xMin="-3" yMin="0" xMax="430" yMax="689">
      <component glyphName="a" x="0" y="0" flags="0x1000"/>
      <component glyphName="dieresis" x="58" y="40" flags="0x1000"/>
    </TTGlyph>
    <TTGlyph name="adotbelow" xMin="-3" yMin="-161" xMax="430" yMax="498">
      <component glyphName="a" x="0" y="0" flags="0x1000"/>
      <component glyphName="dotbelowcomb" x="68" y="0" flags="0x1000"/>
    </TTGlyph>
    <TTGlyph name="ae" xMin="-26" yMin="0" xMax="625" yMax="498">
      <contour>
        <pt x="612" y="0" on="1"/>
        <pt x="332" y="0" on="1"/>
        <pt x="336" y="52" on="1"/>
        <pt x="332" y="191" on="1"/>
        <pt x="131" y="146" on="1"/>
        <pt x="70" y="55" on="1"/>
        <pt x="44" y="0" on="1"/>
        <pt x="-26" y="0" on="1"/>
        <pt x="303" y="498" on="1"/>
        <pt x="605" y="498" on="1"/>
        <pt x="608" y="491" on="1"/>
        <pt x="594" y="437" on="1"/>
        <pt x="466" y="442" on="1"/>
        <pt x="391" y="442" on="1"/>
        <pt x="396" y="262" on="1"/>
        <pt x="569" y="299" on="1"/>
        <pt x="575" y="295" on="1"/>
        <pt x="572" y="238" on="1"/>
        <pt x="397" y="205" on="1"/>
        <pt x="401" y="58" on="1"/>
        <pt x="490" y="58" on="1"/>
        <pt x="620" y="62" on="1"/>
        <pt x="625" y="56" on="1"/>
      </contour>
      <contour>
        <pt x="326" y="428" on="1"/>
        <pt x="320" y="428" on="1"/>
        <pt x="177" y="214" on="1"/>
        <pt x="331" y="248" on="1"/>
      </contour>
    </TTGlyph>
    <TTGlyph name="aeacute" xMin="-26" yMin="0" xMax="625" yMax="735">
      <component glyphName="ae" x="0" y="0" flags="0x1000"/>
      <component glyphName="acute" x="218" y="40" flags="0x1000"/>
    </TTGlyph>
    <TTGlyph name="agrave" xMin="-3" yMin="0" xMax="430" yMax="735">
      <component glyphName="a" x="0" y="0" flags="0x1000"/>
      <component glyphName="grave" x="49" y="40" flags="0x1000"/>
    </TTGlyph>
    <TTGlyph name="ahookabove" xMin="-3" yMin="0" xMax="430" yMax="750">
      <component glyphName="a" x="0" y="0" flags="0x1000"/>
      <component glyphName="hookabove" x="29" y="40" flags="0x1000"/>
    </TTGlyph>
    <TTGlyph name="amacron" xMin="-3" yMin="0" xMax="446" yMax="672">
      <component glyphName="a" x="0" y="0" flags="0x1000"/>
      <component glyphName="macron" x="58" y="40" flags="0x1000"/>
    </TTGlyph>
    <TTGlyph name="ampersand" xMin="49" yMin="-11" xMax="814" yMax="711">
      <contour>
        <pt x="794" y="276" on="0"/>
        <pt x="745" y="238" on="0"/>
        <pt x="709" y="234" on="1"/>
        <pt x="677" y="234" on="0"/>
        <pt x="600" y="251" on="1"/>
        <pt x="595" y="174" on="0"/>
        <pt x="519" y="55" on="0"/>
        <pt x="390" y="-11" on="0"/>
        <pt x="307" y="-11" on="1"/>
        <pt x="187" y="-11" on="0"/>
        <pt x="49" y="132" on="0"/>
        <pt x="49" y="253" on="1"/>
        <pt x="49" y="328" on="0"/>
        <pt x="100" y="442" on="0"/>
        <pt x="189" y="504" on="0"/>
        <pt x="244" y="504" on="1"/>
        <pt x="295" y="504" on="0"/>
        <pt x="355" y="453" on="0"/>
        <pt x="355" y="414" on="1"/>
        <pt x="355" y="398" on="0"/>
        <pt x="351" y="383" on="1"/>
        <pt x="443" y="452" on="0"/>
        <pt x="586" y="622" on="0"/>
        <pt x="625" y="711" on="1"/>
        <pt x="633" y="711" on="1"/>
        <pt x="654" y="690" on="0"/>
        <pt x="663" y="659" on="1"/>
        <pt x="625" y="573" on="0"/>
        <pt x="456" y="391" on="0"/>
        <pt x="235" y="240" on="0"/>
        <pt x="122" y="197" on="1"/>
        <pt x="137" y="126" on="0"/>
        <pt x="234" y="46" on="0"/>
        <pt x="312" y="46" on="1"/>
        <pt x="378" y="46" on="0"/>
        <pt x="483" y="100" on="0"/>
        <pt x="543" y="198" on="0"/>
        <pt x="543" y="262" on="1"/>
        <pt x="506" y="270" on="0"/>
        <pt x="485" y="270" on="1"/>
        <pt x="434" y="270" on="0"/>
        <pt x="404" y="207" on="1"/>
        <pt x="395" y="206" on="1"/>
        <pt x="379" y="247" on="1"/>
        <pt x="399" y="285" on="0"/>
        <pt x="448" y="322" on="0"/>
        <pt x="485" y="326" on="1"/>
        <pt x="505" y="326" on="0"/>
        <pt x="594" y="309" on="1"/>
        <pt x="680" y="291" on="0"/>
        <pt x="708" y="291" on="1"/>
        <pt x="765" y="291" on="0"/>
        <pt x="789" y="353" on="1"/>
        <pt x="798" y="354" on="1"/>
        <pt x="814" y="313" on="1"/>
      </contour>
      <contour>
        <pt x="186" y="452" on="0"/>
        <pt x="115" y="348" on="0"/>
        <pt x="115" y="263" on="1"/>
        <pt x="115" y="251" on="1"/>
        <pt x="190" y="279" on="0"/>
        <pt x="268" y="327" on="1"/>
        <pt x="305" y="359" on="0"/>
        <pt x="305" y="398" on="1"/>
        <pt x="305" y="425" on="0"/>
        <pt x="271" y="452" on="0"/>
        <pt x="243" y="452" on="1"/>
      </contour>
    </TTGlyph>
    <TTGlyph name="aogonek" xMin="-3" yMin="-196" xMax="430" yMax="498">
      <contour>
        <pt x="430" y="-145" on="1"/>
        <pt x="389" y="-196" on="0"/>
        <pt x="344" y="-196" on="1"/>
        <pt x="316" y="-196" on="0"/>
        <pt x="279" y="-162" on="0"/>
        <pt x="279" y="-133" on="1"/>
        <pt x="279" y="-110" on="0"/>
        <pt x="311" y="-53" on="0"/>
        <pt x="359" y="0" on="1"/>
        <pt x="355" y="53" on="1"/>
        <pt x="339" y="130" on="1"/>
        <pt x="226" y="131" on="1"/>
        <pt x="125" y="130" on="1"/>
        <pt x="88" y="56" on="1"/>
        <pt x="67" y="0" on="1"/>
        <pt x="-3" y="0" on="1"/>
        <pt x="244" y="498" on="1"/>
        <pt x="326" y="498" on="1"/>
        <pt x="430" y="0" on="1"/>
        <pt x="415" y="0" on="1"/>
        <pt x="367" y="-48" on="0"/>
        <pt x="332" y="-98" on="0"/>
        <pt x="332" y="-117" on="1"/>
        <pt x="332" y="-144" on="0"/>
        <pt x="357" y="-144" on="1"/>
        <pt x="386" y="-144" on="0"/>
        <pt x="421" y="-101" on="1"/>
        <pt x="426" y="-101" on="1"/>
      </contour>
      <contour>
        <pt x="276" y="427" on="1"/>
        <pt x="272" y="427" on="1"/>
        <pt x="153" y="188" on="1"/>
        <pt x="326" y="188" on="1"/>
      </contour>
    </TTGlyph>
    <TTGlyph name="approxequal" xMin="61" yMin="129" xMax="464" yMax="405">
      <component glyphName="asciitilde" x="28" y="85" flags="0x1000"/>
      <component glyphName="asciitilde" x="8" y="-79" flags="0x1000"/>
    </TTGlyph>
    <TTGlyph name="aring" xMin="-3" yMin="0" xMax="430" yMax="735">
      <component glyphName="a" x="0" y="0" flags="0x1000"/>
      <component glyphName="ring" x="58" y="40" flags="0x1000"/>
    </TTGlyph>
    <TTGlyph name="aringacute" xMin="-3" yMin="0" xMax="432" yMax="842">
      <component glyphName="a" x="0" y="0" flags="0x1000"/>
      <component glyphName="newGlyph#3" x="58" y="40" flags="0x1000"/>
    </TTGlyph>
    <TTGlyph name="arrowdown" xMin="54" yMin="-3" xMax="461" yMax="463">
      <contour>
        <pt x="264" y="-3" on="1"/>
        <pt x="252" y="-3" on="1"/>
        <pt x="54" y="190" on="1"/>
        <pt x="66" y="232" on="1"/>
        <pt x="78" y="232" on="1"/>
        <pt x="233" y="82" on="1"/>
        <pt x="230" y="458" on="1"/>
        <pt x="235" y="463" on="1"/>
        <pt x="284" y="460" on="1"/>
        <pt x="281" y="81" on="1"/>
        <pt x="437" y="232" on="1"/>
        <pt x="448" y="232" on="1"/>
        <pt x="461" y="190" on="1"/>
      </contour>
    </TTGlyph>
    <TTGlyph name="arrowdownleft" xMin="98" yMin="57" xMax="452" yMax="411">
      <component glyphName="arrowdown" x="-74" y="249" scalex="0.706970214844" scale01="-0.706970214844" scale10="0.706970214844" scaley="0.706970214844" flags="0x1000"/>
    </TTGlyph>
    <TTGlyph name="arrowdownright" xMin="61" yMin="56" xMax="415" yMax="411">
      <component glyphName="arrowdown" x="223" y="-116" scalex="0.706970214844" scale01="0.706970214844" scale10="-0.706970214844" scaley="0.706970214844" flags="0x1000"/>
    </TTGlyph>
    <TTGlyph name="arrowleft" xMin="23" yMin="27" xMax="489" yMax="434">
      <component glyphName="arrowdown" x="26" y="488" scalex="0.0" scale01="-1.0" scale10="1.0" scaley="0.0" flags="0x1000"/>
    </TTGlyph>
    <TTGlyph name="arrowright" xMin="23" yMin="30" xMax="489" yMax="437">
      <component glyphName="arrowdown" x="486" y="-24" scalex="0.0" scale01="1.0" scale10="-1.0" scaley="0.0" flags="0x1000"/>
    </TTGlyph>
    <TTGlyph name="arrowup" xMin="52" yMin="0" xMax="459" yMax="466">
      <component glyphName="arrowdown" x="513" y="463" scale="-1.0" flags="0x1000"/>
    </TTGlyph>
    <TTGlyph name="arrowupleft" xMin="97" yMin="50" xMax="451" yMax="405">
      <component glyphName="arrowdown" x="289" y="577" scalex="-0.706970214844" scale01="-0.706970214844" scale10="0.706970214844" scaley="-0.706970214844" flags="0x1000"/>
    </TTGlyph>
    <TTGlyph name="arrowupright" xMin="60" yMin="54" xMax="415" yMax="408">
      <component glyphName="arrowdown" x="587" y="216" scalex="-0.706970214844" scale01="0.706970214844" scale10="-0.706970214844" scaley="-0.706970214844" flags="0x1000"/>
    </TTGlyph>
    <TTGlyph name="asciicircum" xMin="9" yMin="112" xMax="390" yMax="491">
      <contour>
        <pt x="384" y="125" on="1"/>
        <pt x="339" y="115" on="1"/>
        <pt x="244" y="434" on="1"/>
        <pt x="239" y="434" on="1"/>
        <pt x="58" y="117" on="1"/>
        <pt x="49" y="112" on="1"/>
        <pt x="9" y="129" on="1"/>
        <pt x="210" y="487" on="1"/>
        <pt x="219" y="491" on="1"/>
        <pt x="282" y="491" on="1"/>
        <pt x="390" y="133" on="1"/>
      </contour>
    </TTGlyph>
    <TTGlyph name="asciitilde" xMin="53" yMin="208" xMax="436" yMax="320">
      <contour>
        <pt x="142" y="259" on="0"/>
        <pt x="119" y="243" on="0"/>
        <pt x="97" y="224" on="1"/>
        <pt x="79" y="208" on="1"/>
        <pt x="70" y="208" on="1"/>
        <pt x="53" y="234" on="1"/>
        <pt x="53" y="242" on="1"/>
        <pt x="133" y="313" on="1"/>
        <pt x="144" y="318" on="1"/>
        <pt x="168" y="313" on="0"/>
        <pt x="234" y="294" on="1"/>
        <pt x="324" y="269" on="0"/>
        <pt x="337" y="269" on="1"/>
        <pt x="348" y="269" on="0"/>
        <pt x="376" y="290" on="0"/>
        <pt x="410" y="320" on="1"/>
        <pt x="419" y="320" on="1"/>
        <pt x="436" y="294" on="1"/>
        <pt x="435" y="286" on="1"/>
        <pt x="355" y="213" on="1"/>
        <pt x="345" y="211" on="1"/>
        <pt x="322" y="214" on="0"/>
        <pt x="242" y="237" on="1"/>
        <pt x="164" y="259" on="0"/>
        <pt x="151" y="259" on="1"/>
      </contour>
    </TTGlyph>
    <TTGlyph name="asterisk" xMin="86" yMin="406" xMax="393" yMax="732">
      <contour>
        <pt x="251" y="607" on="1"/>
        <pt x="219" y="603" on="1"/>
        <pt x="214" y="610" on="1"/>
        <pt x="213" y="723" on="1"/>
        <pt x="240" y="732" on="0"/>
        <pt x="269" y="732" on="1"/>
        <pt x="273" y="726" on="1"/>
      </contour>
      <contour>
        <pt x="194" y="562" on="1"/>
        <pt x="186" y="559" on="1"/>
        <pt x="86" y="593" on="1"/>
        <pt x="86" y="630" on="0"/>
        <pt x="94" y="651" on="1"/>
        <pt x="101" y="653" on="1"/>
        <pt x="199" y="594" on="1"/>
      </contour>
      <contour>
        <pt x="387" y="604" on="0"/>
        <pt x="393" y="580" on="1"/>
        <pt x="390" y="576" on="1"/>
        <pt x="278" y="559" on="1"/>
        <pt x="265" y="588" on="1"/>
        <pt x="268" y="596" on="1"/>
        <pt x="368" y="632" on="1"/>
      </contour>
      <contour>
        <pt x="335" y="447" on="1"/>
        <pt x="322" y="424" on="0"/>
        <pt x="295" y="406" on="1"/>
        <pt x="288" y="407" on="1"/>
        <pt x="242" y="518" on="1"/>
        <pt x="265" y="539" on="1"/>
        <pt x="273" y="538" on="1"/>
      </contour>
      <contour>
        <pt x="222" y="514" on="1"/>
        <pt x="162" y="422" on="1"/>
        <pt x="143" y="429" on="0"/>
        <pt x="110" y="448" on="1"/>
        <pt x="110" y="455" on="1"/>
        <pt x="194" y="538" on="1"/>
        <pt x="221" y="523" on="1"/>
      </contour>
    </TTGlyph>
    <TTGlyph name="at" xMin="36" yMin="-197" xMax="792" yMax="612">
      <contour>
        <pt x="792" y="157" on="0"/>
        <pt x="618" y="3" on="0"/>
        <pt x="455" y="-4" on="1"/>
        <pt x="485" y="208" on="1"/>
        <pt x="476" y="208" on="1"/>
        <pt x="396" y="72" on="0"/>
        <pt x="311" y="-7" on="1"/>
        <pt x="297" y="-7" on="1"/>
        <pt x="222" y="37" on="0"/>
        <pt x="222" y="150" on="1"/>
        <pt x="222" y="223" on="0"/>
        <pt x="277" y="359" on="0"/>
        <pt x="384" y="454" on="0"/>
        <pt x="459" y="465" on="1"/>
        <pt x="464" y="465" on="1"/>
        <pt x="528" y="443" on="1"/>
        <pt x="572" y="465" on="1"/>
        <pt x="582" y="460" on="1"/>
        <pt x="532" y="109" on="1"/>
        <pt x="529" y="51" on="1"/>
        <pt x="630" y="64" on="0"/>
        <pt x="740" y="191" on="0"/>
        <pt x="740" y="295" on="1"/>
        <pt x="740" y="375" on="0"/>
        <pt x="670" y="496" on="0"/>
        <pt x="541" y="562" on="0"/>
        <pt x="454" y="562" on="1"/>
        <pt x="346" y="562" on="0"/>
        <pt x="180" y="469" on="0"/>
        <pt x="89" y="303" on="0"/>
        <pt x="89" y="197" on="1"/>
        <pt x="89" y="89" on="0"/>
        <pt x="184" y="-68" on="0"/>
        <pt x="357" y="-151" on="0"/>
        <pt x="473" y="-151" on="1"/>
        <pt x="475" y="-159" on="1"/>
        <pt x="451" y="-197" on="1"/>
        <pt x="327" y="-195" on="0"/>
        <pt x="139" y="-101" on="0"/>
        <pt x="36" y="71" on="0"/>
        <pt x="36" y="187" on="1"/>
        <pt x="36" y="311" on="0"/>
        <pt x="141" y="504" on="0"/>
        <pt x="332" y="612" on="0"/>
        <pt x="456" y="612" on="1"/>
        <pt x="557" y="612" on="0"/>
        <pt x="709" y="534" on="0"/>
        <pt x="792" y="391" on="0"/>
        <pt x="792" y="297" on="1"/>
      </contour>
      <contour>
        <pt x="329" y="71" on="0"/>
        <pt x="391" y="139" on="0"/>
        <pt x="469" y="267" on="0"/>
        <pt x="506" y="352" on="1"/>
        <pt x="507" y="358" on="1"/>
        <pt x="508" y="385" on="1"/>
        <pt x="446" y="407" on="1"/>
        <pt x="397" y="407" on="0"/>
        <pt x="324" y="342" on="0"/>
        <pt x="286" y="233" on="0"/>
        <pt x="286" y="168" on="1"/>
        <pt x="286" y="116" on="0"/>
        <pt x="306" y="71" on="0"/>
        <pt x="318" y="71" on="1"/>
      </contour>
    </TTGlyph>
    <TTGlyph name="atilde" xMin="-3" yMin="0" xMax="455" yMax="705">
      <component glyphName="a" x="0" y="0" flags="0x1000"/>
      <component glyphName="tilde" x="58" y="40" flags="0x1000"/>
    </TTGlyph>
    <TTGlyph name="b" xMin="61" yMin="-3" xMax="408" yMax="499">
      <contour>
        <pt x="408" y="236" on="0"/>
        <pt x="408" y="154" on="1"/>
        <pt x="408" y="-3" on="0"/>
        <pt x="181" y="-3" on="1"/>
        <pt x="117" y="-3" on="0"/>
        <pt x="61" y="0" on="1"/>
        <pt x="82" y="150" on="1"/>
        <pt x="123" y="498" on="1"/>
        <pt x="267" y="499" on="1"/>
        <pt x="333" y="499" on="0"/>
        <pt x="408" y="442" on="0"/>
        <pt x="408" y="389" on="1"/>
        <pt x="408" y="343" on="0"/>
        <pt x="359" y="277" on="0"/>
        <pt x="315" y="259" on="1"/>
      </contour>
      <contour>
        <pt x="333" y="443" on="0"/>
        <pt x="244" y="443" on="1"/>
        <pt x="186" y="443" on="1"/>
        <pt x="164" y="284" on="1"/>
        <pt x="251" y="281" on="1"/>
        <pt x="333" y="299" on="0"/>
        <pt x="333" y="380" on="1"/>
      </contour>
      <contour>
        <pt x="262" y="51" on="0"/>
        <pt x="336" y="103" on="0"/>
        <pt x="336" y="152" on="1"/>
        <pt x="336" y="216" on="0"/>
        <pt x="252" y="227" on="1"/>
        <pt x="156" y="226" on="1"/>
        <pt x="147" y="156" on="1"/>
        <pt x="136" y="54" on="1"/>
        <pt x="166" y="51" on="0"/>
        <pt x="195" y="51" on="1"/>
      </contour>
    </TTGlyph>
    <TTGlyph name="b.sups" xMin="69" yMin="333" xMax="323" yMax="810">
      <contour>
        <pt x="296" y="631" on="0"/>
        <pt x="323" y="585" on="0"/>
        <pt x="323" y="545" on="1"/>
        <pt x="323" y="466" on="0"/>
        <pt x="241" y="346" on="0"/>
        <pt x="168" y="333" on="1"/>
        <pt x="164" y="333" on="1"/>
        <pt x="128" y="339" on="1"/>
        <pt x="69" y="349" on="1"/>
        <pt x="120" y="738" on="1"/>
        <pt x="125" y="805" on="1"/>
        <pt x="187" y="810" on="1"/>
        <pt x="147" y="506" on="1"/>
        <pt x="153" y="506" on="1"/>
        <pt x="200" y="594" on="0"/>
        <pt x="253" y="644" on="1"/>
        <pt x="263" y="644" on="1"/>
      </contour>
      <contour>
        <pt x="217" y="377" on="0"/>
        <pt x="266" y="461" on="0"/>
        <pt x="266" y="522" on="1"/>
        <pt x="266" y="555" on="0"/>
        <pt x="253" y="588" on="0"/>
        <pt x="246" y="588" on="1"/>
        <pt x="236" y="588" on="0"/>
        <pt x="171" y="498" on="0"/>
        <pt x="137" y="428" on="1"/>
        <pt x="131" y="389" on="1"/>
        <pt x="175" y="377" on="1"/>
      </contour>
    </TTGlyph>
    <TTGlyph name="backslash" xMin="30" yMin="-113" xMax="293" yMax="678">
      <contour>
        <pt x="293" y="-105" on="1"/>
        <pt x="287" y="-113" on="1"/>
        <pt x="235" y="-113" on="1"/>
        <pt x="30" y="669" on="1"/>
        <pt x="37" y="678" on="1"/>
        <pt x="88" y="678" on="1"/>
      </contour>
    </TTGlyph>
    <TTGlyph name="bar" xMin="68" yMin="-262" xMax="256" yMax="797">
      <contour>
        <pt x="193" y="288" on="1"/>
        <pt x="126" y="-259" on="1"/>
        <pt x="73" y="-262" on="1"/>
        <pt x="68" y="-254" on="1"/>
        <pt x="134" y="283" on="1"/>
        <pt x="197" y="792" on="1"/>
        <pt x="251" y="797" on="1"/>
        <pt x="256" y="792" on="1"/>
      </contour>
    </TTGlyph>
    <TTGlyph name="braceleft" xMin="39" yMin="-134" xMax="318" yMax="655">
      <contour>
        <pt x="287" y="655" on="0"/>
        <pt x="315" y="648" on="1"/>
        <pt x="318" y="642" on="1"/>
        <pt x="305" y="600" on="1"/>
        <pt x="283" y="605" on="0"/>
        <pt x="269" y="605" on="1"/>
        <pt x="231" y="605" on="0"/>
        <pt x="195" y="556" on="0"/>
        <pt x="195" y="501" on="1"/>
        <pt x="195" y="483" on="0"/>
        <pt x="197" y="443" on="1"/>
        <pt x="199" y="405" on="0"/>
        <pt x="199" y="390" on="1"/>
        <pt x="199" y="296" on="0"/>
        <pt x="118" y="262" on="1"/>
        <pt x="117" y="259" on="1"/>
        <pt x="173" y="233" on="0"/>
        <pt x="173" y="170" on="1"/>
        <pt x="173" y="147" on="0"/>
        <pt x="152" y="76" on="1"/>
        <pt x="129" y="9" on="0"/>
        <pt x="129" y="-25" on="1"/>
        <pt x="129" y="-85" on="0"/>
        <pt x="184" y="-85" on="1"/>
        <pt x="198" y="-85" on="0"/>
        <pt x="221" y="-80" on="1"/>
        <pt x="224" y="-121" on="1"/>
        <pt x="219" y="-127" on="1"/>
        <pt x="197" y="-134" on="0"/>
        <pt x="168" y="-134" on="1"/>
        <pt x="68" y="-134" on="0"/>
        <pt x="68" y="-40" on="1"/>
        <pt x="68" y="0" on="0"/>
        <pt x="92" y="76" on="1"/>
        <pt x="111" y="141" on="0"/>
        <pt x="111" y="166" on="1"/>
        <pt x="111" y="228" on="0"/>
        <pt x="39" y="241" on="1"/>
        <pt x="43" y="280" on="1"/>
        <pt x="93" y="288" on="0"/>
        <pt x="138" y="343" on="0"/>
        <pt x="138" y="396" on="1"/>
        <pt x="137" y="447" on="1"/>
        <pt x="135" y="487" on="0"/>
        <pt x="135" y="502" on="1"/>
        <pt x="135" y="655" on="0"/>
        <pt x="265" y="655" on="1"/>
      </contour>
    </TTGlyph>
    <TTGlyph name="braceright" xMin="-22" yMin="-134" xMax="257" yMax="655">
      <component glyphName="braceleft" x="296" y="521" scale="-1.0" flags="0x1000"/>
    </TTGlyph>
    <TTGlyph name="bracketleft" xMin="48" yMin="-130" xMax="323" yMax="647">
      <contour>
        <pt x="318" y="605" on="1"/>
        <pt x="197" y="594" on="1"/>
        <pt x="115" y="-77" on="1"/>
        <pt x="233" y="-88" on="1"/>
        <pt x="229" y="-125" on="1"/>
        <pt x="223" y="-130" on="1"/>
        <pt x="48" y="-120" on="1"/>
        <pt x="98" y="259" on="1"/>
        <pt x="141" y="637" on="1"/>
        <pt x="319" y="647" on="1"/>
        <pt x="323" y="641" on="1"/>
      </contour>
    </TTGlyph>
    <TTGlyph name="bracketright" xMin="-28" yMin="-130" xMax="247" yMax="647">
      <component glyphName="bracketleft" x="295" y="517" scale="-1.0" flags="0x1000"/>
    </TTGlyph>
    <TTGlyph name="breve" xMin="121" yMin="526" xMax="369" yMax="669">
      <contour>
        <pt x="332" y="526" on="0"/>
        <pt x="235" y="526" on="1"/>
        <pt x="131" y="526" on="0"/>
        <pt x="121" y="640" on="1"/>
        <pt x="145" y="669" on="1"/>
        <pt x="156" y="669" on="1"/>
        <pt x="165" y="581" on="0"/>
        <pt x="238" y="581" on="1"/>
        <pt x="311" y="581" on="0"/>
        <pt x="339" y="669" on="1"/>
        <pt x="351" y="669" on="1"/>
        <pt x="369" y="640" on="1"/>
      </contour>
    </TTGlyph>
    <TTGlyph name="breve.cap" xMin="120" yMin="542" xMax="369" yMax="657">
      <contour>
        <pt x="350" y="588" on="0"/>
        <pt x="284" y="542" on="0"/>
        <pt x="241" y="542" on="1"/>
        <pt x="192" y="542" on="0"/>
        <pt x="129" y="588" on="0"/>
        <pt x="120" y="631" on="1"/>
        <pt x="145" y="657" on="1"/>
        <pt x="157" y="657" on="1"/>
        <pt x="170" y="597" on="0"/>
        <pt x="241" y="597" on="1"/>
        <pt x="309" y="597" on="0"/>
        <pt x="339" y="657" on="1"/>
        <pt x="351" y="657" on="1"/>
        <pt x="369" y="631" on="1"/>
      </contour>
    </TTGlyph>
    <TTGlyph name="breveacute" xMin="117" yMin="522" xMax="366" yMax="762">
      <contour>
        <pt x="330" y="730" on="1"/>
        <pt x="318" y="717" on="0"/>
        <pt x="259" y="658" on="1"/>
        <pt x="234" y="633" on="1"/>
        <pt x="226" y="633" on="1"/>
        <pt x="200" y="655" on="1"/>
        <pt x="246" y="708" on="0"/>
        <pt x="287" y="761" on="1"/>
        <pt x="295" y="762" on="1"/>
        <pt x="329" y="738" on="1"/>
      </contour>
      <contour>
        <pt x="347" y="568" on="0"/>
        <pt x="281" y="522" on="0"/>
        <pt x="238" y="522" on="1"/>
        <pt x="189" y="522" on="0"/>
        <pt x="126" y="568" on="0"/>
        <pt x="117" y="611" on="1"/>
        <pt x="142" y="637" on="1"/>
        <pt x="154" y="637" on="1"/>
        <pt x="167" y="577" on="0"/>
        <pt x="238" y="577" on="1"/>
        <pt x="306" y="577" on="0"/>
        <pt x="336" y="637" on="1"/>
        <pt x="348" y="637" on="1"/>
        <pt x="366" y="611" on="1"/>
      </contour>
    </TTGlyph>
    <TTGlyph name="brevegrave" xMin="118" yMin="521" xMax="367" yMax="762">
      <contour>
        <pt x="246" y="633" on="1"/>
        <pt x="221" y="658" on="1"/>
        <pt x="161" y="718" on="0"/>
        <pt x="150" y="730" on="1"/>
        <pt x="150" y="738" on="1"/>
        <pt x="186" y="762" on="1"/>
        <pt x="193" y="761" on="1"/>
        <pt x="234" y="708" on="0"/>
        <pt x="280" y="655" on="1"/>
        <pt x="254" y="633" on="1"/>
      </contour>
      <contour>
        <pt x="348" y="568" on="0"/>
        <pt x="282" y="521" on="0"/>
        <pt x="239" y="521" on="1"/>
        <pt x="190" y="521" on="0"/>
        <pt x="127" y="568" on="0"/>
        <pt x="118" y="611" on="1"/>
        <pt x="143" y="637" on="1"/>
        <pt x="155" y="637" on="1"/>
        <pt x="168" y="576" on="0"/>
        <pt x="239" y="576" on="1"/>
        <pt x="307" y="576" on="0"/>
        <pt x="337" y="637" on="1"/>
        <pt x="349" y="637" on="1"/>
        <pt x="367" y="611" on="1"/>
      </contour>
    </TTGlyph>
    <TTGlyph name="brevehookabove" xMin="117" yMin="523" xMax="366" yMax="811">
      <contour>
        <pt x="269" y="811" on="0"/>
        <pt x="304" y="779" on="0"/>
        <pt x="304" y="756" on="1"/>
        <pt x="304" y="724" on="0"/>
        <pt x="253" y="682" on="1"/>
        <pt x="272" y="648" on="1"/>
        <pt x="240" y="630" on="1"/>
        <pt x="208" y="683" on="1"/>
        <pt x="258" y="721" on="0"/>
        <pt x="258" y="748" on="1"/>
        <pt x="258" y="769" on="0"/>
        <pt x="232" y="769" on="1"/>
        <pt x="202" y="769" on="0"/>
        <pt x="174" y="745" on="1"/>
        <pt x="159" y="770" on="1"/>
        <pt x="198" y="811" on="0"/>
        <pt x="243" y="811" on="1"/>
      </contour>
      <contour>
        <pt x="347" y="569" on="0"/>
        <pt x="281" y="523" on="0"/>
        <pt x="238" y="523" on="1"/>
        <pt x="189" y="523" on="0"/>
        <pt x="126" y="569" on="0"/>
        <pt x="117" y="612" on="1"/>
        <pt x="142" y="638" on="1"/>
        <pt x="154" y="638" on="1"/>
        <pt x="167" y="577" on="0"/>
        <pt x="238" y="577" on="1"/>
        <pt x="306" y="577" on="0"/>
        <pt x="336" y="638" on="1"/>
        <pt x="348" y="638" on="1"/>
        <pt x="366" y="612" on="1"/>
      </contour>
    </TTGlyph>
    <TTGlyph name="brevetilde" xMin="109" yMin="522" xMax="402" yMax="781">
      <contour>
        <pt x="402" y="750" on="1"/>
        <pt x="346" y="684" on="1"/>
        <pt x="337" y="681" on="1"/>
        <pt x="322" y="683" on="0"/>
        <pt x="261" y="700" on="1"/>
        <pt x="206" y="717" on="0"/>
        <pt x="191" y="717" on="1"/>
        <pt x="183" y="717" on="0"/>
        <pt x="167" y="703" on="0"/>
        <pt x="146" y="680" on="0"/>
        <pt x="139" y="673" on="1"/>
        <pt x="131" y="673" on="1"/>
        <pt x="109" y="696" on="1"/>
        <pt x="109" y="704" on="1"/>
        <pt x="166" y="768" on="1"/>
        <pt x="175" y="771" on="1"/>
        <pt x="190" y="769" on="0"/>
        <pt x="251" y="752" on="1"/>
        <pt x="309" y="736" on="0"/>
        <pt x="320" y="736" on="1"/>
        <pt x="332" y="736" on="0"/>
        <pt x="358" y="765" on="1"/>
        <pt x="373" y="781" on="1"/>
        <pt x="381" y="781" on="1"/>
        <pt x="402" y="757" on="1"/>
      </contour>
      <contour>
        <pt x="335" y="568" on="0"/>
        <pt x="270" y="522" on="0"/>
        <pt x="228" y="522" on="1"/>
        <pt x="180" y="522" on="0"/>
        <pt x="119" y="568" on="0"/>
        <pt x="110" y="610" on="1"/>
        <pt x="134" y="635" on="1"/>
        <pt x="146" y="635" on="1"/>
        <pt x="158" y="576" on="0"/>
        <pt x="228" y="576" on="1"/>
        <pt x="296" y="576" on="0"/>
        <pt x="324" y="635" on="1"/>
        <pt x="336" y="635" on="1"/>
        <pt x="354" y="610" on="1"/>
      </contour>
    </TTGlyph>
    <TTGlyph name="brokenbar" xMin="68" yMin="-262" xMax="256" yMax="797">
      <contour>
        <pt x="204" y="372" on="1"/>
        <pt x="151" y="366" on="1"/>
        <pt x="145" y="372" on="1"/>
        <pt x="197" y="792" on="1"/>
        <pt x="251" y="797" on="1"/>
        <pt x="256" y="792" on="1"/>
      </contour>
      <contour>
        <pt x="126" y="-259" on="1"/>
        <pt x="74" y="-262" on="1"/>
        <pt x="68" y="-254" on="1"/>
        <pt x="119" y="154" on="1"/>
        <pt x="171" y="160" on="1"/>
        <pt x="177" y="152" on="1"/>
      </contour>
    </TTGlyph>
    <TTGlyph name="bullet" xMin="81" yMin="208" xMax="179" yMax="308">
      <component glyphName="period" x="28" y="214" scale="1.11499023438" flags="0x1000"/>
    </TTGlyph>
    <TTGlyph name="bulletoperator" xMin="110" yMin="209" xMax="208" yMax="309">
      <component glyphName="period" x="57" y="215" scale="1.11499023438" flags="0x1000"/>
    </TTGlyph>
    <TTGlyph name="c" xMin="45" yMin="-6" xMax="443" yMax="502">
      <contour>
        <pt x="390" y="502" on="0"/>
        <pt x="443" y="467" on="1"/>
        <pt x="422" y="402" on="1"/>
        <pt x="412" y="399" on="1"/>
        <pt x="369" y="444" on="0"/>
        <pt x="295" y="444" on="1"/>
        <pt x="210" y="444" on="0"/>
        <pt x="119" y="324" on="0"/>
        <pt x="119" y="211" on="1"/>
        <pt x="119" y="135" on="0"/>
        <pt x="184" y="54" on="0"/>
        <pt x="245" y="54" on="1"/>
        <pt x="317" y="54" on="0"/>
        <pt x="383" y="100" on="1"/>
        <pt x="392" y="97" on="1"/>
        <pt x="378" y="32" on="1"/>
        <pt x="308" y="-6" on="0"/>
        <pt x="239" y="-6" on="1"/>
        <pt x="147" y="-6" on="0"/>
        <pt x="45" y="104" on="0"/>
        <pt x="45" y="203" on="1"/>
        <pt x="45" y="345" on="0"/>
        <pt x="184" y="502" on="0"/>
        <pt x="308" y="502" on="1"/>
      </contour>
    </TTGlyph>
    <TTGlyph name="c.sups" xMin="64" yMin="333" xMax="277" yMax="646">
      <contour>
        <pt x="277" y="624" on="1"/>
        <pt x="261" y="581" on="1"/>
        <pt x="247" y="579" on="1"/>
        <pt x="224" y="600" on="0"/>
        <pt x="207" y="600" on="1"/>
        <pt x="165" y="600" on="0"/>
        <pt x="121" y="524" on="0"/>
        <pt x="121" y="454" on="1"/>
        <pt x="121" y="416" on="0"/>
        <pt x="140" y="383" on="0"/>
        <pt x="160" y="383" on="1"/>
        <pt x="195" y="383" on="0"/>
        <pt x="226" y="438" on="1"/>
        <pt x="234" y="438" on="1"/>
        <pt x="254" y="412" on="1"/>
        <pt x="233" y="376" on="0"/>
        <pt x="187" y="340" on="0"/>
        <pt x="155" y="333" on="1"/>
        <pt x="146" y="333" on="1"/>
        <pt x="103" y="338" on="0"/>
        <pt x="64" y="388" on="0"/>
        <pt x="64" y="444" on="1"/>
        <pt x="64" y="533" on="0"/>
        <pt x="145" y="646" on="0"/>
        <pt x="227" y="646" on="1"/>
        <pt x="274" y="631" on="1"/>
      </contour>
    </TTGlyph>
    <TTGlyph name="cacute" xMin="45" yMin="-6" xMax="443" yMax="735">
      <component glyphName="c" x="0" y="0" flags="0x1000"/>
      <component glyphName="acute" x="55" y="40" flags="0x1000"/>
    </TTGlyph>
    <TTGlyph name="caron" xMin="116" yMin="522" xMax="378" yMax="686">
      <contour>
        <pt x="334" y="614" on="0"/>
        <pt x="272" y="550" on="1"/>
        <pt x="245" y="522" on="1"/>
        <pt x="222" y="522" on="1"/>
        <pt x="173" y="594" on="0"/>
        <pt x="116" y="655" on="1"/>
        <pt x="140" y="686" on="1"/>
        <pt x="149" y="686" on="1"/>
        <pt x="202" y="628" on="0"/>
        <pt x="237" y="580" on="1"/>
        <pt x="276" y="619" on="0"/>
        <pt x="352" y="686" on="1"/>
        <pt x="362" y="686" on="1"/>
        <pt x="378" y="655" on="1"/>
      </contour>
    </TTGlyph>
    <TTGlyph name="caron.alt" xMin="196" yMin="504" xMax="282" yMax="686">
      <contour>
        <pt x="239" y="510" on="1"/>
        <pt x="202" y="504" on="1"/>
        <pt x="196" y="510" on="1"/>
        <pt x="223" y="682" on="1"/>
        <pt x="277" y="686" on="1"/>
        <pt x="282" y="680" on="1"/>
      </contour>
    </TTGlyph>
    <TTGlyph name="caron.cap" xMin="118" yMin="542" xMax="370" yMax="664">
      <contour>
        <pt x="306" y="592" on="0"/>
        <pt x="246" y="542" on="1"/>
        <pt x="224" y="542" on="1"/>
        <pt x="168" y="593" on="0"/>
        <pt x="118" y="632" on="1"/>
        <pt x="137" y="664" on="1"/>
        <pt x="146" y="664" on="1"/>
        <pt x="177" y="642" on="1"/>
        <pt x="183" y="638" on="0"/>
        <pt x="239" y="598" on="1"/>
        <pt x="278" y="623" on="0"/>
        <pt x="349" y="664" on="1"/>
        <pt x="358" y="664" on="1"/>
        <pt x="370" y="632" on="1"/>
      </contour>
    </TTGlyph>
    <TTGlyph name="ccaron" xMin="45" yMin="-6" xMax="443" yMax="726">
      <component glyphName="c" x="0" y="0" flags="0x1000"/>
      <component glyphName="caron" x="47" y="40" flags="0x1000"/>
    </TTGlyph>
    <TTGlyph name="ccedilla" xMin="45" yMin="-192" xMax="443" yMax="502">
      <contour>
        <pt x="390" y="502" on="0"/>
        <pt x="443" y="467" on="1"/>
        <pt x="421" y="402" on="1"/>
        <pt x="412" y="399" on="1"/>
        <pt x="367" y="444" on="0"/>
        <pt x="294" y="444" on="1"/>
        <pt x="210" y="444" on="0"/>
        <pt x="119" y="324" on="0"/>
        <pt x="119" y="211" on="1"/>
        <pt x="119" y="135" on="0"/>
        <pt x="184" y="54" on="0"/>
        <pt x="245" y="54" on="1"/>
        <pt x="317" y="54" on="0"/>
        <pt x="383" y="100" on="1"/>
        <pt x="391" y="97" on="1"/>
        <pt x="377" y="32" on="1"/>
        <pt x="322" y="1" on="0"/>
        <pt x="265" y="-5" on="1"/>
        <pt x="251" y="-52" on="1"/>
        <pt x="284" y="-72" on="1"/>
        <pt x="322" y="-92" on="0"/>
        <pt x="322" y="-127" on="1"/>
        <pt x="322" y="-156" on="0"/>
        <pt x="278" y="-192" on="0"/>
        <pt x="243" y="-192" on="1"/>
        <pt x="200" y="-192" on="0"/>
        <pt x="171" y="-161" on="1"/>
        <pt x="179" y="-123" on="1"/>
        <pt x="184" y="-121" on="1"/>
        <pt x="210" y="-152" on="0"/>
        <pt x="239" y="-152" on="1"/>
        <pt x="272" y="-152" on="0"/>
        <pt x="272" y="-125" on="1"/>
        <pt x="272" y="-110" on="0"/>
        <pt x="250" y="-100" on="1"/>
        <pt x="203" y="-71" on="1"/>
        <pt x="220" y="-5" on="1"/>
        <pt x="136" y="0" on="0"/>
        <pt x="45" y="109" on="0"/>
        <pt x="45" y="203" on="1"/>
        <pt x="45" y="345" on="0"/>
        <pt x="184" y="502" on="0"/>
        <pt x="307" y="502" on="1"/>
      </contour>
    </TTGlyph>
    <TTGlyph name="ccircumflex" xMin="45" yMin="-6" xMax="443" yMax="725">
      <component glyphName="c" x="0" y="0" flags="0x1000"/>
      <component glyphName="circumflex" x="59" y="40" flags="0x1000"/>
    </TTGlyph>
    <TTGlyph name="cdotaccent" xMin="45" yMin="-6" xMax="443" yMax="701">
      <component glyphName="c" x="0" y="0" flags="0x1000"/>
      <component glyphName="dotaccent" x="53" y="40" flags="0x1000"/>
    </TTGlyph>
    <TTGlyph name="cedilla" xMin="73" yMin="-192" xMax="224" yMax="19">
      <contour>
        <pt x="186" y="-72" on="1"/>
        <pt x="224" y="-92" on="0"/>
        <pt x="224" y="-127" on="1"/>
        <pt x="224" y="-156" on="0"/>
        <pt x="180" y="-192" on="0"/>
        <pt x="145" y="-192" on="1"/>
        <pt x="102" y="-192" on="0"/>
        <pt x="73" y="-161" on="1"/>
        <pt x="81" y="-123" on="1"/>
        <pt x="86" y="-121" on="1"/>
        <pt x="112" y="-152" on="0"/>
        <pt x="141" y="-152" on="1"/>
        <pt x="174" y="-152" on="0"/>
        <pt x="174" y="-125" on="1"/>
        <pt x="174" y="-110" on="0"/>
        <pt x="152" y="-100" on="1"/>
        <pt x="105" y="-71" on="1"/>
        <pt x="129" y="19" on="1"/>
        <pt x="174" y="19" on="1"/>
        <pt x="153" y="-52" on="1"/>
      </contour>
    </TTGlyph>
    <TTGlyph name="cent" xMin="42" yMin="-119" xMax="362" yMax="652">
      <contour>
        <pt x="345" y="427" on="1"/>
        <pt x="331" y="424" on="1"/>
        <pt x="298" y="453" on="0"/>
        <pt x="266" y="456" on="1"/>
        <pt x="205" y="95" on="1"/>
        <pt x="253" y="114" on="0"/>
        <pt x="291" y="183" on="1"/>
        <pt x="302" y="182" on="1"/>
        <pt x="322" y="154" on="1"/>
        <pt x="269" y="70" on="0"/>
        <pt x="197" y="45" on="1"/>
        <pt x="169" y="-119" on="1"/>
        <pt x="132" y="-119" on="1"/>
        <pt x="127" y="-112" on="1"/>
        <pt x="151" y="38" on="1"/>
        <pt x="96" y="48" on="0"/>
        <pt x="42" y="119" on="0"/>
        <pt x="42" y="203" on="1"/>
        <pt x="42" y="318" on="0"/>
        <pt x="135" y="478" on="0"/>
        <pt x="227" y="499" on="1"/>
        <pt x="253" y="652" on="1"/>
        <pt x="290" y="652" on="1"/>
        <pt x="297" y="644" on="1"/>
        <pt x="274" y="505" on="1"/>
        <pt x="288" y="505" on="1"/>
        <pt x="356" y="485" on="1"/>
        <pt x="362" y="475" on="1"/>
      </contour>
      <contour>
        <pt x="101" y="99" on="0"/>
        <pt x="159" y="90" on="1"/>
        <pt x="219" y="451" on="1"/>
        <pt x="163" y="434" on="0"/>
        <pt x="101" y="309" on="0"/>
        <pt x="101" y="213" on="1"/>
      </contour>
    </TTGlyph>
    <TTGlyph name="circle1" xMin="-12" yMin="-12" xMax="464" yMax="464">
      <contour>
        <pt x="290" y="464" on="0"/>
        <pt x="400" y="400" on="0"/>
        <pt x="464" y="290" on="0"/>
        <pt x="464" y="226" on="1"/>
        <pt x="464" y="162" on="0"/>
        <pt x="400" y="52" on="0"/>
        <pt x="290" y="-12" on="0"/>
        <pt x="226" y="-12" on="1"/>
        <pt x="162" y="-12" on="0"/>
        <pt x="52" y="52" on="0"/>
        <pt x="-12" y="162" on="0"/>
        <pt x="-12" y="226" on="1"/>
        <pt x="-12" y="290" on="0"/>
        <pt x="52" y="400" on="0"/>
        <pt x="162" y="464" on="0"/>
        <pt x="226" y="464" on="1"/>
      </contour>
    </TTGlyph>
    <TTGlyph name="circle2" xMin="-13" yMin="-14" xMax="650" yMax="649">
      <contour>
        <pt x="408" y="649" on="0"/>
        <pt x="561" y="560" on="0"/>
        <pt x="650" y="407" on="0"/>
        <pt x="650" y="317" on="1"/>
        <pt x="650" y="227" on="0"/>
        <pt x="561" y="75" on="0"/>
        <pt x="408" y="-14" on="0"/>
        <pt x="318" y="-14" on="1"/>
        <pt x="228" y="-14" on="0"/>
        <pt x="76" y="75" on="0"/>
        <pt x="-13" y="227" on="0"/>
        <pt x="-13" y="317" on="1"/>
        <pt x="-13" y="407" on="0"/>
        <pt x="76" y="560" on="0"/>
        <pt x="228" y="649" on="0"/>
        <pt x="318" y="649" on="1"/>
      </contour>
    </TTGlyph>
    <TTGlyph name="circumflex" xMin="103" yMin="521" xMax="365" yMax="685">
      <contour>
        <pt x="159" y="602" on="0"/>
        <pt x="239" y="685" on="1"/>
        <pt x="262" y="685" on="1"/>
        <pt x="309" y="616" on="0"/>
        <pt x="365" y="551" on="1"/>
        <pt x="341" y="521" on="1"/>
        <pt x="333" y="521" on="1"/>
        <pt x="286" y="569" on="0"/>
        <pt x="244" y="626" on="1"/>
        <pt x="199" y="581" on="0"/>
        <pt x="129" y="521" on="1"/>
        <pt x="120" y="521" on="1"/>
        <pt x="103" y="551" on="1"/>
      </contour>
    </TTGlyph>
    <TTGlyph name="circumflex.cap" xMin="112" yMin="550" xMax="365" yMax="672">
      <contour>
        <pt x="168" y="617" on="0"/>
        <pt x="237" y="672" on="1"/>
        <pt x="259" y="672" on="1"/>
        <pt x="300" y="632" on="0"/>
        <pt x="365" y="583" on="1"/>
        <pt x="345" y="550" on="1"/>
        <pt x="337" y="550" on="1"/>
        <pt x="294" y="579" on="0"/>
        <pt x="244" y="617" on="1"/>
        <pt x="180" y="577" on="0"/>
        <pt x="133" y="550" on="1"/>
        <pt x="124" y="550" on="1"/>
        <pt x="112" y="583" on="1"/>
      </contour>
    </TTGlyph>
    <TTGlyph name="circumflexacute" xMin="105" yMin="531" xMax="400" yMax="761">
      <contour>
        <pt x="400" y="735" on="1"/>
        <pt x="331" y="648" on="1"/>
        <pt x="313" y="636" on="1"/>
        <pt x="287" y="656" on="1"/>
        <pt x="344" y="746" on="1"/>
        <pt x="362" y="761" on="1"/>
        <pt x="398" y="743" on="1"/>
      </contour>
      <contour>
        <pt x="292" y="615" on="0"/>
        <pt x="357" y="564" on="1"/>
        <pt x="338" y="531" on="1"/>
        <pt x="329" y="531" on="1"/>
        <pt x="292" y="556" on="0"/>
        <pt x="236" y="598" on="1"/>
        <pt x="181" y="563" on="0"/>
        <pt x="126" y="531" on="1"/>
        <pt x="117" y="531" on="1"/>
        <pt x="105" y="564" on="1"/>
        <pt x="168" y="603" on="0"/>
        <pt x="229" y="653" on="1"/>
        <pt x="251" y="653" on="1"/>
      </contour>
    </TTGlyph>
    <TTGlyph name="circumflexgrave" xMin="110" yMin="530" xMax="370" yMax="760">
      <contour>
        <pt x="370" y="656" on="1"/>
        <pt x="344" y="636" on="1"/>
        <pt x="327" y="648" on="1"/>
        <pt x="257" y="734" on="1"/>
        <pt x="259" y="743" on="1"/>
        <pt x="296" y="760" on="1"/>
        <pt x="313" y="746" on="1"/>
      </contour>
      <contour>
        <pt x="297" y="612" on="0"/>
        <pt x="362" y="563" on="1"/>
        <pt x="342" y="530" on="1"/>
        <pt x="334" y="530" on="1"/>
        <pt x="290" y="561" on="0"/>
        <pt x="241" y="597" on="1"/>
        <pt x="218" y="582" on="0"/>
        <pt x="170" y="554" on="1"/>
        <pt x="130" y="530" on="1"/>
        <pt x="121" y="530" on="1"/>
        <pt x="110" y="563" on="1"/>
        <pt x="173" y="602" on="0"/>
        <pt x="234" y="652" on="1"/>
        <pt x="256" y="652" on="1"/>
      </contour>
    </TTGlyph>
    <TTGlyph name="circumflexhookabove" xMin="108" yMin="531" xMax="387" yMax="799">
      <contour>
        <pt x="353" y="799" on="0"/>
        <pt x="387" y="769" on="0"/>
        <pt x="387" y="746" on="1"/>
        <pt x="387" y="717" on="0"/>
        <pt x="339" y="676" on="1"/>
        <pt x="357" y="644" on="1"/>
        <pt x="325" y="627" on="1"/>
        <pt x="296" y="677" on="1"/>
        <pt x="344" y="714" on="0"/>
        <pt x="344" y="739" on="1"/>
        <pt x="344" y="759" on="0"/>
        <pt x="318" y="759" on="1"/>
        <pt x="290" y="759" on="0"/>
        <pt x="264" y="736" on="1"/>
        <pt x="248" y="760" on="1"/>
        <pt x="287" y="799" on="0"/>
        <pt x="328" y="799" on="1"/>
      </contour>
      <contour>
        <pt x="295" y="613" on="0"/>
        <pt x="360" y="564" on="1"/>
        <pt x="340" y="531" on="1"/>
        <pt x="332" y="531" on="1"/>
        <pt x="305" y="549" on="0"/>
        <pt x="239" y="598" on="1"/>
        <pt x="193" y="569" on="0"/>
        <pt x="128" y="531" on="1"/>
        <pt x="119" y="531" on="1"/>
        <pt x="108" y="564" on="1"/>
        <pt x="171" y="603" on="0"/>
        <pt x="232" y="653" on="1"/>
        <pt x="254" y="653" on="1"/>
      </contour>
    </TTGlyph>
    <TTGlyph name="circumflextilde" xMin="99" yMin="532" xMax="402" yMax="781">
      <contour>
        <pt x="402" y="750" on="1"/>
        <pt x="345" y="684" on="1"/>
        <pt x="337" y="681" on="1"/>
        <pt x="321" y="683" on="0"/>
        <pt x="260" y="700" on="1"/>
        <pt x="203" y="717" on="0"/>
        <pt x="190" y="717" on="1"/>
        <pt x="182" y="717" on="0"/>
        <pt x="166" y="703" on="0"/>
        <pt x="145" y="680" on="0"/>
        <pt x="138" y="673" on="1"/>
        <pt x="131" y="673" on="1"/>
        <pt x="108" y="696" on="1"/>
        <pt x="108" y="704" on="1"/>
        <pt x="165" y="768" on="1"/>
        <pt x="174" y="771" on="1"/>
        <pt x="189" y="769" on="0"/>
        <pt x="250" y="752" on="1"/>
        <pt x="310" y="736" on="0"/>
        <pt x="320" y="736" on="1"/>
        <pt x="328" y="736" on="0"/>
        <pt x="344" y="750" on="0"/>
        <pt x="366" y="774" on="0"/>
        <pt x="373" y="781" on="1"/>
        <pt x="380" y="781" on="1"/>
        <pt x="402" y="757" on="1"/>
      </contour>
      <contour>
        <pt x="294" y="608" on="0"/>
        <pt x="352" y="564" on="1"/>
        <pt x="332" y="532" on="1"/>
        <pt x="323" y="532" on="1"/>
        <pt x="266" y="571" on="0"/>
        <pt x="231" y="598" on="1"/>
        <pt x="190" y="573" on="0"/>
        <pt x="120" y="532" on="1"/>
        <pt x="111" y="532" on="1"/>
        <pt x="99" y="564" on="1"/>
        <pt x="149" y="595" on="0"/>
        <pt x="224" y="654" on="1"/>
        <pt x="245" y="654" on="1"/>
      </contour>
    </TTGlyph>
    <TTGlyph name="colon" xMin="48" yMin="-5" xMax="167" yMax="354">
      <component glyphName="period" x="0" y="0" flags="0x1000"/>
      <component glyphName="period" x="32" y="270" flags="0x1000"/>
    </TTGlyph>
    <TTGlyph name="comma" xMin="22" yMin="-113" xMax="139" yMax="84">
      <contour>
        <pt x="139" y="58" on="0"/>
        <pt x="139" y="18" on="1"/>
        <pt x="139" y="-46" on="0"/>
        <pt x="47" y="-113" on="1"/>
        <pt x="22" y="-89" on="1"/>
        <pt x="22" y="-83" on="1"/>
        <pt x="77" y="-39" on="0"/>
        <pt x="77" y="5" on="1"/>
        <pt x="77" y="31" on="0"/>
        <pt x="46" y="51" on="1"/>
        <pt x="46" y="59" on="1"/>
        <pt x="70" y="75" on="0"/>
        <pt x="98" y="84" on="1"/>
      </contour>
    </TTGlyph>
    <TTGlyph name="commaaccentcomb" xMin="90" yMin="-244" xMax="200" yMax="-60">
      <contour>
        <pt x="200" y="-85" on="0"/>
        <pt x="200" y="-122" on="1"/>
        <pt x="200" y="-181" on="0"/>
        <pt x="115" y="-244" on="1"/>
        <pt x="90" y="-222" on="1"/>
        <pt x="91" y="-216" on="1"/>
        <pt x="142" y="-174" on="0"/>
        <pt x="142" y="-134" on="1"/>
        <pt x="142" y="-111" on="0"/>
        <pt x="113" y="-90" on="1"/>
        <pt x="113" y="-84" on="1"/>
        <pt x="137" y="-68" on="0"/>
        <pt x="161" y="-60" on="1"/>
      </contour>
    </TTGlyph>
    <TTGlyph name="copyright" xMin="57" yMin="-12" xMax="648" yMax="598">
      <contour>
        <pt x="441" y="598" on="0"/>
        <pt x="574" y="522" on="0"/>
        <pt x="648" y="384" on="0"/>
        <pt x="648" y="293" on="1"/>
        <pt x="648" y="202" on="0"/>
        <pt x="574" y="64" on="0"/>
        <pt x="441" y="-12" on="0"/>
        <pt x="353" y="-12" on="1"/>
        <pt x="265" y="-12" on="0"/>
        <pt x="131" y="64" on="0"/>
        <pt x="57" y="202" on="0"/>
        <pt x="57" y="293" on="1"/>
        <pt x="57" y="384" on="0"/>
        <pt x="131" y="522" on="0"/>
        <pt x="265" y="598" on="0"/>
        <pt x="353" y="598" on="1"/>
      </contour>
      <contour>
        <pt x="275" y="565" on="0"/>
        <pt x="156" y="497" on="0"/>
        <pt x="90" y="374" on="0"/>
        <pt x="90" y="293" on="1"/>
        <pt x="90" y="212" on="0"/>
        <pt x="156" y="89" on="0"/>
        <pt x="275" y="21" on="0"/>
        <pt x="353" y="21" on="1"/>
        <pt x="431" y="21" on="0"/>
        <pt x="550" y="89" on="0"/>
        <pt x="615" y="212" on="0"/>
        <pt x="615" y="293" on="1"/>
        <pt x="615" y="374" on="0"/>
        <pt x="550" y="497" on="0"/>
        <pt x="431" y="565" on="0"/>
        <pt x="353" y="565" on="1"/>
      </contour>
      <contour>
        <pt x="415" y="465" on="0"/>
        <pt x="461" y="442" on="1"/>
        <pt x="450" y="399" on="1"/>
        <pt x="445" y="397" on="1"/>
        <pt x="411" y="420" on="0"/>
        <pt x="366" y="420" on="1"/>
        <pt x="261" y="420" on="0"/>
        <pt x="261" y="298" on="1"/>
        <pt x="261" y="171" on="0"/>
        <pt x="365" y="171" on="1"/>
        <pt x="411" y="171" on="0"/>
        <pt x="451" y="195" on="1"/>
        <pt x="457" y="193" on="1"/>
        <pt x="453" y="149" on="1"/>
        <pt x="405" y="126" on="0"/>
        <pt x="362" y="126" on="1"/>
        <pt x="285" y="126" on="0"/>
        <pt x="207" y="212" on="0"/>
        <pt x="207" y="294" on="1"/>
        <pt x="207" y="376" on="0"/>
        <pt x="290" y="465" on="0"/>
        <pt x="368" y="465" on="1"/>
      </contour>
    </TTGlyph>
    <TTGlyph name="currency" xMin="31" yMin="174" xMax="435" yMax="543">
      <contour>
        <pt x="433" y="502" on="1"/>
        <pt x="359" y="439" on="1"/>
        <pt x="377" y="412" on="0"/>
        <pt x="377" y="372" on="1"/>
        <pt x="377" y="321" on="0"/>
        <pt x="340" y="281" on="1"/>
        <pt x="400" y="218" on="1"/>
        <pt x="400" y="210" on="1"/>
        <pt x="363" y="175" on="1"/>
        <pt x="355" y="176" on="1"/>
        <pt x="299" y="243" on="1"/>
        <pt x="259" y="215" on="0"/>
        <pt x="216" y="215" on="1"/>
        <pt x="173" y="215" on="0"/>
        <pt x="141" y="242" on="1"/>
        <pt x="70" y="174" on="1"/>
        <pt x="62" y="175" on="1"/>
        <pt x="31" y="207" on="1"/>
        <pt x="34" y="216" on="1"/>
        <pt x="108" y="278" on="1"/>
        <pt x="89" y="304" on="0"/>
        <pt x="89" y="346" on="1"/>
        <pt x="89" y="393" on="0"/>
        <pt x="127" y="438" on="1"/>
        <pt x="67" y="500" on="1"/>
        <pt x="68" y="509" on="1"/>
        <pt x="104" y="542" on="1"/>
        <pt x="112" y="542" on="1"/>
        <pt x="168" y="474" on="1"/>
        <pt x="204" y="501" on="0"/>
        <pt x="251" y="501" on="1"/>
        <pt x="295" y="501" on="0"/>
        <pt x="325" y="476" on="1"/>
        <pt x="396" y="543" on="1"/>
        <pt x="405" y="543" on="1"/>
        <pt x="435" y="511" on="1"/>
      </contour>
      <contour>
        <pt x="201" y="457" on="0"/>
        <pt x="134" y="393" on="0"/>
        <pt x="134" y="348" on="1"/>
        <pt x="134" y="310" on="0"/>
        <pt x="183" y="260" on="0"/>
        <pt x="221" y="260" on="1"/>
        <pt x="267" y="260" on="0"/>
        <pt x="333" y="324" on="0"/>
        <pt x="333" y="369" on="1"/>
        <pt x="333" y="407" on="0"/>
        <pt x="284" y="457" on="0"/>
        <pt x="246" y="457" on="1"/>
      </contour>
    </TTGlyph>
    <TTGlyph name="d" xMin="61" yMin="-5" xMax="510" yMax="502">
      <contour>
        <pt x="403" y="502" on="0"/>
        <pt x="510" y="398" on="0"/>
        <pt x="510" y="304" on="1"/>
        <pt x="510" y="159" on="0"/>
        <pt x="365" y="-5" on="0"/>
        <pt x="233" y="-5" on="1"/>
        <pt x="136" y="-5" on="0"/>
        <pt x="61" y="0" on="1"/>
        <pt x="82" y="150" on="1"/>
        <pt x="123" y="498" on="1"/>
        <pt x="306" y="502" on="1"/>
      </contour>
      <contour>
        <pt x="337" y="53" on="0"/>
        <pt x="437" y="175" on="0"/>
        <pt x="437" y="290" on="1"/>
        <pt x="437" y="441" on="0"/>
        <pt x="297" y="441" on="1"/>
        <pt x="186" y="438" on="1"/>
        <pt x="147" y="156" on="1"/>
        <pt x="137" y="58" on="1"/>
        <pt x="190" y="53" on="0"/>
        <pt x="246" y="53" on="1"/>
      </contour>
    </TTGlyph>
    <TTGlyph name="d.sups" xMin="61" yMin="333" xMax="336" yMax="810">
      <contour>
        <pt x="284" y="410" on="1"/>
        <pt x="279" y="338" on="1"/>
        <pt x="217" y="334" on="1"/>
        <pt x="235" y="470" on="1"/>
        <pt x="230" y="470" on="1"/>
        <pt x="184" y="383" on="0"/>
        <pt x="131" y="333" on="1"/>
        <pt x="121" y="333" on="1"/>
        <pt x="87" y="345" on="0"/>
        <pt x="61" y="391" on="0"/>
        <pt x="61" y="431" on="1"/>
        <pt x="61" y="510" on="0"/>
        <pt x="143" y="631" on="0"/>
        <pt x="218" y="644" on="1"/>
        <pt x="222" y="644" on="1"/>
        <pt x="258" y="640" on="1"/>
        <pt x="271" y="738" on="1"/>
        <pt x="274" y="805" on="1"/>
        <pt x="336" y="810" on="1"/>
      </contour>
      <contour>
        <pt x="147" y="389" on="0"/>
        <pt x="211" y="478" on="0"/>
        <pt x="245" y="547" on="1"/>
        <pt x="252" y="593" on="1"/>
        <pt x="210" y="600" on="1"/>
        <pt x="167" y="600" on="0"/>
        <pt x="117" y="516" on="0"/>
        <pt x="117" y="453" on="1"/>
        <pt x="117" y="421" on="0"/>
        <pt x="131" y="389" on="0"/>
        <pt x="138" y="389" on="1"/>
      </contour>
    </TTGlyph>
    <TTGlyph name="dagger" xMin="58" yMin="-94" xMax="460" yMax="590">
      <contour>
        <pt x="281" y="350" on="1"/>
        <pt x="273" y="287" on="1"/>
        <pt x="227" y="-91" on="1"/>
        <pt x="178" y="-94" on="1"/>
        <pt x="174" y="-87" on="1"/>
        <pt x="220" y="283" on="1"/>
        <pt x="228" y="350" on="1"/>
        <pt x="63" y="350" on="1"/>
        <pt x="58" y="356" on="1"/>
        <pt x="69" y="402" on="1"/>
        <pt x="235" y="402" on="1"/>
        <pt x="257" y="585" on="1"/>
        <pt x="307" y="590" on="1"/>
        <pt x="311" y="585" on="1"/>
        <pt x="288" y="402" on="1"/>
        <pt x="454" y="402" on="1"/>
        <pt x="460" y="397" on="1"/>
        <pt x="449" y="350" on="1"/>
      </contour>
    </TTGlyph>
    <TTGlyph name="daggerdbl" xMin="25" yMin="-94" xMax="460" yMax="590">
      <contour>
        <pt x="254" y="138" on="1"/>
        <pt x="421" y="138" on="1"/>
        <pt x="427" y="132" on="1"/>
        <pt x="417" y="85" on="1"/>
        <pt x="248" y="85" on="1"/>
        <pt x="226" y="-91" on="1"/>
        <pt x="178" y="-94" on="1"/>
        <pt x="174" y="-87" on="1"/>
        <pt x="195" y="85" on="1"/>
        <pt x="30" y="85" on="1"/>
        <pt x="25" y="91" on="1"/>
        <pt x="36" y="138" on="1"/>
        <pt x="201" y="138" on="1"/>
        <pt x="219" y="283" on="1"/>
        <pt x="228" y="355" on="1"/>
        <pt x="63" y="355" on="1"/>
        <pt x="58" y="361" on="1"/>
        <pt x="69" y="407" on="1"/>
        <pt x="234" y="407" on="1"/>
        <pt x="256" y="585" on="1"/>
        <pt x="307" y="590" on="1"/>
        <pt x="310" y="585" on="1"/>
        <pt x="288" y="407" on="1"/>
        <pt x="454" y="407" on="1"/>
        <pt x="460" y="402" on="1"/>
        <pt x="450" y="355" on="1"/>
        <pt x="281" y="355" on="1"/>
        <pt x="273" y="287" on="1"/>
      </contour>
    </TTGlyph>
    <TTGlyph name="dcaron" xMin="61" yMin="-5" xMax="510" yMax="726">
      <component glyphName="d" x="0" y="0" flags="0x1000"/>
      <component glyphName="caron" x="61" y="40" flags="0x1000"/>
    </TTGlyph>
    <TTGlyph name="dcroat" xMin="61" yMin="-5" xMax="510" yMax="672">
      <component glyphName="d" x="0" y="0" flags="0x1000"/>
      <component glyphName="macron" x="67" y="40" flags="0x1000"/>
    </TTGlyph>
    <TTGlyph name="degree" xMin="56" yMin="399" xMax="309" yMax="647">
      <contour>
        <pt x="246" y="647" on="0"/>
        <pt x="309" y="583" on="0"/>
        <pt x="309" y="536" on="1"/>
        <pt x="309" y="499" on="0"/>
        <pt x="270" y="436" on="0"/>
        <pt x="205" y="399" on="0"/>
        <pt x="168" y="399" on="1"/>
        <pt x="120" y="399" on="0"/>
        <pt x="56" y="463" on="0"/>
        <pt x="56" y="510" on="1"/>
        <pt x="56" y="547" on="0"/>
        <pt x="95" y="610" on="0"/>
        <pt x="161" y="647" on="0"/>
        <pt x="198" y="647" on="1"/>
      </contour>
      <contour>
        <pt x="154" y="609" on="0"/>
        <pt x="94" y="553" on="0"/>
        <pt x="94" y="515" on="1"/>
        <pt x="94" y="482" on="0"/>
        <pt x="139" y="436" on="0"/>
        <pt x="172" y="436" on="1"/>
        <pt x="211" y="436" on="0"/>
        <pt x="271" y="493" on="0"/>
        <pt x="271" y="531" on="1"/>
        <pt x="271" y="564" on="0"/>
        <pt x="226" y="609" on="0"/>
        <pt x="193" y="609" on="1"/>
      </contour>
    </TTGlyph>
    <TTGlyph name="dieresis" xMin="120" yMin="563" xMax="362" yMax="649">
      <contour>
        <pt x="181" y="649" on="0"/>
        <pt x="203" y="626" on="0"/>
        <pt x="203" y="608" on="1"/>
        <pt x="203" y="588" on="0"/>
        <pt x="180" y="563" on="0"/>
        <pt x="161" y="563" on="1"/>
        <pt x="142" y="563" on="0"/>
        <pt x="120" y="585" on="0"/>
        <pt x="120" y="605" on="1"/>
        <pt x="120" y="625" on="0"/>
        <pt x="143" y="649" on="0"/>
        <pt x="163" y="649" on="1"/>
      </contour>
      <contour>
        <pt x="341" y="648" on="0"/>
        <pt x="362" y="626" on="0"/>
        <pt x="362" y="607" on="1"/>
        <pt x="362" y="587" on="0"/>
        <pt x="339" y="563" on="0"/>
        <pt x="320" y="563" on="1"/>
        <pt x="279" y="563" on="0"/>
        <pt x="279" y="604" on="1"/>
        <pt x="279" y="624" on="0"/>
        <pt x="302" y="648" on="0"/>
        <pt x="323" y="648" on="1"/>
      </contour>
    </TTGlyph>
    <TTGlyph name="dieresis.i" xMin="137" yMin="563" xMax="345" yMax="648">
      <contour>
        <pt x="199" y="648" on="0"/>
        <pt x="220" y="626" on="0"/>
        <pt x="220" y="607" on="1"/>
        <pt x="220" y="587" on="0"/>
        <pt x="197" y="563" on="0"/>
        <pt x="178" y="563" on="1"/>
        <pt x="137" y="563" on="0"/>
        <pt x="137" y="604" on="1"/>
        <pt x="137" y="624" on="0"/>
        <pt x="161" y="648" on="0"/>
        <pt x="181" y="648" on="1"/>
      </contour>
      <contour>
        <pt x="324" y="648" on="0"/>
        <pt x="345" y="626" on="0"/>
        <pt x="345" y="607" on="1"/>
        <pt x="345" y="587" on="0"/>
        <pt x="322" y="563" on="0"/>
        <pt x="303" y="563" on="1"/>
        <pt x="262" y="563" on="0"/>
        <pt x="262" y="604" on="1"/>
        <pt x="262" y="624" on="0"/>
        <pt x="285" y="648" on="0"/>
        <pt x="305" y="648" on="1"/>
      </contour>
    </TTGlyph>
    <TTGlyph name="dieresisacute" xMin="119" yMin="546" xMax="360" yMax="788">
      <contour>
        <pt x="360" y="738" on="1"/>
        <pt x="355" y="729" on="1"/>
        <pt x="253" y="702" on="0"/>
        <pt x="150" y="679" on="1"/>
        <pt x="141" y="684" on="1"/>
        <pt x="134" y="720" on="1"/>
        <pt x="259" y="757" on="0"/>
        <pt x="340" y="788" on="1"/>
        <pt x="347" y="784" on="1"/>
      </contour>
      <contour>
        <pt x="178" y="626" on="0"/>
        <pt x="199" y="605" on="0"/>
        <pt x="199" y="587" on="1"/>
        <pt x="199" y="568" on="0"/>
        <pt x="177" y="546" on="0"/>
        <pt x="158" y="546" on="1"/>
        <pt x="119" y="546" on="0"/>
        <pt x="119" y="585" on="1"/>
        <pt x="119" y="604" on="0"/>
        <pt x="141" y="626" on="0"/>
        <pt x="160" y="626" on="1"/>
      </contour>
      <contour>
        <pt x="334" y="626" on="0"/>
        <pt x="355" y="605" on="0"/>
        <pt x="355" y="587" on="1"/>
        <pt x="355" y="568" on="0"/>
        <pt x="333" y="546" on="0"/>
        <pt x="314" y="546" on="1"/>
        <pt x="275" y="546" on="0"/>
        <pt x="275" y="585" on="1"/>
        <pt x="275" y="604" on="0"/>
        <pt x="297" y="626" on="0"/>
        <pt x="316" y="626" on="1"/>
      </contour>
    </TTGlyph>
    <TTGlyph name="dieresiscaron" xMin="122" yMin="546" xMax="379" yMax="772">
      <contour>
        <pt x="316" y="701" on="0"/>
        <pt x="254" y="650" on="1"/>
        <pt x="233" y="650" on="1"/>
        <pt x="181" y="697" on="0"/>
        <pt x="126" y="739" on="1"/>
        <pt x="146" y="772" on="1"/>
        <pt x="154" y="772" on="1"/>
        <pt x="208" y="735" on="0"/>
        <pt x="247" y="705" on="1"/>
        <pt x="323" y="752" on="0"/>
        <pt x="358" y="772" on="1"/>
        <pt x="367" y="772" on="1"/>
        <pt x="379" y="739" on="1"/>
      </contour>
      <contour>
        <pt x="180" y="626" on="0"/>
        <pt x="201" y="605" on="0"/>
        <pt x="201" y="587" on="1"/>
        <pt x="201" y="568" on="0"/>
        <pt x="179" y="546" on="0"/>
        <pt x="160" y="546" on="1"/>
        <pt x="122" y="546" on="0"/>
        <pt x="122" y="585" on="1"/>
        <pt x="122" y="604" on="0"/>
        <pt x="143" y="626" on="0"/>
        <pt x="162" y="626" on="1"/>
      </contour>
      <contour>
        <pt x="336" y="626" on="0"/>
        <pt x="357" y="605" on="0"/>
        <pt x="357" y="587" on="1"/>
        <pt x="357" y="568" on="0"/>
        <pt x="335" y="546" on="0"/>
        <pt x="316" y="546" on="1"/>
        <pt x="277" y="546" on="0"/>
        <pt x="277" y="585" on="1"/>
        <pt x="277" y="604" on="0"/>
        <pt x="299" y="626" on="0"/>
        <pt x="318" y="626" on="1"/>
      </contour>
    </TTGlyph>
    <TTGlyph name="dieresisgrave" xMin="118" yMin="546" xMax="371" yMax="788">
      <contour>
        <pt x="243" y="760" on="0"/>
        <pt x="371" y="720" on="1"/>
        <pt x="360" y="684" on="1"/>
        <pt x="350" y="679" on="1"/>
        <pt x="241" y="704" on="0"/>
        <pt x="152" y="729" on="1"/>
        <pt x="148" y="738" on="1"/>
        <pt x="165" y="784" on="1"/>
        <pt x="174" y="788" on="1"/>
      </contour>
      <contour>
        <pt x="180" y="626" on="0"/>
        <pt x="198" y="608" on="0"/>
        <pt x="198" y="592" on="1"/>
        <pt x="198" y="572" on="0"/>
        <pt x="173" y="546" on="0"/>
        <pt x="152" y="546" on="1"/>
        <pt x="118" y="546" on="0"/>
        <pt x="118" y="580" on="1"/>
        <pt x="118" y="600" on="0"/>
        <pt x="143" y="626" on="0"/>
        <pt x="164" y="626" on="1"/>
      </contour>
      <contour>
        <pt x="336" y="626" on="0"/>
        <pt x="354" y="608" on="0"/>
        <pt x="354" y="592" on="1"/>
        <pt x="354" y="572" on="0"/>
        <pt x="329" y="546" on="0"/>
        <pt x="308" y="546" on="1"/>
        <pt x="274" y="546" on="0"/>
        <pt x="274" y="580" on="1"/>
        <pt x="274" y="600" on="0"/>
        <pt x="299" y="626" on="0"/>
        <pt x="320" y="626" on="1"/>
      </contour>
    </TTGlyph>
    <TTGlyph name="dieresismacron" xMin="129" yMin="546" xMax="397" yMax="744">
      <contour>
        <pt x="392" y="693" on="1"/>
        <pt x="136" y="693" on="1"/>
        <pt x="129" y="699" on="1"/>
        <pt x="134" y="744" on="1"/>
        <pt x="391" y="744" on="1"/>
        <pt x="397" y="738" on="1"/>
      </contour>
      <contour>
        <pt x="193" y="626" on="0"/>
        <pt x="213" y="605" on="0"/>
        <pt x="213" y="587" on="1"/>
        <pt x="213" y="568" on="0"/>
        <pt x="191" y="546" on="0"/>
        <pt x="172" y="546" on="1"/>
        <pt x="155" y="546" on="0"/>
        <pt x="134" y="567" on="0"/>
        <pt x="134" y="585" on="1"/>
        <pt x="134" y="604" on="0"/>
        <pt x="156" y="626" on="0"/>
        <pt x="175" y="626" on="1"/>
      </contour>
      <contour>
        <pt x="349" y="626" on="0"/>
        <pt x="369" y="605" on="0"/>
        <pt x="369" y="587" on="1"/>
        <pt x="369" y="568" on="0"/>
        <pt x="347" y="546" on="0"/>
        <pt x="328" y="546" on="1"/>
        <pt x="290" y="546" on="0"/>
        <pt x="290" y="585" on="1"/>
        <pt x="290" y="604" on="0"/>
        <pt x="312" y="626" on="0"/>
        <pt x="331" y="626" on="1"/>
      </contour>
    </TTGlyph>
    <TTGlyph name="divide" xMin="35" yMin="46" xMax="452" yMax="462">
      <component glyphName="minus" x="0" y="0" flags="0x1000"/>
      <component glyphName="period" x="127" y="51" scale="0.944580078125" flags="0x1000"/>
      <component glyphName="period" x="167" y="383" scale="0.944580078125" flags="0x1000"/>
    </TTGlyph>
    <TTGlyph name="divisionslash" xMin="-3" yMin="-113" xMax="314" yMax="678">
      <component glyphName="slash" x="0" y="0" flags="0x1000"/>
    </TTGlyph>
    <TTGlyph name="dollar" xMin="28" yMin="-129" xMax="377" yMax="639">
      <contour>
        <pt x="308" y="446" on="0"/>
        <pt x="269" y="450" on="1"/>
        <pt x="245" y="272" on="1"/>
        <pt x="297" y="248" on="0"/>
        <pt x="356" y="193" on="0"/>
        <pt x="356" y="146" on="1"/>
        <pt x="356" y="93" on="0"/>
        <pt x="276" y="8" on="0"/>
        <pt x="208" y="-2" on="1"/>
        <pt x="192" y="-129" on="1"/>
        <pt x="154" y="-129" on="1"/>
        <pt x="148" y="-122" on="1"/>
        <pt x="162" y="-5" on="1"/>
        <pt x="85" y="-3" on="0"/>
        <pt x="28" y="29" on="1"/>
        <pt x="40" y="93" on="1"/>
        <pt x="50" y="97" on="1"/>
        <pt x="73" y="73" on="0"/>
        <pt x="137" y="46" on="0"/>
        <pt x="168" y="44" on="1"/>
        <pt x="193" y="226" on="1"/>
        <pt x="137" y="251" on="0"/>
        <pt x="76" y="307" on="0"/>
        <pt x="76" y="355" on="1"/>
        <pt x="76" y="409" on="0"/>
        <pt x="160" y="492" on="0"/>
        <pt x="229" y="499" on="1"/>
        <pt x="246" y="639" on="1"/>
        <pt x="283" y="639" on="1"/>
        <pt x="292" y="631" on="1"/>
        <pt x="274" y="500" on="1"/>
        <pt x="325" y="498" on="0"/>
        <pt x="377" y="477" on="1"/>
        <pt x="360" y="416" on="1"/>
        <pt x="349" y="413" on="1"/>
      </contour>
      <contour>
        <pt x="138" y="342" on="0"/>
        <pt x="171" y="309" on="0"/>
        <pt x="201" y="293" on="1"/>
        <pt x="222" y="448" on="1"/>
        <pt x="183" y="442" on="0"/>
        <pt x="138" y="394" on="0"/>
        <pt x="138" y="365" on="1"/>
      </contour>
      <contour>
        <pt x="294" y="157" on="0"/>
        <pt x="264" y="190" on="0"/>
        <pt x="236" y="205" on="1"/>
        <pt x="215" y="49" on="1"/>
        <pt x="250" y="59" on="0"/>
        <pt x="294" y="107" on="0"/>
        <pt x="294" y="134" on="1"/>
      </contour>
    </TTGlyph>
    <TTGlyph name="dotaccent" xMin="198" yMin="572" xMax="285" yMax="661">
      <contour>
        <pt x="285" y="661" on="0"/>
        <pt x="285" y="618" on="1"/>
        <pt x="285" y="597" on="0"/>
        <pt x="261" y="572" on="0"/>
        <pt x="241" y="572" on="1"/>
        <pt x="221" y="572" on="0"/>
        <pt x="198" y="596" on="0"/>
        <pt x="198" y="616" on="1"/>
        <pt x="198" y="636" on="0"/>
        <pt x="223" y="661" on="0"/>
        <pt x="244" y="661" on="1"/>
      </contour>
    </TTGlyph>
    <TTGlyph name="dotbelowcomb" xMin="108" yMin="-161" xMax="195" yMax="-73">
      <contour>
        <pt x="173" y="-73" on="0"/>
        <pt x="195" y="-96" on="0"/>
        <pt x="195" y="-115" on="1"/>
        <pt x="195" y="-136" on="0"/>
        <pt x="171" y="-161" on="0"/>
        <pt x="151" y="-161" on="1"/>
        <pt x="131" y="-161" on="0"/>
        <pt x="108" y="-138" on="0"/>
        <pt x="108" y="-118" on="1"/>
        <pt x="108" y="-98" on="0"/>
        <pt x="132" y="-73" on="0"/>
        <pt x="153" y="-73" on="1"/>
      </contour>
    </TTGlyph>
    <TTGlyph name="dotlessi" xMin="61" yMin="0" xMax="194" yMax="498">
      <component glyphName="i" x="0" y="0" flags="0x1000"/>
    </TTGlyph>
    <TTGlyph name="dotlessj" xMin="-2" yMin="-79" xMax="218" yMax="498">
      <component glyphName="j" x="0" y="0" flags="0x1000"/>
    </TTGlyph>
    <TTGlyph name="down" xMin="64" yMin="74" xMax="347" yMax="357">
      <contour>
        <pt x="64" y="357" on="1"/>
        <pt x="347" y="357" on="1"/>
        <pt x="205" y="74" on="1"/>
      </contour>
    </TTGlyph>
    <TTGlyph name="e" xMin="61" yMin="0" xMax="417" yMax="498">
      <contour>
        <pt x="165" y="284" on="1"/>
        <pt x="261" y="283" on="1"/>
        <pt x="344" y="286" on="1"/>
        <pt x="347" y="279" on="1"/>
        <pt x="336" y="224" on="1"/>
        <pt x="247" y="226" on="1"/>
        <pt x="157" y="226" on="1"/>
        <pt x="147" y="156" on="1"/>
        <pt x="137" y="58" on="1"/>
        <pt x="230" y="57" on="1"/>
        <pt x="358" y="60" on="1"/>
        <pt x="363" y="55" on="1"/>
        <pt x="350" y="0" on="1"/>
        <pt x="61" y="0" on="1"/>
        <pt x="82" y="150" on="1"/>
        <pt x="123" y="498" on="1"/>
        <pt x="414" y="498" on="1"/>
        <pt x="417" y="491" on="1"/>
        <pt x="405" y="437" on="1"/>
        <pt x="286" y="441" on="1"/>
        <pt x="186" y="440" on="1"/>
      </contour>
    </TTGlyph>
    <TTGlyph name="e.sups" xMin="64" yMin="333" xMax="285" yMax="647">
      <contour>
        <pt x="268" y="408" on="1"/>
        <pt x="226" y="344" on="0"/>
        <pt x="162" y="333" on="1"/>
        <pt x="154" y="333" on="1"/>
        <pt x="106" y="337" on="0"/>
        <pt x="64" y="393" on="0"/>
        <pt x="64" y="446" on="1"/>
        <pt x="65" y="533" on="0"/>
        <pt x="149" y="644" on="0"/>
        <pt x="216" y="647" on="1"/>
        <pt x="223" y="647" on="1"/>
        <pt x="285" y="637" on="0"/>
        <pt x="285" y="584" on="1"/>
        <pt x="285" y="545" on="0"/>
        <pt x="206" y="482" on="0"/>
        <pt x="121" y="454" on="1"/>
        <pt x="122" y="377" on="0"/>
        <pt x="165" y="377" on="1"/>
        <pt x="207" y="377" on="0"/>
        <pt x="239" y="434" on="1"/>
        <pt x="248" y="433" on="1"/>
      </contour>
      <contour>
        <pt x="171" y="607" on="0"/>
        <pt x="128" y="544" on="0"/>
        <pt x="123" y="490" on="1"/>
        <pt x="231" y="529" on="0"/>
        <pt x="231" y="580" on="1"/>
        <pt x="231" y="607" on="0"/>
        <pt x="203" y="607" on="1"/>
      </contour>
    </TTGlyph>
    <TTGlyph name="eacute" xMin="61" yMin="0" xMax="417" yMax="735">
      <component glyphName="e" x="0" y="0" flags="0x1000"/>
      <component glyphName="acute" x="47" y="40" flags="0x1000"/>
    </TTGlyph>
    <TTGlyph name="ebreve" xMin="61" yMin="0" xMax="417" yMax="709">
      <component glyphName="e" x="0" y="0" flags="0x1000"/>
      <component glyphName="breve" x="40" y="40" flags="0x1000"/>
    </TTGlyph>
    <TTGlyph name="ecaron" xMin="61" yMin="0" xMax="417" yMax="726">
      <component glyphName="e" x="0" y="0" flags="0x1000"/>
      <component glyphName="caron" x="39" y="40" flags="0x1000"/>
    </TTGlyph>
    <TTGlyph name="ecircumflex" xMin="61" yMin="0" xMax="417" yMax="725">
      <component glyphName="e" x="0" y="0" flags="0x1000"/>
      <component glyphName="circumflex" x="51" y="40" flags="0x1000"/>
    </TTGlyph>
    <TTGlyph name="ecircumflexacute" xMin="61" yMin="0" xMax="446" yMax="801">
      <component glyphName="e" x="0" y="0" flags="0x1000"/>
      <component glyphName="circumflexacute" x="46" y="40" flags="0x1000"/>
    </TTGlyph>
    <TTGlyph name="ecircumflexdotbelow" xMin="61" yMin="-161" xMax="417" yMax="725">
      <component glyphName="e" x="0" y="0" flags="0x1000"/>
      <component glyphName="dotbelowcomb" x="56" y="0" flags="0x1000"/>
      <component glyphName="circumflex" x="51" y="40" flags="0x1000"/>
    </TTGlyph>
    <TTGlyph name="ecircumflexgrave" xMin="61" yMin="0" xMax="417" yMax="800">
      <component glyphName="e" x="0" y="0" flags="0x1000"/>
      <component glyphName="circumflexgrave" x="46" y="40" flags="0x1000"/>
    </TTGlyph>
    <TTGlyph name="ecircumflexhookabove" xMin="61" yMin="0" xMax="433" yMax="839">
      <component glyphName="e" x="0" y="0" flags="0x1000"/>
      <component glyphName="circumflexhookabove" x="46" y="40" flags="0x1000"/>
    </TTGlyph>
    <TTGlyph name="ecircumflextilde" xMin="61" yMin="0" xMax="465" yMax="821">
      <component glyphName="e" x="0" y="0" flags="0x1000"/>
      <component glyphName="circumflextilde" x="63" y="40" flags="0x1000"/>
    </TTGlyph>
    <TTGlyph name="edieresis" xMin="61" yMin="0" xMax="417" yMax="689">
      <component glyphName="e" x="0" y="0" flags="0x1000"/>
      <component glyphName="dieresis" x="45" y="40" flags="0x1000"/>
    </TTGlyph>
    <TTGlyph name="edotaccent" xMin="61" yMin="0" xMax="417" yMax="701">
      <component glyphName="e" x="0" y="0" flags="0x1000"/>
      <component glyphName="dotaccent" x="45" y="40" flags="0x1000"/>
    </TTGlyph>
    <TTGlyph name="edotbelow" xMin="61" yMin="-161" xMax="417" yMax="498">
      <component glyphName="e" x="0" y="0" flags="0x1000"/>
      <component glyphName="dotbelowcomb" x="56" y="0" flags="0x1000"/>
    </TTGlyph>
    <TTGlyph name="egrave" xMin="61" yMin="0" xMax="417" yMax="735">
      <component glyphName="e" x="0" y="0" flags="0x1000"/>
      <component glyphName="grave" x="36" y="40" flags="0x1000"/>
    </TTGlyph>
    <TTGlyph name="ehookabove" xMin="61" yMin="0" xMax="417" yMax="750">
      <component glyphName="e" x="0" y="0" flags="0x1000"/>
      <component glyphName="hookabove" x="16" y="40" flags="0x1000"/>
    </TTGlyph>
    <TTGlyph name="eight" xMin="40" yMin="-7" xMax="426" yMax="592">
      <contour>
        <pt x="344" y="592" on="0"/>
        <pt x="426" y="522" on="0"/>
        <pt x="426" y="460" on="1"/>
        <pt x="426" y="362" on="0"/>
        <pt x="309" y="309" on="1"/>
        <pt x="308" y="304" on="1"/>
        <pt x="359" y="279" on="0"/>
        <pt x="413" y="219" on="0"/>
        <pt x="413" y="164" on="1"/>
        <pt x="413" y="115" on="0"/>
        <pt x="363" y="37" on="0"/>
        <pt x="273" y="-7" on="0"/>
        <pt x="214" y="-7" on="1"/>
        <pt x="134" y="-7" on="0"/>
        <pt x="40" y="72" on="0"/>
        <pt x="40" y="138" on="1"/>
        <pt x="40" y="196" on="0"/>
        <pt x="113" y="268" on="0"/>
        <pt x="177" y="297" on="1"/>
        <pt x="178" y="301" on="1"/>
        <pt x="138" y="324" on="0"/>
        <pt x="95" y="380" on="0"/>
        <pt x="95" y="428" on="1"/>
        <pt x="95" y="501" on="0"/>
        <pt x="195" y="592" on="0"/>
        <pt x="275" y="592" on="1"/>
      </contour>
      <contour>
        <pt x="222" y="538" on="0"/>
        <pt x="157" y="481" on="0"/>
        <pt x="157" y="435" on="1"/>
        <pt x="157" y="394" on="0"/>
        <pt x="204" y="349" on="0"/>
        <pt x="251" y="329" on="1"/>
        <pt x="303" y="350" on="0"/>
        <pt x="365" y="407" on="0"/>
        <pt x="365" y="454" on="1"/>
        <pt x="365" y="495" on="0"/>
        <pt x="318" y="538" on="0"/>
        <pt x="274" y="538" on="1"/>
      </contour>
      <contour>
        <pt x="172" y="251" on="0"/>
        <pt x="104" y="197" on="0"/>
        <pt x="104" y="146" on="1"/>
        <pt x="104" y="100" on="0"/>
        <pt x="163" y="46" on="0"/>
        <pt x="216" y="46" on="1"/>
        <pt x="275" y="46" on="0"/>
        <pt x="350" y="111" on="0"/>
        <pt x="350" y="160" on="1"/>
        <pt x="350" y="203" on="0"/>
        <pt x="293" y="250" on="0"/>
        <pt x="233" y="274" on="1"/>
      </contour>
    </TTGlyph>
    <TTGlyph name="eight.dnom" xMin="22" yMin="-5" xMax="292" yMax="381">
      <contour>
        <pt x="238" y="381" on="0"/>
        <pt x="292" y="337" on="0"/>
        <pt x="292" y="299" on="1"/>
        <pt x="292" y="263" on="0"/>
        <pt x="250" y="218" on="0"/>
        <pt x="211" y="201" on="1"/>
        <pt x="210" y="197" on="1"/>
        <pt x="244" y="181" on="0"/>
        <pt x="281" y="145" on="0"/>
        <pt x="281" y="114" on="1"/>
        <pt x="281" y="60" on="0"/>
        <pt x="201" y="-5" on="0"/>
        <pt x="136" y="-5" on="1"/>
        <pt x="83" y="-5" on="0"/>
        <pt x="22" y="45" on="0"/>
        <pt x="22" y="85" on="1"/>
        <pt x="22" y="153" on="0"/>
        <pt x="117" y="188" on="1"/>
        <pt x="117" y="190" on="1"/>
        <pt x="59" y="220" on="0"/>
        <pt x="59" y="269" on="1"/>
        <pt x="59" y="320" on="0"/>
        <pt x="132" y="381" on="0"/>
        <pt x="192" y="381" on="1"/>
      </contour>
      <contour>
        <pt x="153" y="338" on="0"/>
        <pt x="114" y="304" on="0"/>
        <pt x="114" y="276" on="1"/>
        <pt x="114" y="254" on="0"/>
        <pt x="143" y="228" on="0"/>
        <pt x="172" y="215" on="1"/>
        <pt x="204" y="228" on="0"/>
        <pt x="240" y="262" on="0"/>
        <pt x="240" y="291" on="1"/>
        <pt x="240" y="313" on="0"/>
        <pt x="211" y="338" on="0"/>
        <pt x="186" y="338" on="1"/>
      </contour>
      <contour>
        <pt x="77" y="146" on="0"/>
        <pt x="77" y="91" on="1"/>
        <pt x="77" y="67" on="0"/>
        <pt x="111" y="38" on="0"/>
        <pt x="143" y="38" on="1"/>
        <pt x="182" y="38" on="0"/>
        <pt x="228" y="76" on="0"/>
        <pt x="228" y="105" on="1"/>
        <pt x="228" y="130" on="0"/>
        <pt x="192" y="156" on="0"/>
        <pt x="156" y="170" on="1"/>
      </contour>
    </TTGlyph>
    <TTGlyph name="eight.lf" xMin="40" yMin="-7" xMax="426" yMax="592">
      <component glyphName="eight" x="0" y="0" flags="0x1000"/>
    </TTGlyph>
    <TTGlyph name="eight.numr" xMin="54" yMin="259" xMax="324" yMax="645">
      <component glyphName="eight.dnom" x="32" y="264" flags="0x1000"/>
    </TTGlyph>
    <TTGlyph name="eight.sinf" xMin="-3" yMin="-125" xMax="267" yMax="261">
      <component glyphName="eight.dnom" x="-25" y="-120" flags="0x1000"/>
    </TTGlyph>
    <TTGlyph name="eight.tf" xMin="41" yMin="-7" xMax="430" yMax="592">
      <contour>
        <pt x="347" y="592" on="0"/>
        <pt x="430" y="522" on="0"/>
        <pt x="430" y="460" on="1"/>
        <pt x="430" y="363" on="0"/>
        <pt x="312" y="309" on="1"/>
        <pt x="311" y="304" on="1"/>
        <pt x="363" y="279" on="0"/>
        <pt x="418" y="219" on="0"/>
        <pt x="418" y="164" on="1"/>
        <pt x="418" y="115" on="0"/>
        <pt x="368" y="37" on="0"/>
        <pt x="276" y="-7" on="0"/>
        <pt x="217" y="-7" on="1"/>
        <pt x="136" y="-7" on="0"/>
        <pt x="41" y="72" on="0"/>
        <pt x="41" y="138" on="1"/>
        <pt x="41" y="196" on="0"/>
        <pt x="115" y="268" on="0"/>
        <pt x="180" y="297" on="1"/>
        <pt x="181" y="301" on="1"/>
        <pt x="140" y="324" on="0"/>
        <pt x="97" y="380" on="0"/>
        <pt x="97" y="428" on="1"/>
        <pt x="97" y="501" on="0"/>
        <pt x="198" y="592" on="0"/>
        <pt x="278" y="592" on="1"/>
      </contour>
      <contour>
        <pt x="225" y="538" on="0"/>
        <pt x="159" y="481" on="0"/>
        <pt x="159" y="435" on="1"/>
        <pt x="159" y="394" on="0"/>
        <pt x="207" y="349" on="0"/>
        <pt x="254" y="329" on="1"/>
        <pt x="307" y="350" on="0"/>
        <pt x="369" y="407" on="0"/>
        <pt x="369" y="454" on="1"/>
        <pt x="369" y="495" on="0"/>
        <pt x="322" y="538" on="0"/>
        <pt x="277" y="538" on="1"/>
      </contour>
      <contour>
        <pt x="174" y="251" on="0"/>
        <pt x="105" y="197" on="0"/>
        <pt x="105" y="146" on="1"/>
        <pt x="105" y="100" on="0"/>
        <pt x="165" y="46" on="0"/>
        <pt x="218" y="46" on="1"/>
        <pt x="278" y="46" on="0"/>
        <pt x="355" y="111" on="0"/>
        <pt x="355" y="160" on="1"/>
        <pt x="355" y="203" on="0"/>
        <pt x="298" y="249" on="0"/>
        <pt x="237" y="274" on="1"/>
      </contour>
    </TTGlyph>
    <TTGlyph name="eight.tosf" xMin="41" yMin="-7" xMax="427" yMax="592">
      <contour>
        <pt x="345" y="592" on="0"/>
        <pt x="427" y="522" on="0"/>
        <pt x="427" y="460" on="1"/>
        <pt x="427" y="362" on="0"/>
        <pt x="310" y="309" on="1"/>
        <pt x="309" y="304" on="1"/>
        <pt x="360" y="279" on="0"/>
        <pt x="415" y="219" on="0"/>
        <pt x="415" y="164" on="1"/>
        <pt x="415" y="115" on="0"/>
        <pt x="365" y="37" on="0"/>
        <pt x="274" y="-7" on="0"/>
        <pt x="215" y="-7" on="1"/>
        <pt x="135" y="-7" on="0"/>
        <pt x="41" y="72" on="0"/>
        <pt x="41" y="138" on="1"/>
        <pt x="41" y="197" on="0"/>
        <pt x="114" y="268" on="0"/>
        <pt x="179" y="297" on="1"/>
        <pt x="180" y="301" on="1"/>
        <pt x="139" y="323" on="0"/>
        <pt x="97" y="380" on="0"/>
        <pt x="97" y="428" on="1"/>
        <pt x="97" y="501" on="0"/>
        <pt x="197" y="592" on="0"/>
        <pt x="276" y="592" on="1"/>
      </contour>
      <contour>
        <pt x="223" y="538" on="0"/>
        <pt x="158" y="481" on="0"/>
        <pt x="158" y="435" on="1"/>
        <pt x="158" y="394" on="0"/>
        <pt x="206" y="349" on="0"/>
        <pt x="253" y="329" on="1"/>
        <pt x="305" y="350" on="0"/>
        <pt x="366" y="407" on="0"/>
        <pt x="366" y="454" on="1"/>
        <pt x="366" y="538" on="0"/>
        <pt x="275" y="538" on="1"/>
      </contour>
      <contour>
        <pt x="173" y="251" on="0"/>
        <pt x="105" y="197" on="0"/>
        <pt x="105" y="146" on="1"/>
        <pt x="105" y="100" on="0"/>
        <pt x="164" y="46" on="0"/>
        <pt x="217" y="46" on="1"/>
        <pt x="276" y="46" on="0"/>
        <pt x="352" y="111" on="0"/>
        <pt x="352" y="160" on="1"/>
        <pt x="352" y="203" on="0"/>
        <pt x="295" y="250" on="0"/>
        <pt x="235" y="274" on="1"/>
      </contour>
    </TTGlyph>
    <TTGlyph name="eightsuperior" xMin="61" yMin="318" xMax="331" yMax="704">
      <component glyphName="eight.dnom" x="39" y="323" flags="0x1000"/>
    </TTGlyph>
    <TTGlyph name="ellipsis" xMin="22" yMin="-5" xMax="456" yMax="84">
      <component glyphName="period" x="147" y="0" flags="0x1000"/>
      <component glyphName="period" x="321" y="0" flags="0x1000"/>
      <component glyphName="period" x="-26" y="0" flags="0x1000"/>
    </TTGlyph>
    <TTGlyph name="emacron" xMin="61" yMin="0" xMax="433" yMax="672">
      <component glyphName="e" x="0" y="0" flags="0x1000"/>
      <component glyphName="macron" x="45" y="40" flags="0x1000"/>
    </TTGlyph>
    <TTGlyph name="emdash" xMin="-15" yMin="229" xMax="955" yMax="282">
      <contour>
        <pt x="945" y="229" on="1"/>
        <pt x="-10" y="229" on="1"/>
        <pt x="-15" y="235" on="1"/>
        <pt x="-5" y="282" on="1"/>
        <pt x="950" y="282" on="1"/>
        <pt x="955" y="276" on="1"/>
      </contour>
    </TTGlyph>
    <TTGlyph name="endash" xMin="-14" yMin="229" xMax="500" yMax="282">
      <contour>
        <pt x="491" y="229" on="1"/>
        <pt x="-9" y="229" on="1"/>
        <pt x="-14" y="235" on="1"/>
        <pt x="-4" y="282" on="1"/>
        <pt x="496" y="282" on="1"/>
        <pt x="500" y="276" on="1"/>
      </contour>
    </TTGlyph>
    <TTGlyph name="eng" xMin="61" yMin="-124" xMax="522" yMax="500">
      <contour>
        <pt x="461" y="38" on="1"/>
        <pt x="453" y="-19" on="0"/>
        <pt x="399" y="-91" on="0"/>
        <pt x="337" y="-124" on="1"/>
        <pt x="317" y="-94" on="1"/>
        <pt x="318" y="-86" on="1"/>
        <pt x="374" y="-47" on="0"/>
        <pt x="388" y="0" on="1"/>
        <pt x="177" y="386" on="1"/>
        <pt x="172" y="386" on="1"/>
        <pt x="144" y="165" on="1"/>
        <pt x="125" y="0" on="1"/>
        <pt x="61" y="0" on="1"/>
        <pt x="83" y="147" on="1"/>
        <pt x="124" y="498" on="1"/>
        <pt x="198" y="498" on="1"/>
        <pt x="405" y="118" on="1"/>
        <pt x="410" y="118" on="1"/>
        <pt x="456" y="495" on="1"/>
        <pt x="522" y="500" on="1"/>
        <pt x="473" y="148" on="1"/>
      </contour>
    </TTGlyph>
    <TTGlyph name="eogonek" xMin="61" yMin="-197" xMax="418" yMax="498">
      <contour>
        <pt x="164" y="284" on="1"/>
        <pt x="260" y="283" on="1"/>
        <pt x="343" y="286" on="1"/>
        <pt x="347" y="279" on="1"/>
        <pt x="335" y="224" on="1"/>
        <pt x="247" y="226" on="1"/>
        <pt x="156" y="226" on="1"/>
        <pt x="147" y="156" on="1"/>
        <pt x="137" y="58" on="1"/>
        <pt x="230" y="57" on="1"/>
        <pt x="358" y="60" on="1"/>
        <pt x="363" y="55" on="1"/>
        <pt x="350" y="0" on="1"/>
        <pt x="277" y="0" on="1"/>
        <pt x="241" y="-55" on="1"/>
        <pt x="224" y="-84" on="0"/>
        <pt x="224" y="-105" on="1"/>
        <pt x="224" y="-146" on="0"/>
        <pt x="264" y="-146" on="1"/>
        <pt x="299" y="-146" on="0"/>
        <pt x="334" y="-106" on="1"/>
        <pt x="338" y="-106" on="1"/>
        <pt x="349" y="-144" on="1"/>
        <pt x="299" y="-197" on="0"/>
        <pt x="252" y="-197" on="1"/>
        <pt x="217" y="-197" on="0"/>
        <pt x="174" y="-153" on="0"/>
        <pt x="174" y="-119" on="1"/>
        <pt x="174" y="-83" on="0"/>
        <pt x="199" y="-46" on="1"/>
        <pt x="231" y="0" on="1"/>
        <pt x="61" y="0" on="1"/>
        <pt x="82" y="150" on="1"/>
        <pt x="123" y="498" on="1"/>
        <pt x="415" y="498" on="1"/>
        <pt x="418" y="491" on="1"/>
        <pt x="405" y="437" on="1"/>
        <pt x="287" y="441" on="1"/>
        <pt x="185" y="440" on="1"/>
      </contour>
    </TTGlyph>
    <TTGlyph name="equal" xMin="29" yMin="157" xMax="466" yMax="374">
      <component glyphName="minus" x="14" y="82" flags="0x1000"/>
      <component glyphName="minus" x="-6" y="-82" flags="0x1000"/>
    </TTGlyph>
    <TTGlyph name="estimated" xMin="51" yMin="-12" xMax="787" yMax="651">
      <contour>
        <pt x="520" y="651" on="0"/>
        <pt x="688" y="562" on="0"/>
        <pt x="787" y="409" on="0"/>
        <pt x="787" y="319" on="1"/>
        <pt x="787" y="311" on="1"/>
        <pt x="191" y="311" on="1"/>
        <pt x="185" y="311" on="0"/>
        <pt x="185" y="307" on="1"/>
        <pt x="185" y="126" on="1"/>
        <pt x="185" y="117" on="0"/>
        <pt x="195" y="105" on="1"/>
        <pt x="238" y="59" on="0"/>
        <pt x="355" y="8" on="0"/>
        <pt x="421" y="8" on="1"/>
        <pt x="492" y="8" on="0"/>
        <pt x="617" y="66" on="0"/>
        <pt x="661" y="117" on="1"/>
        <pt x="711" y="117" on="1"/>
        <pt x="660" y="57" on="0"/>
        <pt x="506" y="-12" on="0"/>
        <pt x="420" y="-12" on="1"/>
        <pt x="320" y="-12" on="0"/>
        <pt x="151" y="77" on="0"/>
        <pt x="51" y="229" on="0"/>
        <pt x="51" y="319" on="1"/>
        <pt x="51" y="409" on="0"/>
        <pt x="151" y="562" on="0"/>
        <pt x="320" y="651" on="0"/>
        <pt x="420" y="651" on="1"/>
      </contour>
      <contour>
        <pt x="356" y="631" on="0"/>
        <pt x="240" y="580" on="0"/>
        <pt x="196" y="535" on="1"/>
        <pt x="185" y="524" on="0"/>
        <pt x="185" y="512" on="1"/>
        <pt x="185" y="335" on="1"/>
        <pt x="185" y="330" on="0"/>
        <pt x="191" y="330" on="1"/>
        <pt x="649" y="330" on="1"/>
        <pt x="654" y="330" on="0"/>
        <pt x="654" y="335" on="1"/>
        <pt x="654" y="516" on="1"/>
        <pt x="654" y="528" on="0"/>
        <pt x="644" y="538" on="1"/>
        <pt x="600" y="582" on="0"/>
        <pt x="485" y="631" on="0"/>
        <pt x="421" y="631" on="1"/>
      </contour>
    </TTGlyph>
    <TTGlyph name="eth" xMin="4" yMin="-5" xMax="513" yMax="502">
      <contour>
        <pt x="406" y="502" on="0"/>
        <pt x="513" y="398" on="0"/>
        <pt x="513" y="304" on="1"/>
        <pt x="513" y="159" on="0"/>
        <pt x="369" y="-5" on="0"/>
        <pt x="236" y="-5" on="1"/>
        <pt x="140" y="-5" on="0"/>
        <pt x="65" y="0" on="1"/>
        <pt x="85" y="150" on="1"/>
        <pt x="94" y="221" on="1"/>
        <pt x="8" y="221" on="1"/>
        <pt x="4" y="227" on="1"/>
        <pt x="13" y="272" on="1"/>
        <pt x="100" y="272" on="1"/>
        <pt x="127" y="498" on="1"/>
        <pt x="310" y="502" on="1"/>
      </contour>
      <contour>
        <pt x="340" y="53" on="0"/>
        <pt x="440" y="174" on="0"/>
        <pt x="440" y="290" on="1"/>
        <pt x="440" y="441" on="0"/>
        <pt x="300" y="441" on="1"/>
        <pt x="189" y="438" on="1"/>
        <pt x="167" y="272" on="1"/>
        <pt x="288" y="272" on="1"/>
        <pt x="290" y="265" on="1"/>
        <pt x="282" y="221" on="1"/>
        <pt x="160" y="221" on="1"/>
        <pt x="151" y="156" on="1"/>
        <pt x="140" y="58" on="1"/>
        <pt x="195" y="53" on="0"/>
        <pt x="250" y="53" on="1"/>
      </contour>
    </TTGlyph>
    <TTGlyph name="etilde" xMin="61" yMin="0" xMax="442" yMax="705">
      <component glyphName="e" x="0" y="0" flags="0x1000"/>
      <component glyphName="tilde" x="45" y="40" flags="0x1000"/>
    </TTGlyph>
    <TTGlyph name="exclam" xMin="69" yMin="-5" xMax="231" yMax="660">
      <contour>
        <pt x="157" y="216" on="1"/>
        <pt x="111" y="211" on="1"/>
        <pt x="104" y="221" on="1"/>
        <pt x="157" y="648" on="1"/>
        <pt x="166" y="657" on="1"/>
        <pt x="224" y="660" on="1"/>
        <pt x="231" y="650" on="1"/>
      </contour>
      <contour>
        <pt x="134" y="84" on="0"/>
        <pt x="156" y="62" on="0"/>
        <pt x="156" y="42" on="1"/>
        <pt x="156" y="21" on="0"/>
        <pt x="132" y="-5" on="0"/>
        <pt x="111" y="-5" on="1"/>
        <pt x="91" y="-5" on="0"/>
        <pt x="69" y="19" on="0"/>
        <pt x="69" y="39" on="1"/>
        <pt x="69" y="59" on="0"/>
        <pt x="93" y="84" on="0"/>
        <pt x="114" y="84" on="1"/>
      </contour>
    </TTGlyph>
    <TTGlyph name="exclamdown" xMin="31" yMin="-198" xMax="193" yMax="467">
      <component glyphName="exclam" x="262" y="462" scale="-1.0" flags="0x1000"/>
    </TTGlyph>
    <TTGlyph name="f" xMin="56" yMin="0" xMax="398" yMax="498">
      <contour>
        <pt x="158" y="272" on="1"/>
        <pt x="241" y="271" on="1"/>
        <pt x="325" y="274" on="1"/>
        <pt x="330" y="267" on="1"/>
        <pt x="317" y="213" on="1"/>
        <pt x="228" y="214" on="1"/>
        <pt x="150" y="213" on="1"/>
        <pt x="142" y="156" on="1"/>
        <pt x="126" y="0" on="1"/>
        <pt x="56" y="0" on="1"/>
        <pt x="77" y="150" on="1"/>
        <pt x="118" y="498" on="1"/>
        <pt x="394" y="498" on="1"/>
        <pt x="398" y="491" on="1"/>
        <pt x="384" y="437" on="1"/>
        <pt x="269" y="441" on="1"/>
        <pt x="181" y="440" on="1"/>
      </contour>
    </TTGlyph>
    <TTGlyph name="f.sups" xMin="72" yMin="241" xMax="309" yMax="809">
      <contour>
        <pt x="297" y="755" on="1"/>
        <pt x="288" y="751" on="1"/>
        <pt x="261" y="766" on="0"/>
        <pt x="240" y="766" on="1"/>
        <pt x="197" y="766" on="0"/>
        <pt x="189" y="696" on="1"/>
        <pt x="181" y="638" on="1"/>
        <pt x="247" y="638" on="1"/>
        <pt x="251" y="632" on="1"/>
        <pt x="246" y="602" on="1"/>
        <pt x="176" y="602" on="1"/>
        <pt x="158" y="468" on="1"/>
        <pt x="139" y="317" on="1"/>
        <pt x="134" y="246" on="1"/>
        <pt x="72" y="241" on="1"/>
        <pt x="101" y="462" on="1"/>
        <pt x="117" y="602" on="1"/>
        <pt x="76" y="602" on="1"/>
        <pt x="72" y="606" on="1"/>
        <pt x="78" y="638" on="1"/>
        <pt x="121" y="638" on="1"/>
        <pt x="126" y="682" on="1"/>
        <pt x="134" y="743" on="0"/>
        <pt x="198" y="809" on="0"/>
        <pt x="249" y="809" on="1"/>
        <pt x="307" y="801" on="1"/>
        <pt x="309" y="796" on="1"/>
      </contour>
    </TTGlyph>
    <TTGlyph name="firstofchinese" xMin="94" yMin="582" xMax="388" yMax="632">
      <component glyphName="macron" x="0" y="0" flags="0x1000"/>
    </TTGlyph>
    <TTGlyph name="firsttonechinese" xMin="94" yMin="582" xMax="388" yMax="632">
      <contour>
        <pt x="383" y="582" on="1"/>
        <pt x="99" y="582" on="1"/>
        <pt x="94" y="588" on="1"/>
        <pt x="98" y="632" on="1"/>
        <pt x="382" y="632" on="1"/>
        <pt x="388" y="627" on="1"/>
      </contour>
    </TTGlyph>
</ttFont>
